<svg width="198.000000" height="72.000000" viewBox="0 0 198 72" fill="none" xmlns="http://www.w3.org/2000/svg" xmlns:xlink="http://www.w3.org/1999/xlink">
	<desc>
			Created with Pixso.
	</desc>
	<defs>
		<clipPath id="clip7_920">
			<rect id="Frame" width="150.000000" height="40.000000" transform="translate(24.000000 16.000000)" fill="white" fill-opacity="0"/>
		</clipPath>
	</defs>
	<rect id="Frame" width="150.000000" height="40.000000" transform="translate(24.000000 16.000000)" fill="#FFFFFF" fill-opacity="0"/>
	<g clip-path="url(#clip7_920)">
		<path id="Vector" d="M24.8623 44.9471L24.8623 26.6393L34.0723 31.7249L34.0723 39.9125L41.4395 44.0317L48.8076 39.9125L48.8076 31.7249L58.0176 26.6393L58.0176 44.9471L41.4395 54.1011L24.8623 44.9471Z" fill="#FFFFFF" fill-opacity="1.000000" fill-rule="nonzero"/>
		<path id="Vector" d="M29.4668 29.1823L24.8623 26.6394L41.4395 17.4855L58.0176 26.6394L53.4121 29.1823L53.4121 42.6587L41.4395 49.5242L29.4668 42.6587L29.4668 29.1823ZM52.9141 29.4576L48.8076 31.725L48.8076 31.6741L41.4395 27.5548L34.0723 31.6741L34.0723 31.725L29.9658 29.4576L29.9658 42.3771L41.4395 48.9565L52.9141 42.3771L52.9141 29.4576Z" fill="#A1AEBF" fill-opacity="1.000000" fill-rule="evenodd"/>
		<path id="Vector" d="M66.8428 43.5002L66.8428 28.1217L69.7607 28.1217L69.7607 40.8639L76.834 40.8639L76.834 43.5002L66.8428 43.5002Z" fill="#FFFFFF" fill-opacity="1.000000" fill-rule="nonzero"/>
		<path id="Vector" d="M83.1328 43.8079C82.042 43.8079 81.0625 43.5883 80.1934 43.1487C79.3232 42.7094 78.6387 42.0723 78.1377 41.2374C77.6357 40.4026 77.3857 39.3993 77.3857 38.2277L77.3857 37.8761C77.3857 36.7045 77.6357 35.7012 78.1377 34.8663C78.6387 34.0315 79.3232 33.3944 80.1934 32.955C81.0625 32.5155 82.042 32.2959 83.1328 32.2959C84.2227 32.2959 85.2031 32.5155 86.0723 32.955C86.9414 33.3944 87.627 34.0315 88.1279 34.8663C88.6289 35.7012 88.8799 36.7045 88.8799 37.8761L88.8799 38.2277C88.8799 39.3993 88.6289 40.4026 88.1279 41.2374C87.627 42.0723 86.9414 42.7094 86.0723 43.1487C85.2031 43.5883 84.2227 43.8079 83.1328 43.8079ZM83.1328 41.3473C83.9873 41.3473 84.6943 41.0764 85.2549 40.5344C85.8145 39.9779 86.0947 39.1869 86.0947 38.1617L86.0947 37.942C86.0947 36.9169 85.8145 36.1332 85.2549 35.5913C84.709 35.0348 84.002 34.7565 83.1328 34.7565C82.2783 34.7565 81.5703 35.0348 81.0107 35.5913C80.4512 36.1332 80.1709 36.9169 80.1709 37.942L80.1709 38.1617C80.1709 39.1869 80.4512 39.9779 81.0107 40.5344C81.5703 41.0764 82.2783 41.3473 83.1328 41.3473Z" fill="#FFFFFF" fill-opacity="1.000000" fill-rule="nonzero"/>
		<path id="Vector" d="M89.9258 38.0958L89.9258 37.7444C89.9258 36.6019 90.1543 35.6279 90.6113 34.8224C91.0674 34.0022 91.6719 33.3796 92.4238 32.955C93.1895 32.5155 94.0225 32.2959 94.9209 32.2959C95.9229 32.2959 96.6816 32.4717 97.1973 32.8231C97.7139 33.1747 98.0889 33.5409 98.3252 33.9216L98.7227 33.9216L98.7227 32.6034L101.464 32.6034L101.464 45.4336C101.464 46.1805 101.242 46.7737 100.801 47.2131C100.358 47.6671 99.7695 47.8942 99.0322 47.8942L91.6943 47.8942L91.6943 45.4775L98.0596 45.4775C98.4727 45.4775 98.6787 45.2578 98.6787 44.8185L98.6787 41.9844L98.2812 41.9844C98.1338 42.2188 97.9268 42.4604 97.6621 42.7094C97.3965 42.9437 97.043 43.1415 96.6006 43.3026C96.1592 43.4637 95.5986 43.5443 94.9209 43.5443C94.0225 43.5443 93.1895 43.3318 92.4238 42.9071C91.6719 42.4677 91.0674 41.8452 90.6113 41.0398C90.1543 40.2196 89.9258 39.2383 89.9258 38.0958ZM95.7168 41.1277C96.5713 41.1277 97.2861 40.8567 97.8613 40.3147C98.4355 39.7728 98.7227 39.0112 98.7227 38.0299L98.7227 37.8102C98.7227 36.8142 98.4355 36.0527 97.8613 35.5254C97.3008 34.9835 96.5859 34.7125 95.7168 34.7125C94.8623 34.7125 94.1475 34.9835 93.5732 35.5254C92.998 36.0527 92.7109 36.8142 92.7109 37.8102L92.7109 38.0299C92.7109 39.0112 92.998 39.7728 93.5732 40.3147C94.1475 40.8567 94.8623 41.1277 95.7168 41.1277Z" fill="#FFFFFF" fill-opacity="1.000000" fill-rule="nonzero"/>
		<path id="Vector" d="M108.773 43.8079C107.683 43.8079 106.703 43.5883 105.833 43.1487C104.964 42.7094 104.279 42.0723 103.778 41.2374C103.276 40.4026 103.026 39.3993 103.026 38.2277L103.026 37.8761C103.026 36.7045 103.276 35.7012 103.778 34.8663C104.279 34.0315 104.964 33.3944 105.833 32.955C106.703 32.5155 107.683 32.2959 108.773 32.2959C109.863 32.2959 110.844 32.5155 111.713 32.955C112.582 33.3944 113.268 34.0315 113.769 34.8663C114.27 35.7012 114.521 36.7045 114.521 37.8761L114.521 38.2277C114.521 39.3993 114.27 40.4026 113.769 41.2374C113.268 42.0723 112.582 42.7094 111.713 43.1487C110.844 43.5883 109.863 43.8079 108.773 43.8079ZM108.773 41.3473C109.628 41.3473 110.335 41.0764 110.896 40.5344C111.455 39.9779 111.735 39.1869 111.735 38.1617L111.735 37.942C111.735 36.9169 111.455 36.1332 110.896 35.5913C110.35 35.0348 109.643 34.7565 108.773 34.7565C107.919 34.7565 107.211 35.0348 106.651 35.5913C106.092 36.1332 105.812 36.9169 105.812 37.942L105.812 38.1617C105.812 39.1869 106.092 39.9779 106.651 40.5344C107.211 41.0764 107.919 41.3473 108.773 41.3473Z" fill="#FFFFFF" fill-opacity="1.000000" fill-rule="nonzero"/>
		<path id="Vector" d="M116.096 43.5002L116.096 32.6034L118.881 32.6034L118.881 43.5002L116.096 43.5002ZM117.488 31.3292C116.987 31.3292 116.561 31.1681 116.207 30.8459C115.867 30.5237 115.698 30.0989 115.698 29.5717C115.698 29.0444 115.867 28.6196 116.207 28.2974C116.561 27.9752 116.987 27.8141 117.488 27.8141C118.004 27.8141 118.432 27.9752 118.771 28.2974C119.109 28.6196 119.279 29.0444 119.279 29.5717C119.279 30.0989 119.109 30.5237 118.771 30.8459C118.432 31.1681 118.004 31.3292 117.488 31.3292Z" fill="#FFFFFF" fill-opacity="1.000000" fill-rule="nonzero"/>
		<path id="Vector" d="M120.973 47.8942L120.973 32.6034L123.714 32.6034L123.714 33.9216L124.111 33.9216C124.361 33.4969 124.752 33.1234 125.283 32.8011C125.813 32.4642 126.572 32.2959 127.56 32.2959C128.444 32.2959 129.262 32.5155 130.013 32.955C130.765 33.3796 131.368 34.0095 131.825 34.8444C132.282 35.6792 132.511 36.6898 132.511 37.8761L132.511 38.2277C132.511 39.4139 132.282 40.4246 131.825 41.2594C131.368 42.0942 130.765 42.7314 130.013 43.1708C129.262 43.5956 128.444 43.8079 127.56 43.8079C126.896 43.8079 126.336 43.7273 125.879 43.5662C125.438 43.4197 125.076 43.2294 124.797 42.995C124.531 42.746 124.317 42.4971 124.156 42.248L123.758 42.248L123.758 47.8942L120.973 47.8942ZM126.72 41.3912C127.589 41.3912 128.304 41.1202 128.863 40.5784C129.438 40.0219 129.726 39.2163 129.726 38.1617L129.726 37.942C129.726 36.8875 129.438 36.0892 128.863 35.5474C128.289 34.9908 127.574 34.7125 126.72 34.7125C125.864 34.7125 125.15 34.9908 124.575 35.5474C124.001 36.0892 123.714 36.8875 123.714 37.942L123.714 38.1617C123.714 39.2163 124.001 40.0219 124.575 40.5784C125.15 41.1202 125.864 41.3912 126.72 41.3912Z" fill="#FFFFFF" fill-opacity="1.000000" fill-rule="nonzero"/>
		<path id="Vector" d="M138.627 43.8079C137.197 43.8079 136.025 43.5004 135.112 42.8851C134.199 42.27 133.646 41.3912 133.454 40.2488L136.019 39.5897C136.122 40.1023 136.291 40.5051 136.526 40.7981C136.777 41.0909 137.08 41.3033 137.434 41.4352C137.801 41.5522 138.199 41.611 138.627 41.611C139.274 41.611 139.754 41.5011 140.063 41.2814C140.373 41.047 140.527 40.7615 140.527 40.4246C140.527 40.0876 140.381 39.8314 140.086 39.6556C139.791 39.4652 139.319 39.3114 138.671 39.1943L138.052 39.0844C137.285 38.938 136.586 38.7402 135.952 38.4912C135.318 38.2277 134.81 37.8688 134.427 37.4148C134.044 36.9607 133.853 36.3749 133.853 35.6572C133.853 34.5734 134.25 33.7458 135.046 33.1747C135.842 32.5889 136.889 32.2959 138.185 32.2959C139.408 32.2959 140.425 32.5669 141.234 33.1088C142.045 33.6506 142.575 34.3611 142.826 35.2399L140.24 36.0306C140.123 35.4741 139.88 35.0786 139.511 34.8444C139.157 34.61 138.715 34.4928 138.185 34.4928C137.654 34.4928 137.249 34.588 136.969 34.7784C136.689 34.9542 136.549 35.2031 136.549 35.5254C136.549 35.877 136.696 36.1405 136.991 36.3163C137.285 36.4774 137.684 36.6019 138.185 36.6898L138.803 36.7996C139.629 36.946 140.373 37.1438 141.036 37.3927C141.714 37.6271 142.244 37.9713 142.628 38.4254C143.025 38.8647 143.225 39.4652 143.225 40.2268C143.225 41.3693 142.804 42.2554 141.964 42.8851C141.14 43.5004 140.026 43.8079 138.627 43.8079Z" fill="#FFFFFF" fill-opacity="1.000000" fill-rule="nonzero"/>
		<path id="Vector" d="M148.847 43.676C147.993 43.676 147.241 43.4856 146.593 43.1049C145.96 42.7094 145.466 42.1675 145.111 41.4791C144.759 40.7908 144.581 39.9998 144.581 39.1064L144.581 32.6034L147.366 32.6034L147.366 38.8866C147.366 39.7068 147.565 40.322 147.964 40.7321C148.375 41.1422 148.958 41.3473 149.71 41.3473C150.563 41.3473 151.228 41.069 151.698 40.5125C152.17 39.9412 152.405 39.1504 152.405 38.1398L152.405 32.6034L155.19 32.6034L155.19 43.5002L152.449 43.5002L152.449 42.0723L152.053 42.0723C151.875 42.4385 151.544 42.7972 151.058 43.1487C150.571 43.5002 149.834 43.676 148.847 43.676Z" fill="#FFFFFF" fill-opacity="1.000000" fill-rule="nonzero"/>
		<path id="Vector" d="M157.296 43.5004L157.296 32.6034L160.036 32.6034L160.036 33.7898L160.435 33.7898C160.625 33.4236 160.943 33.1088 161.384 32.8451C161.826 32.5669 162.408 32.4277 163.131 32.4277C163.911 32.4277 164.538 32.5815 165.01 32.889C165.481 33.182 165.842 33.5701 166.093 34.0535L166.49 34.0535C166.741 33.5848 167.095 33.1967 167.552 32.889C168.009 32.5815 168.656 32.4277 169.497 32.4277C170.174 32.4277 170.786 32.5742 171.331 32.8671C171.891 33.1453 172.333 33.5774 172.657 34.1633C172.996 34.7345 173.165 35.4595 173.165 36.3383L173.165 43.5004L170.38 43.5004L170.38 36.536C170.38 35.9354 170.227 35.4888 169.916 35.1958C169.606 34.8883 169.172 34.7345 168.612 34.7345C167.979 34.7345 167.485 34.9396 167.131 35.3496C166.793 35.745 166.623 36.3163 166.623 37.0632L166.623 43.5004L163.838 43.5004L163.838 36.536C163.838 35.9354 163.684 35.4888 163.374 35.1958C163.064 34.8883 162.63 34.7345 162.069 34.7345C161.437 34.7345 160.943 34.9396 160.589 35.3496C160.25 35.745 160.08 36.3163 160.08 37.0632L160.08 43.5004L157.296 43.5004Z" fill="#FFFFFF" fill-opacity="1.000000" fill-rule="nonzero"/>
	</g>
	<rect id="Auto Layout Vertical" rx="5.000000" width="197.000000" height="71.000000" transform="translate(0.500000 0.500000)" stroke="#A1AEBF" stroke-opacity="1.000000" stroke-width="1.000000"/>
</svg>
