<svg width="198.000000" height="72.000000" viewBox="0 0 198 72" fill="none" xmlns="http://www.w3.org/2000/svg" xmlns:xlink="http://www.w3.org/1999/xlink">
	<desc>
			Created with Pixso.
	</desc>
	<defs>
		<clipPath id="clip7_933">
			<rect id="Frame" width="150.000000" height="40.000000" transform="translate(24.000000 16.000000)" fill="white" fill-opacity="0"/>
		</clipPath>
	</defs>
	<rect id="Frame" width="150.000000" height="40.000000" transform="translate(24.000000 16.000000)" fill="#FFFFFF" fill-opacity="0"/>
	<g clip-path="url(#clip7_933)">
		<path id="Vector" d="M40.0303 40.1027L40.0303 48.1194C40.0303 48.4268 39.9072 48.7214 39.6885 48.9387C39.4697 49.156 39.1738 49.2781 38.8643 49.2781C38.5547 49.2781 38.2588 49.156 38.04 48.9387C37.8213 48.7214 37.6982 48.4268 37.6982 48.1194L37.6982 40.1138C38.0234 40.3494 38.4121 40.4808 38.8145 40.4907C39.252 40.5032 39.6816 40.3662 40.0303 40.1027ZM49.959 37.7853C49.6631 37.7853 49.3789 37.9021 49.1699 38.11C48.9609 38.3179 48.8428 38.6 48.8428 38.894L48.8428 40.2911C48.8428 40.5985 48.9658 40.8932 49.1846 41.1105C49.4033 41.3278 49.6992 41.4498 50.0088 41.4498C50.3184 41.4498 50.6143 41.3278 50.833 41.1105C51.0518 40.8932 51.1748 40.5985 51.1748 40.2911L51.1748 38.9495C51.1836 38.7905 51.1572 38.6315 51.0986 38.4834C51.04 38.3352 50.9502 38.2013 50.835 38.0908C50.7188 37.9803 50.5811 37.8959 50.4307 37.8431C50.2793 37.7904 50.1182 37.7708 49.959 37.7853ZM35.166 43.1409C34.7646 43.1288 34.376 42.9976 34.0508 42.7638L34.0508 50.8027C34.0508 51.1116 34.1738 51.4077 34.3936 51.626C34.6133 51.8444 34.9111 51.967 35.2217 51.967C35.5322 51.967 35.8301 51.8444 36.0498 51.626C36.2695 51.4077 36.3936 51.1116 36.3936 50.8027L36.3936 42.8192C36.0293 43.0533 35.5986 43.166 35.166 43.1409ZM46.3223 35.3792C46.1709 35.3716 46.0195 35.3948 45.8779 35.447C45.7363 35.4994 45.6064 35.58 45.4971 35.6836C45.3867 35.7874 45.2998 35.9121 45.2402 36.0504C45.1807 36.1886 45.1504 36.3375 45.1504 36.4879L45.1504 42.6641C45.1504 42.9728 45.2734 43.269 45.4932 43.4873C45.7129 43.7057 46.0107 43.8282 46.3223 43.8282C46.6328 43.8282 46.9307 43.7057 47.1504 43.4873C47.3701 43.269 47.4932 42.9728 47.4932 42.6641L47.4932 36.5656C47.502 36.4055 47.4756 36.2455 47.417 36.0966C47.3574 35.9475 47.2666 35.813 47.1494 35.7023C47.0332 35.5917 46.8936 35.5074 46.7412 35.4554C46.5889 35.4034 46.4268 35.385 46.2656 35.4012L46.3223 35.3792ZM42.6182 37.752C42.1982 37.749 41.7891 37.6174 41.4473 37.375L41.4473 45.436C41.4473 45.7449 41.5703 46.041 41.79 46.2594C42.0098 46.4777 42.3076 46.6003 42.6182 46.6003C42.9287 46.6003 43.2266 46.4777 43.4463 46.2594C43.666 46.041 43.7891 45.7449 43.7891 45.436L43.7891 37.3861C43.4355 37.6481 43.0039 37.7847 42.5625 37.7742L42.6182 37.752ZM32.6338 43.9281L32.6338 21.4081C32.6309 21.1335 32.5186 20.8712 32.3223 20.6782C32.126 20.4851 31.8613 20.3768 31.585 20.3768L31.3398 20.3768C31.0635 20.3768 30.7988 20.4851 30.6025 20.6782C30.4053 20.8712 30.2939 21.1335 30.291 21.4081L30.291 43.9281C30.291 44.2045 30.4014 44.4696 30.5986 44.665C30.7949 44.8606 31.0615 44.9703 31.3398 44.9703L31.585 44.9703C31.8633 44.9703 32.1299 44.8606 32.3262 44.665C32.5234 44.4696 32.6338 44.2045 32.6338 43.9281ZM35.2891 42.287L35.043 42.287C34.7656 42.287 34.498 42.1772 34.3018 41.9818C34.1055 41.7863 33.9951 41.5211 33.9951 41.2448L33.9951 24.0913C33.998 23.8169 34.1094 23.5546 34.3057 23.3616C34.502 23.1685 34.7676 23.0602 35.043 23.0602L35.2891 23.0602C35.5654 23.0602 35.8301 23.1685 36.0264 23.3616C36.2227 23.5546 36.335 23.8169 36.3379 24.0913L36.3379 41.267C36.3379 41.5433 36.2266 41.8085 36.0303 42.0039C35.834 42.1995 35.5674 42.3092 35.2891 42.3092L35.2891 42.287ZM38.9814 39.6481L38.7246 39.6481C38.4492 39.6481 38.1855 39.5394 37.9912 39.3459C37.7969 39.1526 37.6875 38.8904 37.6875 38.6168L37.6875 26.7526C37.6855 26.6162 37.7119 26.4808 37.7627 26.3545C37.8145 26.2281 37.8906 26.1132 37.9873 26.0162C38.084 25.9192 38.1982 25.8423 38.3252 25.7898C38.4521 25.7373 38.5879 25.7102 38.7246 25.7102L38.9814 25.7102C39.2578 25.7131 39.5215 25.8242 39.7158 26.0194C39.9102 26.2146 40.0186 26.478 40.0186 26.7526L40.0186 38.6168C40.0186 38.8904 39.9092 39.1526 39.7148 39.3459C39.5205 39.5394 39.2568 39.6481 38.9814 39.6481ZM42.6738 36.9314L42.4395 36.9314C42.1631 36.9314 41.8984 36.8232 41.7021 36.6301C41.5059 36.437 41.3936 36.1748 41.3906 35.9003L41.3906 29.5134C41.3818 29.3711 41.4023 29.2284 41.4512 29.0941C41.499 28.96 41.5752 28.837 41.6738 28.733C41.7715 28.629 41.8906 28.5464 42.0225 28.4899C42.1543 28.4333 42.2959 28.4043 42.4395 28.4047L42.6855 28.4047C42.9629 28.4047 43.2295 28.5144 43.4268 28.71C43.623 28.9054 43.7334 29.1705 43.7334 29.4469L43.7334 35.8781C43.7354 36.0159 43.709 36.1526 43.6572 36.2804C43.6055 36.4081 43.5283 36.5243 43.4307 36.6223C43.333 36.7202 43.2168 36.798 43.0889 36.8511C42.9609 36.9042 42.8242 36.9314 42.6855 36.9314L42.6738 36.9314ZM46.3779 34.5475L46.1318 34.5475C45.8545 34.5475 45.5869 34.4377 45.3906 34.2422C45.1943 34.0468 45.084 33.7816 45.084 33.5052L45.084 31.853C45.0869 31.5785 45.1982 31.3163 45.3945 31.1233C45.5908 30.9301 45.8564 30.8219 46.1318 30.8219L46.3779 30.8219C46.6543 30.8219 46.9189 30.9301 47.1152 31.1233C47.3115 31.3163 47.4238 31.5785 47.4268 31.853L47.4268 33.5052C47.4268 33.7798 47.3174 34.0432 47.123 34.2384C46.9287 34.4335 46.665 34.5446 46.3887 34.5475L46.3779 34.5475Z" fill="#FFFFFF" fill-opacity="1.000000" fill-rule="nonzero"/>
		<path id="offmax" d="M68.7539 37.543Q68.7539 35.6562 69.4805 34.1797Q70.207 32.7031 71.5723 31.8945Q72.9375 31.0859 74.7422 31.0859Q77.3086 31.0859 78.9316 32.6562Q80.5547 34.2266 80.7422 36.9219L80.7656 37.7891Q80.7656 40.707 79.1367 42.4707Q77.5078 44.2344 74.7656 44.2344Q72.0234 44.2344 70.3887 42.4766Q68.7539 40.7188 68.7539 37.6953L68.7539 37.543ZM72.1406 37.7891Q72.1406 39.5938 72.8203 40.5488Q73.5 41.5039 74.7656 41.5039Q75.9961 41.5039 76.6875 40.5605Q77.3789 39.6172 77.3789 37.543Q77.3789 35.7734 76.6875 34.8008Q75.9961 33.8281 74.7422 33.8281Q73.5 33.8281 72.8203 34.7949Q72.1406 35.7617 72.1406 37.7891ZM84.2573 44L84.2573 33.8047L82.3706 33.8047L82.3706 31.3203L84.2573 31.3203L84.2573 30.2422Q84.2573 28.1094 85.4819 26.9316Q86.7066 25.7539 88.9097 25.7539Q89.6128 25.7539 90.6323 25.9883L90.5972 28.6133Q90.1753 28.5078 89.5659 28.5078Q87.6558 28.5078 87.6558 30.3008L87.6558 31.3203L90.1753 31.3203L90.1753 33.8047L87.6558 33.8047L87.6558 44L84.2573 44ZM93.3389 44L93.3389 33.8047L91.4522 33.8047L91.4522 31.3203L93.3389 31.3203L93.3389 30.2422Q93.3389 28.1094 94.5635 26.9316Q95.7881 25.7539 97.9912 25.7539Q98.6944 25.7539 99.7139 25.9883L99.6787 28.6133Q99.2569 28.5078 98.6475 28.5078Q96.7373 28.5078 96.7373 30.3008L96.7373 31.3203L99.2569 31.3203L99.2569 33.8047L96.7373 33.8047L96.7373 44L93.3389 44ZM104.67 31.3203L104.776 32.7383Q106.124 31.0859 108.42 31.0859Q110.87 31.0859 111.784 33.0195Q113.12 31.0859 115.592 31.0859Q117.655 31.0859 118.663 32.2871Q119.67 33.4883 119.67 35.9023L119.67 44L116.272 44L116.272 35.9141Q116.272 34.8359 115.85 34.3379Q115.428 33.8398 114.362 33.8398Q112.838 33.8398 112.253 35.293L112.264 44L108.878 44L108.878 35.9258Q108.878 34.8242 108.444 34.332Q108.01 33.8398 106.967 33.8398Q105.526 33.8398 104.881 35.0352L104.881 44L101.495 44L101.495 31.3203L104.67 31.3203ZM130.1 44Q129.865 43.543 129.76 42.8633Q128.529 44.2344 126.561 44.2344Q124.697 44.2344 123.473 43.1562Q122.248 42.0781 122.248 40.4375Q122.248 38.4219 123.742 37.3438Q125.236 36.2656 128.061 36.2539L129.619 36.2539L129.619 35.5273Q129.619 34.6484 129.168 34.1211Q128.717 33.5938 127.744 33.5938Q126.889 33.5938 126.402 34.0039Q125.916 34.4141 125.916 35.1289L122.529 35.1289Q122.529 34.0273 123.209 33.0898Q123.889 32.1523 125.131 31.6191Q126.373 31.0859 127.92 31.0859Q130.264 31.0859 131.641 32.2637Q133.018 33.4414 133.018 35.5742L133.018 41.0703Q133.029 42.875 133.522 43.8008L133.522 44L130.1 44ZM127.299 41.6445Q128.049 41.6445 128.682 41.3105Q129.315 40.9766 129.619 40.4141L129.619 38.2344L128.354 38.2344Q125.811 38.2344 125.647 39.9922L125.635 40.1914Q125.635 40.8242 126.08 41.2344Q126.525 41.6445 127.299 41.6445ZM140.927 35.1055L143.06 31.3203L146.681 31.3203L143.072 37.5312L146.834 44L143.201 44L140.939 40.0156L138.689 44L135.045 44L138.806 37.5312L135.209 31.3203L138.841 31.3203L140.927 35.1055Z" fill="#FFFFFF" fill-opacity="1.000000" fill-rule="evenodd"/>
	</g>
	<rect id="Auto Layout Vertical" rx="5.000000" width="197.000000" height="71.000000" transform="translate(0.500000 0.500000)" stroke="#A1AEBF" stroke-opacity="1.000000" stroke-width="1.000000"/>
</svg>
