<svg width="198.000000" height="72.000000" viewBox="0 0 198 72" fill="none" xmlns="http://www.w3.org/2000/svg" xmlns:xlink="http://www.w3.org/1999/xlink">
	<desc>
			Created with Pixso.
	</desc>
	<defs>
		<clipPath id="clip7_937">
			<rect id="Frame" width="150.000000" height="40.000000" transform="translate(24.000000 16.000000)" fill="white" fill-opacity="0"/>
		</clipPath>
	</defs>
	<rect id="Frame" width="150.000000" height="40.000000" transform="translate(24.000000 16.000000)" fill="#FFFFFF" fill-opacity="0"/>
	<g clip-path="url(#clip7_937)">
		<path id="Vector" d="M32.4209 34.7255C33.2598 31.3365 35.2012 28.327 37.9365 26.1763C40.6729 24.0255 44.0449 22.8572 47.5176 22.8572C50.9902 22.8572 54.3623 24.0255 57.0986 26.1763C59.834 28.327 61.7754 31.3365 62.6143 34.7255L61.251 34.7255C58.9502 34.6914 56.6973 35.3828 54.8076 36.7025C54.6982 36.782 54.584 36.8545 54.4668 36.9197L54.3076 36.9197C54.1895 36.8545 54.0752 36.782 53.9668 36.7025C52.0605 35.4133 49.8145 34.7247 47.5176 34.7247C45.2207 34.7247 42.9746 35.4133 41.0684 36.7025C40.96 36.782 40.8457 36.8545 40.7275 36.9197L40.5684 36.9197C40.4512 36.8545 40.3369 36.782 40.2275 36.7025C38.3379 35.3828 36.085 34.6914 33.7842 34.7255L32.4209 34.7255ZM58.7959 41.8911C59.4961 41.3429 60.3633 41.056 61.251 41.0797L63.0801 41.0797L63.0801 37.4111L61.251 37.4111C59.6885 37.3921 58.1621 37.8812 56.8984 38.8054C56.1875 39.3326 55.3271 39.6171 54.4434 39.6171C53.5605 39.6171 52.7002 39.3326 51.9893 38.8054C50.6934 37.8984 49.1533 37.4121 47.5742 37.4121C45.9961 37.4121 44.4551 37.8984 43.1592 38.8054C42.4482 39.3326 41.5889 39.6171 40.7051 39.6171C39.8213 39.6171 38.9619 39.3326 38.251 38.8054C36.9717 37.8693 35.4229 37.3796 33.8418 37.4111L31.9551 37.4111L31.9551 41.0797L33.7842 41.0797C34.6719 41.056 35.5391 41.3429 36.2393 41.8911C37.5322 42.7988 39.0713 43.2854 40.6484 43.2854C42.2256 43.2854 43.7646 42.7988 45.0576 41.8911C45.7578 41.3446 46.625 41.058 47.5117 41.0797C48.3994 41.0541 49.2676 41.3412 49.9668 41.8911C51.2617 42.7982 52.8027 43.2844 54.3809 43.2844C55.96 43.2844 57.5 42.7982 58.7959 41.8911ZM58.7959 48.4512C59.4961 47.9028 60.3633 47.6161 61.251 47.6396L63.0801 47.6396L63.0801 43.9711L61.251 43.9711C59.6885 43.9521 58.1621 44.4412 56.8984 45.3654C56.1875 45.8926 55.3271 46.177 54.4434 46.177C53.5605 46.177 52.7002 45.8926 51.9893 45.3654C50.6934 44.4584 49.1533 43.9723 47.5742 43.9723C45.9961 43.9723 44.4551 44.4584 43.1592 45.3654C42.4482 45.8926 41.5889 46.177 40.7051 46.177C39.8213 46.177 38.9619 45.8926 38.251 45.3654C36.9717 44.4294 35.4229 43.9397 33.8418 43.9711L31.9551 43.9711L31.9551 47.6396L33.7842 47.6396C34.6719 47.6161 35.5391 47.9028 36.2393 48.4512C37.5322 49.3588 39.0713 49.8455 40.6484 49.8455C42.2256 49.8455 43.7646 49.3588 45.0576 48.4512C45.7578 47.9045 46.625 47.6179 47.5117 47.6396C48.3994 47.6141 49.2676 47.9011 49.9668 48.4512C51.2617 49.3582 52.8027 49.8444 54.3809 49.8444C55.96 49.8444 57.5 49.3582 58.7959 48.4512Z" fill="#4B5567" fill-opacity="1.000000" fill-rule="nonzero"/>
		<path id="offmax" d="M75.75 36.543Q75.75 34.6562 76.4766 33.1797Q77.2031 31.7031 78.5684 30.8945Q79.9336 30.0859 81.7383 30.0859Q84.3047 30.0859 85.9277 31.6562Q87.5508 33.2266 87.7383 35.9219L87.7617 36.7891Q87.7617 39.707 86.1328 41.4707Q84.5039 43.2344 81.7617 43.2344Q79.0195 43.2344 77.3848 41.4766Q75.75 39.7188 75.75 36.6953L75.75 36.543ZM79.1367 36.7891Q79.1367 38.5938 79.8164 39.5488Q80.4961 40.5039 81.7617 40.5039Q82.9922 40.5039 83.6836 39.5605Q84.375 38.6172 84.375 36.543Q84.375 34.7734 83.6836 33.8008Q82.9922 32.8281 81.7383 32.8281Q80.4961 32.8281 79.8164 33.7949Q79.1367 34.7617 79.1367 36.7891ZM91.2534 43L91.2534 32.8047L89.3667 32.8047L89.3667 30.3203L91.2534 30.3203L91.2534 29.2422Q91.2534 27.1094 92.478 25.9316Q93.7027 24.7539 95.9058 24.7539Q96.6089 24.7539 97.6284 24.9883L97.5933 27.6133Q97.1714 27.5078 96.562 27.5078Q94.6519 27.5078 94.6519 29.3008L94.6519 30.3203L97.1714 30.3203L97.1714 32.8047L94.6519 32.8047L94.6519 43L91.2534 43ZM100.335 43L100.335 32.8047L98.4483 32.8047L98.4483 30.3203L100.335 30.3203L100.335 29.2422Q100.335 27.1094 101.56 25.9316Q102.784 24.7539 104.987 24.7539Q105.69 24.7539 106.71 24.9883L106.675 27.6133Q106.253 27.5078 105.644 27.5078Q103.733 27.5078 103.733 29.3008L103.733 30.3203L106.253 30.3203L106.253 32.8047L103.733 32.8047L103.733 43L100.335 43ZM111.667 30.3203L111.772 31.7383Q113.12 30.0859 115.417 30.0859Q117.866 30.0859 118.78 32.0195Q120.116 30.0859 122.588 30.0859Q124.651 30.0859 125.659 31.2871Q126.667 32.4883 126.667 34.9023L126.667 43L123.268 43L123.268 34.9141Q123.268 33.8359 122.846 33.3379Q122.424 32.8398 121.358 32.8398Q119.835 32.8398 119.249 34.293L119.26 43L115.874 43L115.874 34.9258Q115.874 33.8242 115.44 33.332Q115.006 32.8398 113.963 32.8398Q112.522 32.8398 111.878 34.0352L111.878 43L108.491 43L108.491 30.3203L111.667 30.3203ZM137.096 43Q136.861 42.543 136.756 41.8633Q135.525 43.2344 133.557 43.2344Q131.693 43.2344 130.469 42.1562Q129.244 41.0781 129.244 39.4375Q129.244 37.4219 130.738 36.3438Q132.232 35.2656 135.057 35.2539L136.615 35.2539L136.615 34.5273Q136.615 33.6484 136.164 33.1211Q135.713 32.5938 134.74 32.5938Q133.885 32.5938 133.399 33.0039Q132.912 33.4141 132.912 34.1289L129.525 34.1289Q129.525 33.0273 130.205 32.0898Q130.885 31.1523 132.127 30.6191Q133.369 30.0859 134.916 30.0859Q137.26 30.0859 138.637 31.2637Q140.014 32.4414 140.014 34.5742L140.014 40.0703Q140.025 41.875 140.518 42.8008L140.518 43L137.096 43ZM134.295 40.6445Q135.045 40.6445 135.678 40.3105Q136.311 39.9766 136.615 39.4141L136.615 37.2344L135.35 37.2344Q132.807 37.2344 132.643 38.9922L132.631 39.1914Q132.631 39.8242 133.076 40.2344Q133.522 40.6445 134.295 40.6445ZM147.923 34.1055L150.056 30.3203L153.677 30.3203L150.068 36.5312L153.83 43L150.197 43L147.935 39.0156L145.685 43L142.041 43L145.802 36.5312L142.205 30.3203L145.837 30.3203L147.923 34.1055Z" fill="#FFFFFF" fill-opacity="1.000000" fill-rule="evenodd"/>
	</g>
	<rect id="Auto Layout Vertical" rx="5.000000" width="197.000000" height="71.000000" transform="translate(0.500000 0.500000)" stroke="#A1AEBF" stroke-opacity="1.000000" stroke-width="1.000000"/>
</svg>
