<svg width="198.000000" height="72.000000" viewBox="0 0 198 72" fill="none" xmlns="http://www.w3.org/2000/svg" xmlns:xlink="http://www.w3.org/1999/xlink">
	<desc>
			Created with Pixso.
	</desc>
	<defs>
		<clipPath id="clip7_941">
			<rect id="Frame" width="150.000000" height="40.000000" transform="translate(24.000000 16.000000)" fill="white" fill-opacity="0"/>
		</clipPath>
	</defs>
	<rect id="Frame" width="150.000000" height="40.000000" transform="translate(24.000000 16.000000)" fill="#FFFFFF" fill-opacity="0"/>
	<g clip-path="url(#clip7_941)">
		<path id="Vector" d="M46.8154 45.4629L27.3154 32.0933C25.3389 30.7385 26.0107 27.9176 28.4746 27.2543L49.2002 21.6635C49.6387 21.506 50.1094 21.4548 50.5723 21.5143C51.0352 21.5737 51.4775 21.7421 51.8613 22.0054C52.2461 22.2686 52.5615 22.6191 52.7822 23.028C53.0029 23.4366 53.1221 23.8918 53.1309 24.3557L51.9023 43.3151C51.7568 45.5656 48.791 46.8176 46.8154 45.4629Z" fill="#A1AEBF" fill-opacity="1.000000" fill-rule="nonzero"/>
		<path id="Vector" d="M40.6309 48.7634L29.1426 26.4333C28.8799 25.9225 28.7646 25.3495 28.8086 24.7775C28.8535 24.2056 29.0557 23.6567 29.3936 23.1918C29.7314 22.7269 30.1924 22.3638 30.7246 22.1425C31.2578 21.9213 31.8408 21.8505 32.4111 21.938L53.7021 25.2039C54.1914 25.2791 54.6572 25.4689 55.0586 25.7576C55.4609 26.0463 55.7881 26.4258 56.0137 26.8647C56.2393 27.3037 56.3574 27.7897 56.3574 28.2826C56.3574 28.7755 56.2393 29.2615 56.0137 29.7003L46.2061 48.7645C45.9424 49.2739 45.543 49.7013 45.0508 49.9996C44.5596 50.298 43.9941 50.4557 43.418 50.4556C42.8418 50.4556 42.2773 50.2976 41.7852 49.999C41.2939 49.7004 40.8945 49.2729 40.6309 48.7634Z" fill="#728095" fill-opacity="1.000000" fill-rule="nonzero"/>
		<path id="Vector" d="M53.0791 25.1078L42.4658 23.4796L29.4355 26.9962L34.6367 37.1095L46.8164 45.4629C47.085 45.6453 47.3799 45.7848 47.6924 45.8767L52.3184 36.8848L53.0791 25.1078Z" fill="#FFFFFF" fill-opacity="1.000000" fill-rule="nonzero"/>
		<path id="offmax" d="M75.75 35.543Q75.75 33.6562 76.4766 32.1797Q77.2031 30.7031 78.5684 29.8945Q79.9336 29.0859 81.7383 29.0859Q84.3047 29.0859 85.9277 30.6562Q87.5508 32.2266 87.7383 34.9219L87.7617 35.7891Q87.7617 38.707 86.1328 40.4707Q84.5039 42.2344 81.7617 42.2344Q79.0195 42.2344 77.3848 40.4766Q75.75 38.7188 75.75 35.6953L75.75 35.543ZM79.1367 35.7891Q79.1367 37.5938 79.8164 38.5488Q80.4961 39.5039 81.7617 39.5039Q82.9922 39.5039 83.6836 38.5605Q84.375 37.6172 84.375 35.543Q84.375 33.7734 83.6836 32.8008Q82.9922 31.8281 81.7383 31.8281Q80.4961 31.8281 79.8164 32.7949Q79.1367 33.7617 79.1367 35.7891ZM91.2534 42L91.2534 31.8047L89.3667 31.8047L89.3667 29.3203L91.2534 29.3203L91.2534 28.2422Q91.2534 26.1094 92.478 24.9316Q93.7027 23.7539 95.9058 23.7539Q96.6089 23.7539 97.6284 23.9883L97.5933 26.6133Q97.1714 26.5078 96.562 26.5078Q94.6519 26.5078 94.6519 28.3008L94.6519 29.3203L97.1714 29.3203L97.1714 31.8047L94.6519 31.8047L94.6519 42L91.2534 42ZM100.335 42L100.335 31.8047L98.4483 31.8047L98.4483 29.3203L100.335 29.3203L100.335 28.2422Q100.335 26.1094 101.56 24.9316Q102.784 23.7539 104.987 23.7539Q105.69 23.7539 106.71 23.9883L106.675 26.6133Q106.253 26.5078 105.644 26.5078Q103.733 26.5078 103.733 28.3008L103.733 29.3203L106.253 29.3203L106.253 31.8047L103.733 31.8047L103.733 42L100.335 42ZM111.667 29.3203L111.772 30.7383Q113.12 29.0859 115.417 29.0859Q117.866 29.0859 118.78 31.0195Q120.116 29.0859 122.588 29.0859Q124.651 29.0859 125.659 30.2871Q126.667 31.4883 126.667 33.9023L126.667 42L123.268 42L123.268 33.9141Q123.268 32.8359 122.846 32.3379Q122.424 31.8398 121.358 31.8398Q119.835 31.8398 119.249 33.293L119.26 42L115.874 42L115.874 33.9258Q115.874 32.8242 115.44 32.332Q115.006 31.8398 113.963 31.8398Q112.522 31.8398 111.878 33.0352L111.878 42L108.491 42L108.491 29.3203L111.667 29.3203ZM137.096 42Q136.861 41.543 136.756 40.8633Q135.525 42.2344 133.557 42.2344Q131.693 42.2344 130.469 41.1562Q129.244 40.0781 129.244 38.4375Q129.244 36.4219 130.738 35.3438Q132.232 34.2656 135.057 34.2539L136.615 34.2539L136.615 33.5273Q136.615 32.6484 136.164 32.1211Q135.713 31.5938 134.74 31.5938Q133.885 31.5938 133.399 32.0039Q132.912 32.4141 132.912 33.1289L129.525 33.1289Q129.525 32.0273 130.205 31.0898Q130.885 30.1523 132.127 29.6191Q133.369 29.0859 134.916 29.0859Q137.26 29.0859 138.637 30.2637Q140.014 31.4414 140.014 33.5742L140.014 39.0703Q140.025 40.875 140.518 41.8008L140.518 42L137.096 42ZM134.295 39.6445Q135.045 39.6445 135.678 39.3105Q136.311 38.9766 136.615 38.4141L136.615 36.2344L135.35 36.2344Q132.807 36.2344 132.643 37.9922L132.631 38.1914Q132.631 38.8242 133.076 39.2344Q133.522 39.6445 134.295 39.6445ZM147.923 33.1055L150.056 29.3203L153.677 29.3203L150.068 35.5312L153.83 42L150.197 42L147.935 38.0156L145.685 42L142.041 42L145.802 35.5312L142.205 29.3203L145.837 29.3203L147.923 33.1055Z" fill="#FFFFFF" fill-opacity="1.000000" fill-rule="evenodd"/>
	</g>
	<rect id="Auto Layout Vertical" rx="5.000000" width="197.000000" height="71.000000" transform="translate(0.500000 0.500000)" stroke="#A1AEBF" stroke-opacity="1.000000" stroke-width="1.000000"/>
</svg>
