<svg width="198.000000" height="72.000000" viewBox="0 0 198 72" fill="none" xmlns="http://www.w3.org/2000/svg" xmlns:xlink="http://www.w3.org/1999/xlink">
	<desc>
			Created with Pixso.
	</desc>
	<defs>
		<clipPath id="clip7_947">
			<rect id="Frame" width="150.000000" height="40.000000" transform="translate(24.000000 16.000000)" fill="white" fill-opacity="0"/>
		</clipPath>
	</defs>
	<rect id="Frame" width="150.000000" height="40.000000" transform="translate(24.000000 16.000000)" fill="#FFFFFF" fill-opacity="0"/>
	<g clip-path="url(#clip7_947)">
		<path id="Vector" d="M68.873 28.8265L72.5244 28.8265L72.5244 43.4999L68.873 43.4999L68.873 28.8265ZM73.9727 37.9596C73.9727 34.3306 76.2119 32.1653 79.668 32.1653C83.125 32.1653 85.3643 34.3306 85.3643 37.9596C85.3643 41.5886 83.1738 43.766 79.668 43.766C76.1631 43.766 73.9727 41.6492 73.9727 37.9596ZM81.7012 37.9596C81.7012 35.9636 80.9102 34.7903 79.668 34.7903C78.4268 34.7903 77.6484 35.9999 77.6484 37.9596C77.6484 39.9193 78.415 41.1047 79.668 41.1047C80.9219 41.1047 81.7012 39.9918 81.7012 37.9717L81.7012 37.9596ZM86.7393 44.2136L90.2441 44.2136C90.4111 44.582 90.6934 44.887 91.0488 45.0831C91.4043 45.2792 91.8135 45.3562 92.2158 45.3024C93.6035 45.3024 94.334 44.5524 94.334 43.4636L94.334 41.4314L94.2607 41.4314C93.9697 42.0542 93.498 42.576 92.9053 42.9298C92.3135 43.2833 91.6279 43.4525 90.9385 43.4153C88.2725 43.4153 86.5078 41.395 86.5078 37.9233C86.5078 34.4515 88.1875 32.262 90.9873 32.262C91.6982 32.2343 92.4014 32.4233 93.002 32.8038C93.6025 33.1844 94.0713 33.7382 94.3457 34.391L94.3457 32.3708L97.9971 32.3708L97.9971 43.3789C97.9971 46.0282 95.6484 47.6733 92.1797 47.6733C88.9541 47.6733 86.9463 46.2338 86.7393 44.2257L86.7393 44.2136ZM94.3457 37.9475C94.3457 36.1814 93.5303 35.0685 92.2402 35.0685C90.9502 35.0685 90.1592 36.1693 90.1592 37.9475C90.1592 39.7257 90.9385 40.7297 92.2402 40.7297C93.543 40.7297 94.3457 39.7499 94.3457 37.9596L94.3457 37.9475ZM99.3721 37.9475C99.3721 34.3185 101.611 32.1532 105.068 32.1532C108.524 32.1532 110.776 34.3185 110.776 37.9475C110.776 41.5765 108.586 43.7539 105.068 43.7539C101.551 43.7539 99.3721 41.6492 99.3721 37.9596L99.3721 37.9475ZM107.101 37.9475C107.101 35.9515 106.31 34.7782 105.068 34.7782C103.827 34.7782 103.108 35.9999 103.108 37.9717C103.108 39.9435 103.876 41.1168 105.117 41.1168C106.358 41.1168 107.101 39.9918 107.101 37.9717L107.101 37.9475ZM112.164 29.7338C112.154 29.3674 112.254 29.0063 112.451 28.6967C112.648 28.3868 112.934 28.1422 113.271 27.9937C113.607 27.8452 113.981 27.7996 114.345 27.8624C114.708 27.9254 115.045 28.0942 115.312 28.3474C115.578 28.6005 115.763 28.9266 115.843 29.2845C115.923 29.6423 115.895 30.0156 115.761 30.3573C115.627 30.6987 115.394 30.9932 115.092 31.203C114.789 31.413 114.431 31.5289 114.062 31.5363C113.817 31.5529 113.572 31.5192 113.342 31.4371C113.111 31.3551 112.9 31.2267 112.722 31.0596C112.544 30.8927 112.402 30.6908 112.306 30.4667C112.21 30.2428 112.161 30.0015 112.164 29.7579L112.164 29.7338ZM112.164 32.395L115.814 32.395L115.814 43.4999L112.164 43.4999L112.164 32.395ZM129.068 37.9475C129.068 41.5765 127.45 43.645 124.675 43.645C123.964 43.6904 123.255 43.5176 122.646 43.1498C122.036 42.782 121.555 42.2371 121.268 41.5886L121.194 41.5886L121.194 47.0564L117.543 47.0564L117.543 32.3708L121.194 32.3708L121.194 34.3547L121.268 34.3547C121.542 33.6956 122.014 33.1365 122.619 32.7534C123.225 32.3702 123.934 32.1818 124.65 32.2136C127.45 32.262 129.117 34.3427 129.117 37.9717L129.068 37.9475ZM125.417 37.9475C125.417 36.1814 124.602 35.0564 123.324 35.0564C122.046 35.0564 121.23 36.1935 121.219 37.9475C121.206 39.7015 122.046 40.8265 123.324 40.8265C124.602 40.8265 125.417 39.7257 125.417 37.9717L125.417 37.9475ZM135.336 32.141C138.367 32.141 140.204 33.5685 140.29 35.8547L136.967 35.8547C136.967 35.0685 136.31 34.5725 135.3 34.5725C134.29 34.5725 133.84 34.9596 133.84 35.5282C133.84 36.0967 134.241 36.2782 135.057 36.4475L137.394 36.9193C139.62 37.391 140.569 38.2863 140.569 39.9677C140.569 42.266 138.464 43.7418 135.36 43.7418C132.257 43.7418 130.225 42.266 130.066 40.0039L133.584 40.0039C133.693 40.8265 134.351 41.3104 135.422 41.3104C136.492 41.3104 136.979 40.9596 136.979 40.3789C136.979 39.7983 136.639 39.6774 135.763 39.4958L133.657 39.0483C131.479 38.6007 130.334 37.4515 130.334 35.7579C130.358 33.5806 132.318 32.1653 135.336 32.1653L135.336 32.141ZM152.752 43.4757L149.235 43.4757L149.235 41.4072L149.162 41.4072C148.969 42.1017 148.543 42.7095 147.953 43.1299C147.364 43.5502 146.648 43.7576 145.925 43.7177C145.37 43.749 144.815 43.6616 144.297 43.4614C143.779 43.2612 143.311 42.953 142.923 42.5574C142.535 42.1617 142.237 41.688 142.05 41.1681C141.862 40.6483 141.789 40.0946 141.835 39.5443L141.835 32.3708L145.486 32.3708L145.486 38.7096C145.486 40.0282 146.168 40.7297 147.3 40.7297C147.565 40.7302 147.828 40.6744 148.07 40.5659C148.312 40.4574 148.528 40.2987 148.703 40.1006C148.877 39.9023 149.009 39.6692 149.085 39.4169C149.162 39.1644 149.186 38.8986 149.15 38.637L149.15 32.3708L152.801 32.3708L152.752 43.4757ZM154.518 32.3708L158.047 32.3708L158.047 34.512L158.119 34.512C158.313 33.8268 158.73 33.2246 159.305 32.7999C159.88 32.3754 160.58 32.1521 161.296 32.1653C162.025 32.1073 162.748 32.324 163.323 32.7722C163.898 33.2206 164.283 33.8676 164.399 34.5846L164.473 34.5846C164.693 33.8599 165.15 33.2289 165.772 32.7909C166.394 32.3529 167.144 32.1327 167.904 32.1653C168.401 32.1487 168.896 32.2361 169.355 32.4219C169.816 32.6077 170.231 32.8877 170.576 33.2435C170.921 33.5996 171.186 34.0236 171.355 34.4879C171.523 34.9524 171.593 35.447 171.556 35.9395L171.556 43.4999L167.904 43.4999L167.904 36.9072C167.904 35.6975 167.357 35.141 166.335 35.141C166.107 35.1392 165.881 35.1858 165.673 35.278C165.465 35.3701 165.278 35.5056 165.127 35.6754C164.977 35.8451 164.863 36.0449 164.796 36.2616C164.729 36.4784 164.711 36.7068 164.74 36.9314L164.74 43.4999L161.271 43.4999L161.271 36.8588C161.271 35.7458 160.724 35.141 159.727 35.141C159.496 35.1411 159.268 35.1898 159.058 35.2838C158.848 35.3779 158.659 35.5151 158.507 35.6866C158.354 35.858 158.239 36.0598 158.17 36.2786C158.102 36.4973 158.079 36.728 158.107 36.9556L158.107 43.4999L154.456 43.4999L154.518 32.3708Z" fill="#FFFFFF" fill-opacity="1.000000" fill-rule="nonzero"/>
		<path id="Vector" d="M58.6621 29.4919C58.043 28.0844 57.2227 26.7725 56.2275 25.5968C54.7568 23.8069 52.9219 22.3468 50.8418 21.3129C48.7627 20.2788 46.4863 19.6942 44.1631 19.5975C41.8398 19.5009 39.5225 19.8943 37.3633 20.752C35.2041 21.6096 33.2529 22.9121 31.6367 24.5735C30.0205 26.235 28.7764 28.2179 27.9863 30.3916C27.1973 32.5652 26.8789 34.8806 27.0547 37.1851C27.2305 39.4895 27.8945 41.731 29.0039 43.7617C30.1143 45.7927 31.6445 47.5669 33.4932 48.9678C34.6797 49.8845 35.9912 50.6299 37.3877 51.1814C39.3457 51.9791 41.4424 52.3899 43.5586 52.3911C47.9268 52.3816 52.1133 50.6508 55.2002 47.5781C58.2871 44.5056 60.0225 40.342 60.0254 36C60.0283 33.7603 59.5645 31.5443 58.6621 29.4919ZM43.5459 22.9233C45.4473 22.9232 47.3242 23.3361 49.0469 24.1331C48.627 24.3135 48.1855 24.4396 47.7324 24.5081C46.2441 24.7223 44.8643 25.4093 43.8008 26.4668C42.7373 27.524 42.0459 28.8951 41.8301 30.375C41.7354 31.205 41.3555 31.9771 40.7549 32.5612C40.1543 33.1451 39.3691 33.5051 38.5322 33.5807C37.043 33.7949 35.6641 34.4819 34.5996 35.5393C33.5361 36.5967 32.8447 37.9677 32.6289 39.4476C32.5566 40.2368 32.2178 40.9784 31.668 41.5524C30.7197 39.5604 30.293 37.3622 30.4287 35.1626C30.5654 32.9629 31.2588 30.8331 32.4453 28.9714C33.6318 27.1099 35.2734 25.5768 37.2168 24.5151C39.1592 23.4535 41.3408 22.8976 43.5586 22.8992L43.5459 22.9233ZM33.4814 44.4678C33.627 44.3347 33.7734 44.2137 33.9189 44.0686C35.002 43.0251 35.6973 41.6478 35.8906 40.1613C35.9697 39.3257 36.3447 38.5452 36.9502 37.9597C37.5322 37.3575 38.3154 36.9874 39.1523 36.9193C40.6416 36.7051 42.0205 36.0181 43.085 34.9607C44.1484 33.9033 44.8398 32.5323 45.0557 31.0524C45.1084 30.1785 45.4854 29.355 46.1143 28.7419C46.7109 28.1515 47.502 27.7949 48.3418 27.7379C49.709 27.5508 50.9854 26.9464 51.9922 26.0081C53.1396 26.9541 54.1123 28.0922 54.8652 29.371C54.8184 29.433 54.7656 29.4899 54.707 29.5403C54.126 30.1478 53.3438 30.526 52.5039 30.6049C51.0137 30.8153 49.6318 31.5012 48.5674 32.5592C47.5029 33.6173 46.8125 34.9902 46.6006 36.4718C46.5156 37.3046 46.1426 38.0823 45.5459 38.673C44.9492 39.2639 44.165 39.6316 43.3271 39.7137C41.834 39.9263 40.4492 40.6121 39.3799 41.6689C38.3096 42.726 37.6113 44.0977 37.3877 45.5807C37.3223 46.1719 37.1182 46.7395 36.792 47.2379C35.543 46.501 34.4248 45.5652 33.4814 44.4678ZM43.5459 49.1371C42.3115 49.1384 41.082 48.9674 39.8955 48.629C40.3008 47.8766 40.5654 47.0565 40.6738 46.2097C40.7598 45.3788 41.1309 44.6025 41.7246 44.012C42.3184 43.4214 43.0996 43.0525 43.9355 42.9678C45.4268 42.756 46.8086 42.0699 47.875 41.0123C48.9414 39.9548 49.6348 38.5824 49.8506 37.1008C49.9355 36.2699 50.3066 35.4937 50.9014 34.9031C51.4951 34.3125 52.2764 33.9437 53.1123 33.8589C54.2344 33.7139 55.3037 33.2986 56.2275 32.6492C56.7412 34.5822 56.8018 36.6062 56.4053 38.566C56.0098 40.526 55.167 42.3698 53.9424 43.9558C52.7178 45.5417 51.1445 46.828 49.3428 47.7156C47.54 48.6033 45.5576 49.0688 43.5459 49.0767L43.5459 49.1371Z" fill="#FFFFFF" fill-opacity="1.000000" fill-rule="nonzero"/>
	</g>
	<rect id="Auto Layout Vertical" rx="5.000000" width="197.000000" height="71.000000" transform="translate(0.500000 0.500000)" stroke="#A1AEBF" stroke-opacity="1.000000" stroke-width="1.000000"/>
</svg>
