<svg width="198.000000" height="72.000000" viewBox="0 0 198 72" fill="none" xmlns="http://www.w3.org/2000/svg" xmlns:xlink="http://www.w3.org/1999/xlink">
	<desc>
			Created with Pixso.
	</desc>
	<defs>
		<clipPath id="clip7_951">
			<rect id="Frame" width="150.000000" height="40.000000" transform="translate(24.000000 16.000000)" fill="white" fill-opacity="0"/>
		</clipPath>
	</defs>
	<rect id="Frame" width="150.000000" height="40.000000" transform="translate(24.000000 16.000000)" fill="#FFFFFF" fill-opacity="0"/>
	<g clip-path="url(#clip7_951)">
		<path id="Vector" d="M51.4395 16.9091C49.0371 16.9091 46.6582 17.3911 44.4385 18.3276C42.2197 19.2643 40.2031 20.637 38.5039 22.3674C36.8057 24.0981 35.458 26.1525 34.5391 28.4136C33.6201 30.6746 33.1465 33.0981 33.1465 35.5454C33.1465 37.9928 33.6201 40.4163 34.5391 42.6772C35.458 44.9384 36.8057 46.9927 38.5039 48.7234C40.2031 50.4539 42.8174 51.427 45.0371 52.3636C47.2559 53.3 49.0371 54.1818 51.4395 54.1818L51.4395 45.7306C50.2383 45.7306 48.8906 45.1047 47.7803 44.6364C46.6709 44.1681 45.8213 42.9996 44.9717 42.1344C44.1221 41.2692 43.4482 40.2419 42.9893 39.1113C42.5293 37.9808 42.293 37.2236 42.293 36C42.293 34.7762 42.5293 33.11 42.9893 31.9795C43.4482 30.849 44.1221 29.8217 44.9717 28.9564C45.8213 28.0912 46.8291 27.4048 47.9395 26.9366C49.0488 26.4683 50.2383 26.2273 51.4395 26.2273L51.4395 16.9091Z" fill="#FFFFFF" fill-opacity="1.000000" fill-rule="nonzero"/>
		<path id="Vector" d="M51.8965 41.4546C55.1797 41.4546 57.8418 38.809 57.8418 35.5454C57.8418 32.2819 55.1797 29.6364 51.8965 29.6364C48.6133 29.6364 45.9512 32.2819 45.9512 35.5454C45.9512 38.809 48.6133 41.4546 51.8965 41.4546Z" fill="#FFFFFF" fill-opacity="1.000000" fill-rule="nonzero"/>
		<path id="Vector" d="M33.1465 36C33.1465 38.3877 33.6318 40.752 34.5742 42.9579C35.5156 45.1638 36.8975 47.1681 38.6387 48.8566C40.3789 50.5448 42.4463 51.884 44.7207 52.7979C46.9961 53.7114 49.4346 54.1818 51.8965 54.1818C54.3584 54.1818 56.7969 53.7114 59.0723 52.7979C61.3467 51.884 63.4141 50.5448 65.1543 48.8566C66.8955 47.1681 68.2773 45.1638 69.2188 42.9579C70.1611 40.752 70.6465 38.3877 70.6465 36L61.2715 36C61.2715 37.1938 61.0293 38.376 60.5576 39.479C60.0869 40.5819 59.3965 41.5841 58.5254 42.4282C57.6553 43.2725 56.6221 43.942 55.4844 44.3988C54.3467 44.8558 53.1279 45.0909 51.8965 45.0909C50.665 45.0909 49.4463 44.8558 48.3086 44.3988C47.1709 43.942 46.1377 43.2725 45.2676 42.4282C44.3965 41.5841 43.7061 40.5819 43.2354 39.479C42.7637 38.376 42.5215 37.1938 42.5215 36L33.1465 36Z" fill="#FFFFFF" fill-opacity="1.000000" fill-rule="nonzero"/>
		<path id="Vector" d="M57.8418 36C57.8418 34.3123 57.2148 32.6937 56.1006 31.5002C54.9854 30.3068 53.4727 29.6364 51.8965 29.6364C50.3193 29.6364 48.8076 30.3068 47.6924 31.5002C46.5771 32.6937 45.9512 34.3123 45.9512 36L51.8965 36L57.8418 36Z" fill="#FFFFFF" fill-opacity="1.000000" fill-rule="nonzero"/>
		<path id="Vector" d="M80.708 28.7273L77.9639 28.7273L77.9639 41.4546L80.708 41.4546L80.708 28.7273Z" fill="#FFFFFF" fill-opacity="1.000000" fill-rule="nonzero"/>
		<path id="Vector" d="M81.6221 36.9091C81.6221 39.7196 83.7891 41.4546 86.6523 41.4546C89.5156 41.4546 91.6826 39.7196 91.6826 36.9091C91.6826 34.0985 89.5156 32.3636 86.6523 32.3636C83.7891 32.3636 81.6221 34.0985 81.6221 36.9091ZM84.0596 36.9091C84.0596 35.2437 85.1436 34.2721 86.6523 34.2721C88.1621 34.2721 89.2451 35.2437 89.2451 36.9091C89.2451 38.5746 88.1621 39.5461 86.6523 39.5461C85.1436 39.5461 84.0596 38.5746 84.0596 36.9091Z" fill="#FFFFFF" fill-opacity="1.000000" fill-rule="nonzero"/>
		<path id="Vector" d="M99.5713 32.6097L99.5713 33.7875L99.3965 33.7875C98.8701 33.0316 98.0293 32.3636 96.5225 32.3636C94.4551 32.3636 92.5977 34.1216 92.5977 36.8287C92.5977 39.5359 94.4551 41.2938 96.5225 41.2938C98.0293 41.2938 98.8701 40.6082 99.3613 39.9226L99.5361 39.9226L99.5361 40.7665C99.5361 42.4541 98.5547 43.2275 97.1182 43.2275C95.6816 43.2275 94.9453 42.4541 94.6475 41.452L92.668 42.3135C93.123 43.6318 94.4551 45.0909 97.1533 45.0909C99.9219 45.0909 101.744 43.6318 101.744 40.8191L101.744 32.6097L99.5713 32.6097ZM97.1885 39.3953C95.8213 39.3953 94.8057 38.4109 94.8057 36.8287C94.8057 35.2466 95.8213 34.2622 97.1885 34.2622C98.5547 34.2622 99.5713 35.2466 99.5713 36.8287C99.5713 38.4109 98.5547 39.3953 97.1885 39.3953Z" fill="#FFFFFF" fill-opacity="1.000000" fill-rule="nonzero"/>
		<path id="Vector" d="M103.573 36.9091C103.573 39.7196 105.74 41.4546 108.604 41.4546C111.468 41.4546 113.634 39.7196 113.634 36.9091C113.634 34.0985 111.468 32.3636 108.604 32.3636C105.74 32.3636 103.573 34.0985 103.573 36.9091ZM106.011 36.9091C106.011 35.2437 107.095 34.2721 108.604 34.2721C110.113 34.2721 111.196 35.2437 111.196 36.9091C111.196 38.5746 110.113 39.5461 108.604 39.5461C107.095 39.5461 106.011 38.5746 106.011 36.9091Z" fill="#FFFFFF" fill-opacity="1.000000" fill-rule="nonzero"/>
		<path id="Vector" d="M115.463 29.4335C115.463 30.3915 116.064 31.0488 116.835 31.0488C117.605 31.0488 118.207 30.3915 118.207 29.4335C118.207 28.4756 117.605 27.8181 116.835 27.8181C116.064 27.8181 115.463 28.4756 115.463 29.4335ZM117.806 32.1382L115.864 32.1382L115.864 41.4545L117.806 41.4545L117.806 32.1382Z" fill="#FFFFFF" fill-opacity="1.000000" fill-rule="nonzero"/>
		<path id="Vector" d="M120.037 45.0909L122.245 45.0909L122.245 40.3585L122.42 40.3585C122.91 41.0756 123.752 41.7567 125.259 41.7567C127.326 41.7567 129.184 39.9641 129.184 37.0602C129.184 34.1562 127.326 32.3636 125.259 32.3636C123.752 32.3636 122.91 33.0448 122.386 33.8157L122.21 33.8157L122.21 32.6146L120.037 32.6146L120.037 45.0909ZM124.593 39.8208C123.227 39.8208 122.21 38.8169 122.21 37.0602C122.21 35.3035 123.227 34.2997 124.593 34.2997C125.96 34.2997 126.976 35.3035 126.976 37.0602C126.976 38.8169 125.96 39.8208 124.593 39.8208Z" fill="#FFFFFF" fill-opacity="1.000000" fill-rule="nonzero"/>
		<path id="Vector" d="M131.348 35.0181C131.348 36.7183 132.874 37.3429 134.811 37.6898L135.296 37.7766C136.449 37.9847 136.971 38.245 136.971 38.8002C136.971 39.3553 136.449 39.7891 135.37 39.7891C134.289 39.7891 133.415 39.3727 133.172 38.1235L131.012 38.644C131.329 40.4484 132.948 41.4546 135.37 41.4546C137.716 41.4546 139.243 40.431 139.243 38.6267C139.243 36.8223 137.679 36.3367 135.594 35.955L135.108 35.8682C134.141 35.6947 133.619 35.4518 133.619 34.8793C133.619 34.3589 134.104 34.0292 134.997 34.0292C135.892 34.0292 136.524 34.3761 136.747 35.313L138.871 34.7058C138.424 33.3179 137.064 32.3636 134.997 32.3636C132.8 32.3636 131.348 33.3179 131.348 35.0181Z" fill="#FFFFFF" fill-opacity="1.000000" fill-rule="nonzero"/>
		<path id="Vector" d="M149.305 41.3103L149.305 32.3636L146.904 32.3636L146.904 36.9812C146.904 38.6407 146.047 39.6147 144.579 39.6147C143.283 39.6147 142.56 38.9474 142.56 37.5945L142.56 32.3636L140.158 32.3636L140.158 37.7028C140.158 39.9214 141.626 41.4546 143.837 41.4546C145.569 41.4546 146.371 40.733 146.752 39.9755L146.941 39.9755L146.941 41.3103L149.305 41.3103Z" fill="#FFFFFF" fill-opacity="1.000000" fill-rule="nonzero"/>
		<path id="Vector" d="M151.134 32.5079L151.134 41.4546L153.542 41.4546L153.542 36.1155C153.542 34.8889 154.153 34.2035 155.261 34.2035C156.217 34.2035 156.789 34.7085 156.789 35.6825L156.789 41.4546L159.197 41.4546L159.197 36.1155C159.197 34.8889 159.809 34.2035 160.917 34.2035C161.873 34.2035 162.445 34.7085 162.445 35.6825L162.445 41.4546L164.854 41.4546L164.854 35.5743C164.854 33.4098 163.438 32.3636 161.681 32.3636C160.134 32.3636 159.427 33.0129 158.969 33.7706L158.776 33.7706C158.337 32.9229 157.554 32.3636 156.178 32.3636C154.803 32.3636 154.057 32.9408 153.694 33.6262L153.503 33.6262L153.503 32.5079L151.134 32.5079Z" fill="#FFFFFF" fill-opacity="1.000000" fill-rule="nonzero"/>
	</g>
	<rect id="Auto Layout Vertical" rx="5.000000" width="197.000000" height="71.000000" transform="translate(0.500000 0.500000)" stroke="#A1AEBF" stroke-opacity="1.000000" stroke-width="1.000000"/>
</svg>
