<svg width="198.000000" height="72.000000" viewBox="0 0 198 72" fill="none" xmlns="http://www.w3.org/2000/svg" xmlns:xlink="http://www.w3.org/1999/xlink">
	<desc>
			Created with Pixso.
	</desc>
	<defs>
		<clipPath id="clip7_966">
			<rect id="Frame" width="150.000000" height="40.000000" transform="translate(24.000000 16.000000)" fill="white" fill-opacity="0"/>
		</clipPath>
	</defs>
	<rect id="Frame" width="150.000000" height="40.000000" transform="translate(24.000000 16.000000)" fill="#FFFFFF" fill-opacity="0"/>
	<g clip-path="url(#clip7_966)">
		<path id="Vector" d="M74.4922 42.3636L77.7705 42.3636L77.7705 27.3091L74.4922 27.3091L74.4922 42.3636Z" fill="#A1AEBF" fill-opacity="1.000000" fill-rule="nonzero"/>
		<path id="Vector" d="M84.4971 42.6981C87.9258 42.6981 90.1758 40.5444 90.1758 36.739C90.1758 33.0591 87.9902 30.759 84.4971 30.759C81.0684 30.759 78.8398 32.9127 78.8398 36.739C78.8398 40.4399 81.0039 42.6981 84.4971 42.6981ZM84.4971 40.1053C83.0186 40.1053 82.2041 38.9136 82.2041 36.739C82.2041 34.5436 82.9971 33.3518 84.4971 33.3518C85.9971 33.3518 86.8115 34.5645 86.8115 36.739C86.8115 38.9344 86.0186 40.1053 84.4971 40.1053Z" fill="#A1AEBF" fill-opacity="1.000000" fill-rule="nonzero"/>
		<path id="Vector" d="M95.5098 42.3845C96.7529 42.3845 97.7812 41.8827 98.5098 40.8999L98.5098 42.7817C98.5098 44.35 97.7168 44.8727 96.5391 44.8727C95.4033 44.8727 94.5244 44.329 94.3955 43.3254L91.1172 43.3254C91.5244 46.0645 93.6455 47.3191 96.582 47.3191C99.6025 47.3191 101.789 45.7509 101.789 42.74L101.789 31.1145L98.5098 31.1145L98.5098 32.1599C97.8027 31.24 96.7959 30.759 95.5098 30.759C92.6387 30.759 90.7744 32.85 90.7744 36.5927C90.7744 40.1681 92.5957 42.3845 95.5098 42.3845ZM96.3027 39.7917C94.8887 39.7917 94.1387 38.6417 94.1387 36.5927C94.1387 34.4808 94.8887 33.3518 96.3027 33.3518C97.7383 33.3518 98.5098 34.5017 98.5098 36.5718C98.5098 38.6627 97.7598 39.7917 96.3027 39.7917Z" fill="#A1AEBF" fill-opacity="1.000000" fill-rule="nonzero"/>
		<path id="Vector" d="M108.532 42.6981C111.961 42.6981 114.211 40.5444 114.211 36.739C114.211 33.0591 112.025 30.759 108.532 30.759C105.104 30.759 102.875 32.9127 102.875 36.739C102.875 40.4399 105.039 42.6981 108.532 42.6981ZM108.532 40.1053C107.054 40.1053 106.239 38.9136 106.239 36.739C106.239 34.5436 107.032 33.3518 108.532 33.3518C110.032 33.3518 110.847 34.5645 110.847 36.739C110.847 38.9344 110.054 40.1053 108.532 40.1053Z" fill="#A1AEBF" fill-opacity="1.000000" fill-rule="nonzero"/>
		<path id="Vector" d="M115.302 29.9855L118.581 29.9855L118.581 27.3091L115.302 27.3091L115.302 29.9855ZM115.302 42.3636L118.581 42.3636L118.581 31.1145L115.302 31.1145L115.302 42.3636Z" fill="#A1AEBF" fill-opacity="1.000000" fill-rule="nonzero"/>
		<path id="Vector" d="M123.42 46.9845L123.42 41.2345C124.105 42.1963 125.092 42.6981 126.313 42.6981C129.249 42.6981 131.156 40.5444 131.156 36.7181C131.156 33.0381 129.292 30.759 126.313 30.759C125.113 30.759 124.127 31.3026 123.42 32.2854L123.42 31.1145L120.142 31.1145L120.142 46.9845L123.42 46.9845ZM125.627 33.3518C127.021 33.3518 127.792 34.5436 127.792 36.7181C127.792 38.9136 127.042 40.1053 125.627 40.1053C124.191 40.1053 123.42 38.8927 123.42 36.7181C123.42 34.5436 124.17 33.3518 125.627 33.3518Z" fill="#A1AEBF" fill-opacity="1.000000" fill-rule="nonzero"/>
		<path id="Vector" d="M135.093 34.23C135.093 33.6235 135.649 33.2054 136.507 33.2054C137.664 33.2054 138.35 33.6863 138.543 34.8363L141.8 34.8363C141.479 31.9927 139.378 30.759 136.614 30.759C133.528 30.759 131.964 32.5154 131.964 34.3972C131.964 38.9136 138.95 36.969 138.95 39.1436C138.95 39.8336 138.371 40.2727 137.214 40.2727C135.993 40.2727 135.114 39.7081 134.964 38.6627L131.686 38.6627C132.114 41.4436 134.214 42.6981 137.128 42.6981C140.128 42.6981 142.229 41.1718 142.229 38.9554C142.229 34.5017 135.093 36.4463 135.093 34.23Z" fill="#A1AEBF" fill-opacity="1.000000" fill-rule="nonzero"/>
		<path id="Vector" d="M150.307 37.5754C150.307 39.0182 149.492 40.1055 148.229 40.1055C147.071 40.1055 146.514 39.3945 146.514 37.9518L146.514 31.1145L143.235 31.1145L143.235 38.6C143.235 41.4017 144.843 42.6981 147.028 42.6981C148.421 42.6981 149.557 42.1127 150.307 40.8582L150.307 42.3636L153.585 42.3636L153.585 31.1145L150.307 31.1145L150.307 37.5754Z" fill="#A1AEBF" fill-opacity="1.000000" fill-rule="nonzero"/>
		<path id="Vector" d="M155.169 42.3635L158.447 42.3635L158.447 35.9027C158.447 34.46 159.197 33.3518 160.333 33.3518C161.383 33.3518 161.897 34.0836 161.897 35.5054L161.897 42.3635L165.154 42.3635L165.154 35.9027C165.154 34.46 165.926 33.3518 167.062 33.3518C168.112 33.3518 168.604 34.0836 168.604 35.5054L168.604 42.3635L171.883 42.3635L171.883 34.8572C171.883 32.0763 170.298 30.759 168.154 30.759C166.719 30.759 165.497 31.3445 164.705 32.62C164.126 31.3654 162.969 30.759 161.598 30.759C160.269 30.759 159.176 31.3236 158.447 32.5363L158.447 31.1145L155.169 31.1145L155.169 42.3635Z" fill="#A1AEBF" fill-opacity="1.000000" fill-rule="nonzero"/>
		<path id="Vector" d="M62.0596 46.9568C65.6113 43.8623 67.7891 39.6862 67.7891 35.0908C67.7891 25.5514 58.4033 17.8181 46.8262 17.8181C35.249 17.8181 25.8633 25.5514 25.8633 35.0908C25.8633 44.6302 35.249 52.3635 46.8262 52.3635C50.1104 52.3635 53.2188 51.7412 55.9863 50.6317C59.2363 52.5896 63.2197 53.9969 67.6182 53.7001C65.2939 53.1238 63.2959 50.7889 62.0596 46.9568Z" fill="#728095" fill-opacity="1.000000" fill-rule="nonzero"/>
		<path id="Vector" d="M62.1982 35.0909C62.1982 42.12 55.3154 47.8182 46.8262 47.8182C38.3359 47.8182 31.4531 42.12 31.4531 35.0909C31.4531 28.0619 38.3359 22.3636 46.8262 22.3636C55.3154 22.3636 62.1982 28.0619 62.1982 35.0909Z" fill="#F7E476" fill-opacity="1.000000" fill-rule="nonzero"/>
		<path id="Vector" d="M56.6094 35.0908C56.6094 39.6096 52.2295 43.2727 46.8262 43.2727C41.4238 43.2727 37.0439 39.6096 37.0439 35.0908C37.0439 30.5721 41.4238 26.9091 46.8262 26.9091C52.2295 26.9091 56.6094 30.5721 56.6094 35.0908Z" fill="#A1AEBF" fill-opacity="1.000000" fill-rule="nonzero"/>
	</g>
	<rect id="Auto Layout Vertical" rx="5.000000" width="197.000000" height="71.000000" transform="translate(0.500000 0.500000)" stroke="#A1AEBF" stroke-opacity="1.000000" stroke-width="1.000000"/>
</svg>
