<svg width="198.000000" height="72.000000" viewBox="0 0 198 72" fill="none" xmlns="http://www.w3.org/2000/svg" xmlns:xlink="http://www.w3.org/1999/xlink">
	<desc>
			Created with Pixso.
	</desc>
	<defs>
		<linearGradient id="paint_linear_7_993_0" x1="226.026306" y1="35.964722" x2="37.610840" y2="35.964722" gradientUnits="userSpaceOnUse">
			<stop stop-color="#0C3C46"/>
			<stop offset="1.000000" stop-color="#124B56"/>
		</linearGradient>
	</defs>
	<path id="Vector" d="M51.7559 16L24 39.1396L42.7412 39.1396L35.2432 55.9763L63.2441 32.9908L43.7246 32.9908L51.7559 16Z" fill="#728095" fill-opacity="1.000000" fill-rule="nonzero"/>
	<path id="Vector" d="M51.7559 16L39.2188 34.6819L57.8477 34.6819L35.2432 55.9763L63.2441 32.9908L43.7246 32.9908L51.7559 16Z" fill="#4B5567" fill-opacity="1.000000" fill-rule="nonzero"/>
	<path id="Vector" d="M51.7559 16L24 39.1396L42.7412 39.1396L35.2432 55.9763L47.1533 37.4486L29.542 37.4486L51.7559 16Z" fill="#A1AEBF" fill-opacity="1.000000" fill-rule="nonzero"/>
	<path id="Vector" d="M129.989 44.3403C128.753 44.3403 127.619 44.2312 126.588 44.0131C125.556 43.7804 124.618 43.475 123.774 43.0969C122.946 42.7042 122.19 42.2607 121.507 41.7662L123.208 38.7996C124.399 39.6431 125.599 40.2611 126.806 40.6538C128.012 41.0319 129.168 41.2209 130.272 41.2209C130.752 41.2209 131.254 41.1772 131.776 41.0901C132.3 40.9883 132.736 40.821 133.085 40.5884C133.448 40.3411 133.63 40.0066 133.63 39.5848C133.63 39.3376 133.543 39.134 133.368 38.9741C133.209 38.7996 132.983 38.6615 132.692 38.5597C132.401 38.4579 132.061 38.3778 131.668 38.3197C131.29 38.2469 130.876 38.196 130.425 38.167C129.989 38.1234 129.546 38.0797 129.095 38.0361C128.077 37.9343 127.154 37.7671 126.326 37.5344C125.497 37.3018 124.785 37.0037 124.189 36.64C123.607 36.262 123.157 35.8038 122.837 35.2657C122.518 34.7277 122.357 34.1096 122.357 33.4116C122.357 32.6263 122.547 31.9283 122.925 31.3175C123.316 30.7067 123.862 30.1978 124.56 29.7905Q125.606 29.158 126.958 28.8307C127.874 28.6125 128.855 28.5035 129.901 28.5035C130.992 28.5035 131.973 28.6053 132.845 28.809C133.731 28.9979 134.51 29.2598 135.178 29.5942C135.861 29.9287 136.428 30.2922 136.879 30.6849L135.091 33.2589C134.641 32.9244 134.117 32.6409 133.521 32.4082C132.939 32.161 132.322 31.9719 131.668 31.8411C131.028 31.7102 130.389 31.6447 129.749 31.6447C129.095 31.6447 128.506 31.7029 127.982 31.8192C127.474 31.921 127.067 32.0809 126.762 32.2991C126.471 32.5027 126.326 32.7717 126.326 33.1062C126.326 33.4116 126.449 33.6661 126.696 33.8698C126.958 34.0587 127.292 34.2114 127.699 34.3278C128.106 34.4296 128.557 34.5095 129.051 34.5677C129.546 34.6259 130.025 34.6841 130.49 34.7423C131.362 34.8295 132.22 34.9458 133.063 35.0913C133.906 35.2222 134.662 35.4403 135.331 35.7457Q136.127 36.0847 136.673 36.6608L136.674 36.6611Q136.83 36.8263 136.966 37.0109C137.373 37.549 137.576 38.2833 137.576 39.2141C137.576 40.2902 137.249 41.2136 136.596 41.9844C135.941 42.7406 135.04 43.3223 133.892 43.7295C132.758 44.1367 131.457 44.3403 129.989 44.3403ZM68.8164 41.7932L68.8574 44.2993L84.2295 44.2993L84.1885 40.9644L74.5908 40.9644L83.9482 31.4318L83.9482 28.9252L70.3047 28.9252L70.3047 32.4352L78.0205 32.4352L68.8164 41.7932ZM87.3184 28.9252L87.3184 44.2993L101.229 44.2993L101.229 41.0952L90.916 41.0952L90.916 37.8616L100.03 37.8616L100.03 34.8513L90.916 34.8513L90.916 32.0155L101.011 32.0155L101.011 28.9252L87.3184 28.9252ZM103.917 28.9252L103.917 36.7273C103.917 46.8164 120.03 46.8844 120.03 36.7273L120.03 28.9252L116.41 28.9252L116.41 36.7273C116.41 42.1744 107.667 42.1744 107.667 36.7273L107.667 28.9252L103.917 28.9252ZM152.7 44.2531C151.072 44.2531 149.655 43.9331 148.448 43.2932Q147.258 42.6619 146.417 41.7189L146.417 41.7188Q145.979 41.2284 145.636 40.6538C144.967 39.5339 144.633 38.167 144.633 36.7273L144.633 28.9252L148.383 28.9252L148.383 36.7273C148.383 42.0001 157.127 42.0001 157.127 36.7273L157.127 28.9252L160.746 28.9252L160.746 36.7273C160.746 38.167 160.412 39.5339 159.743 40.6538C159.074 41.7736 158.137 42.6533 156.931 43.2932C155.724 43.9331 154.313 44.2531 152.7 44.2531ZM162.123 40.981L162.123 44.2993L174.05 44.2993L174.05 40.981L169.929 40.981L169.929 32.1246L174.05 32.1246L174.05 28.9252L162.051 28.9252L162.123 32.1246L166.222 32.1246L166.222 40.981L162.123 40.981Z" fill="url(#paint_linear_7_993_0)" fill-opacity="1.000000" fill-rule="evenodd"/>
	<rect id="Auto Layout Vertical" rx="5.000000" width="197.000000" height="71.000000" transform="translate(0.500000 0.500000)" stroke="#A1AEBF" stroke-opacity="1.000000" stroke-width="1.000000"/>
</svg>
