<svg width="198.000000" height="72.000000" viewBox="0 0 198 72" fill="none" xmlns="http://www.w3.org/2000/svg" xmlns:xlink="http://www.w3.org/1999/xlink">
	<desc>
			Created with Pixso.
	</desc>
	<defs/>
	<path id="Vector" d="M51.7559 16L24 39.1396L42.7412 39.1396L35.2432 55.9763L63.2441 32.9908L43.7246 32.9908L51.7559 16Z" fill="#728095" fill-opacity="1.000000" fill-rule="nonzero"/>
	<path id="Vector" d="M51.7549 16L39.2178 34.6819L57.8467 34.6819L35.2422 55.9763L63.2432 32.9908L43.7236 32.9908L51.7549 16Z" fill="#4B5567" fill-opacity="1.000000" fill-rule="nonzero"/>
	<path id="Vector" d="M51.7559 16L24 39.1396L42.7412 39.1396L35.2432 55.9763L47.1533 37.4486L29.542 37.4486L51.7559 16Z" fill="#A1AEBF" fill-opacity="1.000000" fill-rule="nonzero"/>
	<path id="offmax" d="M72.752 35.543Q72.752 33.6562 73.4785 32.1797Q74.2051 30.7031 75.5703 29.8945Q76.9355 29.0859 78.7402 29.0859Q81.3066 29.0859 82.9297 30.6562Q84.5527 32.2266 84.7402 34.9219L84.7637 35.7891Q84.7637 38.707 83.1348 40.4707Q81.5059 42.2344 78.7637 42.2344Q76.0215 42.2344 74.3867 40.4766Q72.752 38.7188 72.752 35.6953L72.752 35.543ZM76.1387 35.7891Q76.1387 37.5938 76.8184 38.5488Q77.498 39.5039 78.7637 39.5039Q79.9941 39.5039 80.6855 38.5605Q81.377 37.6172 81.377 35.543Q81.377 33.7734 80.6855 32.8008Q79.9941 31.8281 78.7402 31.8281Q77.498 31.8281 76.8184 32.7949Q76.1387 33.7617 76.1387 35.7891ZM88.2554 42L88.2554 31.8047L86.3687 31.8047L86.3687 29.3203L88.2554 29.3203L88.2554 28.2422Q88.2554 26.1094 89.48 24.9316Q90.7046 23.7539 92.9077 23.7539Q93.6109 23.7539 94.6304 23.9883L94.5952 26.6133Q94.1734 26.5078 93.564 26.5078Q91.6538 26.5078 91.6538 28.3008L91.6538 29.3203L94.1734 29.3203L94.1734 31.8047L91.6538 31.8047L91.6538 42L88.2554 42ZM97.337 42L97.337 31.8047L95.4502 31.8047L95.4502 29.3203L97.337 29.3203L97.337 28.2422Q97.337 26.1094 98.5616 24.9316Q99.7862 23.7539 101.989 23.7539Q102.692 23.7539 103.712 23.9883L103.677 26.6133Q103.255 26.5078 102.646 26.5078Q100.735 26.5078 100.735 28.3008L100.735 29.3203L103.255 29.3203L103.255 31.8047L100.735 31.8047L100.735 42L97.337 42ZM108.669 29.3203L108.774 30.7383Q110.122 29.0859 112.419 29.0859Q114.868 29.0859 115.782 31.0195Q117.118 29.0859 119.59 29.0859Q121.653 29.0859 122.661 30.2871Q123.669 31.4883 123.669 33.9023L123.669 42L120.27 42L120.27 33.9141Q120.27 32.8359 119.848 32.3379Q119.426 31.8398 118.36 31.8398Q116.836 31.8398 116.251 33.293L116.262 42L112.876 42L112.876 33.9258Q112.876 32.8242 112.442 32.332Q112.008 31.8398 110.965 31.8398Q109.524 31.8398 108.879 33.0352L108.879 42L105.493 42L105.493 29.3203L108.669 29.3203ZM134.098 42Q133.863 41.543 133.758 40.8633Q132.527 42.2344 130.559 42.2344Q128.695 42.2344 127.471 41.1562Q126.246 40.0781 126.246 38.4375Q126.246 36.4219 127.74 35.3438Q129.234 34.2656 132.059 34.2539L133.617 34.2539L133.617 33.5273Q133.617 32.6484 133.166 32.1211Q132.715 31.5938 131.742 31.5938Q130.887 31.5938 130.4 32.0039Q129.914 32.4141 129.914 33.1289L126.527 33.1289Q126.527 32.0273 127.207 31.0898Q127.887 30.1523 129.129 29.6191Q130.371 29.0859 131.918 29.0859Q134.262 29.0859 135.639 30.2637Q137.016 31.4414 137.016 33.5742L137.016 39.0703Q137.027 40.875 137.52 41.8008L137.52 42L134.098 42ZM131.297 39.6445Q132.047 39.6445 132.68 39.3105Q133.313 38.9766 133.617 38.4141L133.617 36.2344L132.352 36.2344Q129.809 36.2344 129.645 37.9922L129.633 38.1914Q129.633 38.8242 130.078 39.2344Q130.524 39.6445 131.297 39.6445ZM144.925 33.1055L147.058 29.3203L150.679 29.3203L147.07 35.5312L150.832 42L147.199 42L144.937 38.0156L142.687 42L139.043 42L142.804 35.5312L139.207 29.3203L142.839 29.3203L144.925 33.1055Z" fill="#FFFFFF" fill-opacity="1.000000" fill-rule="evenodd"/>
	<rect id="Auto Layout Vertical" rx="5.000000" width="197.000000" height="71.000000" transform="translate(0.500000 0.500000)" stroke="#A1AEBF" stroke-opacity="1.000000" stroke-width="1.000000"/>
</svg>
