<svg width="198.000000" height="72.000000" viewBox="0 0 198 72" fill="none" xmlns="http://www.w3.org/2000/svg" xmlns:xlink="http://www.w3.org/1999/xlink">
	<desc>
			Created with Pixso.
	</desc>
	<defs>
		<clipPath id="clip7_1009">
			<rect id="Frame" width="150.000000" height="40.000000" transform="translate(24.000000 16.000000)" fill="white" fill-opacity="0"/>
		</clipPath>
	</defs>
	<rect id="Frame" width="150.000000" height="40.000000" transform="translate(24.000000 16.000000)" fill="#FFFFFF" fill-opacity="0"/>
	<g clip-path="url(#clip7_1009)">
		<path id="Vector" d="M83.2832 27.5288L80.1406 27.5288L80.1406 41.6212L88.8389 41.6212L88.8389 38.8599L83.2832 38.8599L83.2832 27.5288Z" fill="#FFFFFF" fill-opacity="1.000000" fill-rule="nonzero"/>
		<path id="Vector" d="M89.1396 36.8412C89.1396 39.8501 91.1709 41.8497 94.2363 41.8497C97.2822 41.8497 99.3135 39.8501 99.3135 36.8412C99.3135 33.8323 97.2822 31.8136 94.2363 31.8136C91.1709 31.8136 89.1396 33.8323 89.1396 36.8412ZM92.1094 36.8221C92.1094 35.3939 92.9521 34.4417 94.2363 34.4417C95.501 34.4417 96.3438 35.3939 96.3438 36.8221C96.3438 38.2695 95.501 39.2217 94.2363 39.2217C92.9521 39.2217 92.1094 38.2695 92.1094 36.8221Z" fill="#FFFFFF" fill-opacity="1.000000" fill-rule="nonzero"/>
		<path id="Vector" d="M99.7871 36.689C99.7871 39.5645 101.665 41.507 104.328 41.507C105.612 41.507 106.724 41.0499 107.279 40.3073L107.279 41.6212C107.279 42.9352 106.455 43.8112 104.999 43.8112C103.696 43.8112 102.796 43.2018 102.738 42.1163L99.749 42.1163C100.018 44.7253 102.048 46.4773 104.826 46.4773C108.103 46.4773 110.172 44.3635 110.172 41.0117L110.172 32.0994L107.509 32.0994L107.355 33.0706C106.819 32.2898 105.688 31.7756 104.386 31.7756C101.703 31.7756 99.7871 33.7751 99.7871 36.689ZM102.776 36.6127C102.776 35.2416 103.696 34.3274 104.864 34.3274C106.225 34.3274 107.222 35.2225 107.222 36.6127C107.222 38.0029 106.244 38.9551 104.884 38.9551C103.715 38.9551 102.776 38.0029 102.776 36.6127Z" fill="#FFFFFF" fill-opacity="1.000000" fill-rule="nonzero"/>
		<path id="Vector" d="M111.032 36.8411C111.032 39.85 113.063 41.8496 116.129 41.8496C119.176 41.8496 121.206 39.85 121.206 36.8411C121.206 33.8322 119.176 31.8135 116.129 31.8135C113.063 31.8135 111.032 33.8322 111.032 36.8411ZM114.002 36.822C114.002 35.3938 114.845 34.4415 116.129 34.4415C117.394 34.4415 118.236 35.3938 118.236 36.822C118.236 38.2694 117.394 39.2216 116.129 39.2216C114.845 39.2216 114.002 38.2694 114.002 36.822Z" fill="#FFFFFF" fill-opacity="1.000000" fill-rule="nonzero"/>
		<path id="Vector" d="M123.75 30.6139C124.67 30.6139 125.417 29.8712 125.417 28.9381C125.417 28.0049 124.67 27.2812 123.75 27.2812C122.812 27.2812 122.064 28.0049 122.064 28.9381C122.064 29.8712 122.812 30.6139 123.75 30.6139ZM122.256 41.6212L125.226 41.6212L125.226 32.0994L122.256 32.0994L122.256 41.6212Z" fill="#FFFFFF" fill-opacity="1.000000" fill-rule="nonzero"/>
		<path id="Vector" d="M126.954 46.1917L129.866 46.1917L129.866 40.6689C130.422 41.3926 131.687 41.8877 133.009 41.8877C135.863 41.8877 137.588 39.7168 137.511 36.7079C137.434 33.6418 135.652 31.7946 132.989 31.7946C131.629 31.7946 130.346 32.3849 129.809 33.261L129.655 32.0992L126.954 32.0992L126.954 46.1917ZM129.924 36.8601C129.924 35.4319 130.881 34.4797 132.261 34.4797C133.659 34.4797 134.541 35.4509 134.541 36.8601C134.541 38.2694 133.659 39.2406 132.261 39.2406C130.881 39.2406 129.924 38.2885 129.924 36.8601Z" fill="#FFFFFF" fill-opacity="1.000000" fill-rule="nonzero"/>
		<path id="Vector" d="M137.825 38.6122C137.901 40.5356 139.435 41.8687 141.849 41.8687C144.167 41.8687 145.777 40.6499 145.777 38.6884C145.777 37.2792 144.934 36.3461 143.362 35.9651L141.657 35.5461C141.045 35.3938 140.661 35.2415 140.661 34.7463C140.661 34.2511 141.062 33.9274 141.657 33.9274C142.328 33.9274 142.769 34.3655 142.75 35.0129L145.413 35.0129C145.336 33.0323 143.822 31.7946 141.715 31.7946C139.588 31.7946 137.998 33.0514 137.998 34.9558C137.998 36.2317 138.707 37.2792 140.604 37.7743L142.289 38.2123C142.787 38.3456 142.998 38.5741 142.998 38.8978C142.998 39.3739 142.558 39.6787 141.811 39.6787C140.948 39.6787 140.488 39.2787 140.488 38.6122L137.825 38.6122Z" fill="#FFFFFF" fill-opacity="1.000000" fill-rule="nonzero"/>
		<path id="Vector" d="M150.293 41.8688C151.462 41.8688 152.631 41.3354 153.225 40.5547L153.417 41.6212L156.194 41.6212L156.194 32.0994L153.244 32.0994L153.244 37.0508C153.244 38.479 152.823 39.2598 151.462 39.2598C150.408 39.2598 149.719 38.7837 149.719 37.0127L149.719 32.0994L146.768 32.0994L146.768 38.0791C146.768 40.3453 148.032 41.8688 150.293 41.8688Z" fill="#FFFFFF" fill-opacity="1.000000" fill-rule="nonzero"/>
		<path id="Vector" d="M160.873 41.6212L160.873 36.4222C160.873 34.8226 161.735 34.3656 162.579 34.3656C163.518 34.3656 164.131 34.9369 164.131 36.1176L164.131 41.6212L167.043 41.6212L167.043 36.4222C167.043 34.8036 167.886 34.3466 168.729 34.3466C169.667 34.3466 170.3 34.9178 170.3 36.1176L170.3 41.6212L173.175 41.6212L173.175 35.3939C173.175 33.2229 172.024 31.7756 169.553 31.7756C168.174 31.7756 167.043 32.4421 166.545 33.4705C165.97 32.4421 164.974 31.7756 163.383 31.7756C162.33 31.7756 161.353 32.2517 160.778 33.0134L160.663 32.0994L157.903 32.0994L157.903 41.6212L160.873 41.6212Z" fill="#FFFFFF" fill-opacity="1.000000" fill-rule="nonzero"/>
		<path id="Vector" d="M24 36.0001C24 28.2957 30.2842 22.05 38.0352 22.05L56.4561 22.05C64.208 22.05 70.4912 28.2957 70.4912 36.0001L70.4912 49.9501L38.0352 49.9501C30.2842 49.9501 24 43.7045 24 36.0001Z" fill="#FFFFFF" fill-opacity="1.000000" fill-rule="nonzero"/>
		<path id="Vector" d="M38.0342 27.2812L56.4561 27.2812C61.2998 27.2812 65.2275 31.1848 65.2275 36C65.2275 40.8153 61.2998 44.7188 56.4561 44.7188L38.0342 44.7188C33.1904 44.7188 29.2627 40.8153 29.2627 36C29.2627 31.1848 33.1904 27.2812 38.0342 27.2812Z" fill="#4B5567" fill-opacity="1.000000" fill-rule="evenodd"/>
		<path id="Vector" d="M42.4209 36C42.4209 38.4076 40.458 40.3594 38.0352 40.3594C35.6133 40.3594 33.6494 38.4076 33.6494 36C33.6494 33.5924 35.6133 31.6406 38.0352 31.6406C40.458 31.6406 42.4209 33.5924 42.4209 36Z" fill="#FFFFFF" fill-opacity="1.000000" fill-rule="evenodd"/>
		<path id="Vector" d="M37.1592 34.2562C37.1592 34.7378 36.7666 35.1282 36.2822 35.1282C35.7969 35.1282 35.4043 34.7378 35.4043 34.2562C35.4043 33.7748 35.7969 33.3844 36.2822 33.3844C36.7666 33.3844 37.1592 33.7748 37.1592 34.2562Z" fill="#0D0D0D" fill-opacity="1.000000" fill-rule="evenodd"/>
		<path id="Vector" d="M61.7197 36C61.7197 38.4076 59.7568 40.3594 57.334 40.3594C54.9121 40.3594 52.9482 38.4076 52.9482 36C52.9482 33.5924 54.9121 31.6406 57.334 31.6406C59.7568 31.6406 61.7197 33.5924 61.7197 36Z" fill="#FFFFFF" fill-opacity="1.000000" fill-rule="evenodd"/>
		<path id="Vector" d="M56.457 34.2562C56.457 34.7378 56.0645 35.1282 55.5801 35.1282C55.0947 35.1282 54.7021 34.7378 54.7021 34.2562C54.7021 33.7748 55.0947 33.3844 55.5801 33.3844C56.0645 33.3844 56.457 33.7748 56.457 34.2562Z" fill="#0D0D0D" fill-opacity="1.000000" fill-rule="evenodd"/>
	</g>
	<rect id="Auto Layout Vertical" rx="5.000000" width="197.000000" height="71.000000" transform="translate(0.500000 0.500000)" stroke="#A1AEBF" stroke-opacity="1.000000" stroke-width="1.000000"/>
</svg>
