<svg width="198.000000" height="72.000000" viewBox="0 0 198 72" fill="none" xmlns="http://www.w3.org/2000/svg" xmlns:xlink="http://www.w3.org/1999/xlink">
	<desc>
			Created with Pixso.
	</desc>
	<defs>
		<clipPath id="clip7_995">
			<rect id="Frame" width="150.000000" height="40.000000" transform="translate(24.000000 16.000000)" fill="white" fill-opacity="0"/>
		</clipPath>
	</defs>
	<rect id="Frame" width="150.000000" height="40.000000" transform="translate(24.000000 16.000000)" fill="#FFFFFF" fill-opacity="0"/>
	<g clip-path="url(#clip7_995)">
		<path id="Vector" d="M60.1553 23.2104L63.9004 23.2104L63.9004 43.5139L70.0625 43.5139L70.0625 46.8978L60.1553 46.8978L60.1553 23.2104Z" fill="#8781ED" fill-opacity="1.000000" fill-rule="nonzero"/>
		<path id="Vector" d="M77.1387 47.2362C75.2998 47.2362 73.8926 46.7174 72.917 45.6797C71.9414 44.6418 71.4531 43.1755 71.4531 41.2805L71.4531 28.8278C71.4531 26.9327 71.9414 25.4664 72.917 24.4287C73.8926 23.391 75.2998 22.8721 77.1387 22.8721C78.9775 22.8721 80.3848 23.391 81.3604 24.4287C82.3359 25.4664 82.8242 26.9327 82.8242 28.8278L82.8242 41.2805C82.8242 43.1755 82.3359 44.6418 81.3604 45.6797C80.3848 46.7174 78.9775 47.2362 77.1387 47.2362ZM77.1387 43.8523C78.4326 43.8523 79.0791 43.074 79.0791 41.5173L79.0791 28.5909C79.0791 27.0343 78.4326 26.256 77.1387 26.256C75.8447 26.256 75.1982 27.0343 75.1982 28.5909L75.1982 41.5173C75.1982 43.074 75.8447 43.8523 77.1387 43.8523Z" fill="#8781ED" fill-opacity="1.000000" fill-rule="nonzero"/>
		<path id="Vector" d="M90.667 47.2362C88.8516 47.2362 87.4668 46.7286 86.5137 45.7135C85.5605 44.6758 85.084 43.1981 85.084 41.2805L85.084 28.8278C85.084 26.9102 85.5605 25.4438 86.5137 24.4287C87.4668 23.391 88.8516 22.8721 90.667 22.8721C92.4834 22.8721 93.8682 23.391 94.8213 24.4287C95.7744 25.4438 96.251 26.9102 96.251 28.8278L96.251 30.8582L92.71 30.8582L92.71 28.5909C92.71 27.0343 92.0635 26.256 90.7695 26.256C89.4756 26.256 88.8291 27.0343 88.8291 28.5909L88.8291 41.5513C88.8291 43.0853 89.4756 43.8523 90.7695 43.8523C92.0635 43.8523 92.71 43.0853 92.71 41.5513L92.71 36.9153L90.8379 36.9153L90.8379 33.5314L96.251 33.5314L96.251 41.2805C96.251 43.1981 95.7744 44.6758 94.8213 45.7135C93.8682 46.7286 92.4834 47.2362 90.667 47.2362Z" fill="#8781ED" fill-opacity="1.000000" fill-rule="nonzero"/>
		<path id="Vector" d="M104.069 47.2362C102.23 47.2362 100.823 46.7174 99.8477 45.6797C98.8721 44.6418 98.3838 43.1755 98.3838 41.2805L98.3838 28.8278C98.3838 26.9327 98.8721 25.4664 99.8477 24.4287C100.823 23.391 102.23 22.8721 104.069 22.8721C105.908 22.8721 107.315 23.391 108.291 24.4287C109.267 25.4664 109.755 26.9327 109.755 28.8278L109.755 41.2805C109.755 43.1755 109.267 44.6418 108.291 45.6797C107.315 46.7174 105.908 47.2362 104.069 47.2362ZM104.069 43.8523C105.363 43.8523 106.01 43.074 106.01 41.5173L106.01 28.5909C106.01 27.0343 105.363 26.256 104.069 26.256C102.775 26.256 102.129 27.0343 102.129 28.5909L102.129 41.5173C102.129 43.074 102.775 43.8523 104.069 43.8523Z" fill="#8781ED" fill-opacity="1.000000" fill-rule="nonzero"/>
		<path id="Vector" d="M112.295 23.2104L116.04 23.2104L116.04 46.8978L112.295 46.8978L112.295 23.2104Z" fill="#FFFFFF" fill-opacity="1.000000" fill-rule="nonzero"/>
		<path id="Vector" d="M118.844 23.2104L124.359 23.2104C126.22 23.2104 127.616 23.7068 128.547 24.6993C129.478 25.692 129.942 27.1471 129.942 29.0646L129.942 31.3995C129.942 33.3171 129.478 34.7721 128.547 35.7648C127.616 36.7573 126.22 37.2537 124.359 37.2537L122.589 37.2537L122.589 46.8978L118.844 46.8978L118.844 23.2104ZM124.359 33.8698C124.973 33.8698 125.426 33.7006 125.722 33.3622C126.039 33.0238 126.197 32.4485 126.197 31.6364L126.197 28.8278C126.197 28.0156 126.039 27.4403 125.722 27.1019C125.426 26.7635 124.973 26.5944 124.359 26.5944L122.589 26.5944L122.589 33.8698L124.359 33.8698Z" fill="#FFFFFF" fill-opacity="1.000000" fill-rule="nonzero"/>
		<path id="Vector" d="M136.979 47.2362C135.163 47.2362 133.79 46.7286 132.858 45.7135C131.929 44.6758 131.463 43.1981 131.463 41.2805L131.463 39.927L135.004 39.927L135.004 41.5513C135.004 43.0853 135.65 43.8523 136.944 43.8523C137.58 43.8523 138.057 43.6719 138.374 43.3109C138.715 42.9274 138.885 42.3182 138.885 41.4835C138.885 40.491 138.658 39.6224 138.204 38.8781C137.751 38.111 136.911 37.1973 135.685 36.137C134.142 34.7834 133.063 33.5652 132.45 32.4824C131.838 31.377 131.531 30.1362 131.531 28.7601C131.531 26.8877 132.008 25.4438 132.961 24.4287C133.914 23.391 135.299 22.8721 137.115 22.8721C138.907 22.8721 140.259 23.391 141.166 24.4287C142.097 25.4438 142.562 26.9102 142.562 28.8278L142.562 29.8091L139.021 29.8091L139.021 28.5909C139.021 27.7787 138.862 27.1921 138.545 26.8313C138.227 26.4478 137.762 26.256 137.148 26.256C135.9 26.256 135.276 27.0117 135.276 28.5232C135.276 29.3805 135.504 30.1813 135.957 30.9258C136.434 31.6702 137.285 32.5726 138.511 33.6329C140.076 34.9865 141.154 36.2159 141.745 37.3214C142.335 38.4269 142.631 39.7239 142.631 41.2129C142.631 43.153 142.142 44.6418 141.166 45.6797C140.213 46.7174 138.816 47.2362 136.979 47.2362Z" fill="#FFFFFF" fill-opacity="1.000000" fill-rule="nonzero"/>
		<path id="Vector" d="M150.226 47.2362C148.409 47.2362 147.024 46.7286 146.071 45.7134C145.118 44.6758 144.642 43.1981 144.642 41.2805L144.642 23.2104L148.387 23.2104L148.387 41.5513C148.387 42.3634 148.545 42.95 148.863 43.3109C149.203 43.6719 149.681 43.8523 150.293 43.8523C150.906 43.8523 151.371 43.6719 151.688 43.3109C152.029 42.95 152.2 42.3634 152.2 41.5513L152.2 23.2104L155.809 23.2104L155.809 41.2805C155.809 43.1981 155.332 44.6758 154.379 45.7134C153.425 46.7286 152.04 47.2362 150.226 47.2362Z" fill="#FFFFFF" fill-opacity="1.000000" fill-rule="nonzero"/>
		<path id="Vector" d="M158.476 23.2104L163.821 23.2104L166.204 40.1638L166.271 40.1638L168.656 23.2104L174.001 23.2104L174.001 46.8978L170.46 46.8978L170.46 28.9631L170.393 28.9631L167.668 46.8978L164.535 46.8978L161.812 28.9631L161.745 28.9631L161.745 46.8978L158.476 46.8978L158.476 23.2104Z" fill="#FFFFFF" fill-opacity="1.000000" fill-rule="nonzero"/>
		<path id="Vector" d="M24 46.8979C28.6074 46.8979 32.3418 43.1855 32.3418 38.6062C32.3418 34.0267 28.6074 30.3145 24 30.3145L24 36.1187C25.3818 36.1187 26.5029 37.2323 26.5029 38.6062C26.5029 39.98 25.3818 41.0936 24 41.0936L24 46.8979Z" fill="#8781ED" fill-opacity="1.000000" fill-rule="nonzero"/>
		<path id="Vector" d="M51.8066 33.0784C50.3818 32.6295 48.8633 32.3873 47.2881 32.3873C39.0332 32.3873 32.3418 39.0387 32.3418 47.2433C32.3418 48.0669 32.4092 48.8748 32.5391 49.6617L41.8252 49.6617C41.4941 48.923 41.3096 48.1046 41.3096 47.2433C41.3096 43.9614 43.9863 41.3009 47.2881 41.3009C49.0928 41.3009 50.7109 42.0957 51.8066 43.3522L51.8066 33.0784Z" fill="#041673" fill-opacity="1.000000" fill-rule="nonzero"/>
		<path id="Vector" d="M25.4668 22.0227C26.1582 28.2415 31.4629 33.0784 37.9043 33.0784C44.3447 33.0784 49.6494 28.2415 50.3408 22.0227L41.3916 22.0227C40.8398 23.3993 39.4863 24.3721 37.9043 24.3721C36.3213 24.3721 34.9678 23.3993 34.416 22.0227L25.4668 22.0227Z" fill="#FFFFFF" fill-opacity="1.000000" fill-rule="nonzero"/>
	</g>
	<rect id="Auto Layout Vertical" rx="5.000000" width="197.000000" height="71.000000" transform="translate(0.500000 0.500000)" stroke="#A1AEBF" stroke-opacity="1.000000" stroke-width="1.000000"/>
</svg>
