<svg width="198.000000" height="72.000000" viewBox="0 0 198 72" fill="none" xmlns="http://www.w3.org/2000/svg" xmlns:xlink="http://www.w3.org/1999/xlink">
	<desc>
			Created with Pixso.
	</desc>
	<defs>
		<clipPath id="clip7_1052">
			<rect id="Frame" width="150.000000" height="40.000000" transform="translate(24.000000 16.000000)" fill="white" fill-opacity="0"/>
		</clipPath>
	</defs>
	<rect id="Frame" width="150.000000" height="40.000000" transform="translate(24.000000 16.000000)" fill="#FFFFFF" fill-opacity="0"/>
	<g clip-path="url(#clip7_1052)">
		<path id="Vector" d="M34.1104 44.5089C31.2197 47.3812 26.3262 47.3698 24.959 43.5416C24.6914 42.7921 24.4775 42.0215 24.3203 41.2351C23.6777 38.0244 24.0068 34.6964 25.2676 31.672C26.5283 28.6477 28.6621 26.0627 31.4004 24.244C34.1396 22.4253 37.3594 21.4546 40.6523 21.4546C43.9463 21.4546 47.165 22.4253 49.9043 24.244C52.6426 26.0627 54.7764 28.6477 56.0371 31.6721C57.2979 34.6964 57.627 38.0244 56.9844 41.2351C56.8271 42.0215 56.6133 42.7921 56.3457 43.5416C54.9785 47.3698 50.085 47.3812 47.1953 44.5089L42.7344 40.075C42.3076 39.6514 42.3516 38.9528 42.4697 38.3652C42.541 38.0081 42.5039 37.6378 42.3643 37.3014C42.2236 36.965 41.9863 36.6774 41.6816 36.4751C41.377 36.2728 41.0186 36.1648 40.6523 36.1648C40.2861 36.1648 39.9277 36.2728 39.623 36.4751C39.3184 36.6774 39.0811 36.965 38.9404 37.3014C38.8008 37.6378 38.7637 38.0081 38.8359 38.3652C38.9531 38.9528 38.9971 39.6514 38.5713 40.075L34.1104 44.5089Z" fill="#728095" fill-opacity="1.000000" fill-rule="nonzero"/>
		<path id="Vector" d="M70.8525 40.5349L75.3291 40.5349L75.3291 43.1567L67.4355 43.1567L67.4355 29.2137L70.8525 29.2137L70.8525 40.5349Z" fill="#FFFFFF" fill-opacity="1.000000" fill-rule="nonzero"/>
		<path id="Vector" d="M81.4346 43.3157C80.3428 43.3157 79.3564 43.084 78.4775 42.6205C77.6113 42.1571 76.9248 41.495 76.4189 40.6344C75.9258 39.7737 75.6797 38.7673 75.6797 37.6154C75.6797 36.4767 75.9326 35.4769 76.4395 34.6162C76.9453 33.7423 77.6377 33.0736 78.5176 32.6102C79.3965 32.1467 80.3828 31.915 81.4746 31.915C82.5674 31.915 83.5527 32.1467 84.4326 32.6102C85.3115 33.0736 86.0039 33.7423 86.5107 34.6162C87.0166 35.4769 87.2695 36.4767 87.2695 37.6154C87.2695 38.754 87.0098 39.7604 86.4902 40.6344C85.9844 41.495 85.2852 42.1571 84.3926 42.6205C83.5127 43.084 82.5273 43.3157 81.4346 43.3157ZM81.4346 40.3761C82.0879 40.3761 82.6406 40.1378 83.0938 39.6611C83.5596 39.1844 83.793 38.5026 83.793 37.6154C83.793 36.7281 83.5664 36.0463 83.1133 35.5696C82.6738 35.0929 82.1279 34.8545 81.4746 34.8545C80.8086 34.8545 80.2559 35.0929 79.8164 35.5696C79.376 36.0331 79.1562 36.7148 79.1562 37.6154C79.1562 38.5026 79.3701 39.1844 79.7959 39.6611C80.2354 40.1378 80.7822 40.3761 81.4346 40.3761Z" fill="#FFFFFF" fill-opacity="1.000000" fill-rule="nonzero"/>
		<path id="Vector" d="M92.7197 31.915C93.5059 31.915 94.1914 32.074 94.7773 32.3917C95.377 32.7095 95.8369 33.1266 96.1562 33.6429L96.1562 32.074L99.5732 32.074L99.5732 43.1368C99.5732 44.1565 99.3672 45.0768 98.9541 45.8977C98.5547 46.7319 97.9346 47.3939 97.0957 47.8838C96.2695 48.3738 95.2373 48.6188 93.998 48.6188C92.3467 48.6188 91.0078 48.2281 89.9814 47.4469C88.9561 46.6788 88.3701 45.6328 88.2236 44.3087L91.6006 44.3087C91.707 44.7324 91.96 45.0635 92.3594 45.3019C92.7598 45.5533 93.252 45.6792 93.8389 45.6792C94.5449 45.6792 95.1045 45.474 95.5176 45.0635C95.9434 44.6663 96.1562 44.024 96.1562 43.1368L96.1562 41.5679C95.8232 42.0842 95.3643 42.5081 94.7773 42.839C94.1914 43.1567 93.5059 43.3157 92.7197 43.3157C91.7998 43.3157 90.9678 43.084 90.2217 42.6205C89.4756 42.1438 88.8828 41.4751 88.4434 40.6145C88.0166 39.7406 87.8037 38.7343 87.8037 37.5955C87.8037 36.4568 88.0166 35.457 88.4434 34.5963C88.8828 33.7357 89.4756 33.0736 90.2217 32.6102C90.9678 32.1467 91.7998 31.915 92.7197 31.915ZM96.1562 37.6154C96.1562 36.7679 95.917 36.0992 95.4375 35.6094C94.9707 35.1194 94.3984 34.8744 93.7188 34.8744C93.0391 34.8744 92.46 35.1194 91.9805 35.6094C91.5137 36.0861 91.2803 36.748 91.2803 37.5955C91.2803 38.4429 91.5137 39.1183 91.9805 39.6215C92.46 40.1113 93.0391 40.3563 93.7188 40.3563C94.3984 40.3563 94.9707 40.1113 95.4375 39.6215C95.917 39.1315 96.1562 38.4628 96.1562 37.6154Z" fill="#FFFFFF" fill-opacity="1.000000" fill-rule="nonzero"/>
		<path id="Vector" d="M106.521 43.3157C105.43 43.3157 104.443 43.084 103.564 42.6205C102.698 42.1571 102.012 41.495 101.506 40.6344C101.013 39.7737 100.767 38.7673 100.767 37.6154C100.767 36.4767 101.02 35.4769 101.526 34.6162C102.032 33.7423 102.725 33.0736 103.604 32.6102C104.483 32.1467 105.47 31.915 106.562 31.915C107.654 31.915 108.64 32.1467 109.52 32.6102C110.398 33.0736 111.091 33.7423 111.598 34.6162C112.104 35.4769 112.356 36.4767 112.356 37.6154C112.356 38.754 112.097 39.7604 111.577 40.6344C111.071 41.495 110.372 42.1571 109.479 42.6205C108.6 43.084 107.614 43.3157 106.521 43.3157ZM106.521 40.3761C107.175 40.3761 107.728 40.1378 108.181 39.6611C108.646 39.1844 108.88 38.5026 108.88 37.6154C108.88 36.7281 108.653 36.0463 108.2 35.5696C107.761 35.0929 107.215 34.8545 106.562 34.8545C105.896 34.8545 105.343 35.0929 104.903 35.5696C104.464 36.0331 104.243 36.7148 104.243 37.6154C104.243 38.5026 104.457 39.1844 104.883 39.6611C105.322 40.1378 105.869 40.3761 106.521 40.3761Z" fill="#FFFFFF" fill-opacity="1.000000" fill-rule="nonzero"/>
		<path id="Vector" d="M115.288 30.922C114.688 30.922 114.196 30.7499 113.81 30.4056C113.437 30.0481 113.25 29.6111 113.25 29.0947C113.25 28.5651 113.437 28.1281 113.81 27.7838C114.196 27.4263 114.688 27.2476 115.288 27.2476C115.874 27.2476 116.354 27.4263 116.727 27.7838C117.113 28.1281 117.307 28.5651 117.307 29.0947C117.307 29.6111 117.113 30.0481 116.727 30.4056C116.354 30.7499 115.874 30.922 115.288 30.922ZM116.986 32.074L116.986 43.1569L113.569 43.1569L113.569 32.074L116.986 32.074Z" fill="#FFFFFF" fill-opacity="1.000000" fill-rule="nonzero"/>
		<path id="Vector" d="M122.281 33.6429C122.614 33.1266 123.073 32.7095 123.66 32.3917C124.246 32.074 124.933 31.915 125.719 31.915C126.638 31.915 127.47 32.1467 128.216 32.6102C128.962 33.0736 129.549 33.7357 129.975 34.5963C130.414 35.457 130.635 36.4568 130.635 37.5955C130.635 38.7343 130.414 39.7406 129.975 40.6145C129.549 41.4751 128.962 42.1438 128.216 42.6205C127.47 43.084 126.638 43.3157 125.719 43.3157C124.945 43.3157 124.26 43.1567 123.66 42.839C123.073 42.5211 122.614 42.1107 122.281 41.6075L122.281 48.4399L118.864 48.4399L118.864 32.074L122.281 32.074L122.281 33.6429ZM127.157 37.5955C127.157 36.748 126.918 36.0861 126.438 35.6094C125.971 35.1194 125.393 34.8744 124.699 34.8744C124.021 34.8744 123.44 35.1194 122.96 35.6094C122.495 36.0992 122.262 36.7679 122.262 37.6154C122.262 38.4628 122.495 39.1315 122.96 39.6215C123.44 40.1113 124.021 40.3563 124.699 40.3563C125.379 40.3563 125.958 40.1113 126.438 39.6215C126.918 39.1183 127.157 38.4429 127.157 37.5955Z" fill="#FFFFFF" fill-opacity="1.000000" fill-rule="nonzero"/>
		<path id="Vector" d="M136.363 43.3157C135.391 43.3157 134.524 43.1501 133.765 42.8192C133.006 42.488 132.406 42.038 131.967 41.4685C131.527 40.8859 131.281 40.2371 131.228 39.5221L134.604 39.5221C134.645 39.906 134.824 40.2172 135.144 40.4556C135.464 40.6938 135.857 40.8131 136.323 40.8131C136.749 40.8131 137.075 40.7336 137.302 40.5747C137.542 40.4026 137.662 40.1841 137.662 39.9193C137.662 39.6014 137.496 39.3698 137.163 39.2241C136.83 39.0652 136.29 38.8932 135.544 38.7078C134.744 38.5223 134.078 38.3303 133.545 38.1317C133.013 37.9199 132.554 37.5955 132.167 37.1586C131.78 36.7084 131.588 36.1058 131.588 35.3512C131.588 34.7156 131.761 34.1395 132.107 33.6232C132.466 33.0935 132.986 32.6764 133.665 32.3718C134.358 32.0673 135.178 31.915 136.123 31.915C137.521 31.915 138.621 32.2593 139.421 32.9478C140.233 33.6364 140.7 34.55 140.819 35.6887L137.662 35.6887C137.608 35.3048 137.436 35.0002 137.143 34.775C136.862 34.55 136.49 34.4375 136.023 34.4375C135.624 34.4375 135.317 34.517 135.104 34.6758C134.892 34.8214 134.785 35.0267 134.785 35.2915C134.785 35.6094 134.951 35.8477 135.284 36.0066C135.631 36.1655 136.163 36.3243 136.883 36.4832C137.709 36.6951 138.381 36.907 138.9 37.1188C139.421 37.3174 139.873 37.6484 140.26 38.1119C140.659 38.5621 140.866 39.1711 140.88 39.9392C140.88 40.588 140.693 41.1707 140.319 41.687C139.961 42.1902 139.434 42.5874 138.741 42.8787C138.062 43.17 137.27 43.3157 136.363 43.3157Z" fill="#FFFFFF" fill-opacity="1.000000" fill-rule="nonzero"/>
		<path id="Vector" d="M153.381 32.0739L153.381 43.1567L149.964 43.1567L149.964 41.6472C149.617 42.1371 149.145 42.5343 148.545 42.8389C147.959 43.1302 147.307 43.2759 146.587 43.2759C145.734 43.2759 144.981 43.0905 144.329 42.7197C143.676 42.3357 143.17 41.7863 142.811 41.0713C142.45 40.3562 142.271 39.5154 142.271 38.5487L142.271 32.0739L145.667 32.0739L145.667 38.0919C145.667 38.8335 145.86 39.4094 146.247 39.8199C146.633 40.2303 147.152 40.4357 147.806 40.4357C148.472 40.4357 148.998 40.2303 149.385 39.8199C149.771 39.4094 149.964 38.8335 149.964 38.0919L149.964 32.0739L153.381 32.0739Z" fill="#FFFFFF" fill-opacity="1.000000" fill-rule="nonzero"/>
		<path id="Vector" d="M169.464 31.9547C170.849 31.9547 171.948 32.3718 172.761 33.2061C173.587 34.0402 174 35.1987 174 36.6818L174 43.1567L170.604 43.1567L170.604 37.1387C170.604 36.4236 170.409 35.874 170.023 35.4901C169.649 35.0929 169.131 34.8942 168.465 34.8942C167.799 34.8942 167.272 35.0929 166.886 35.4901C166.514 35.874 166.326 36.4236 166.326 37.1387L166.326 43.1567L162.929 43.1567L162.929 37.1387C162.929 36.4236 162.736 35.874 162.351 35.4901C161.977 35.0929 161.457 34.8942 160.791 34.8942C160.125 34.8942 159.599 35.0929 159.213 35.4901C158.839 35.874 158.653 36.4236 158.653 37.1387L158.653 43.1567L155.236 43.1567L155.236 32.0739L158.653 32.0739L158.653 33.4642C159 33.0007 159.453 32.6366 160.012 32.3718C160.571 32.0938 161.204 31.9547 161.91 31.9547C162.75 31.9547 163.496 32.1334 164.148 32.491C164.814 32.8485 165.334 33.3583 165.707 34.0204C166.094 33.4111 166.62 32.9147 167.286 32.5306C167.951 32.1467 168.679 31.9547 169.464 31.9547Z" fill="#FFFFFF" fill-opacity="1.000000" fill-rule="nonzero"/>
	</g>
	<rect id="Auto Layout Vertical" rx="5.000000" width="197.000000" height="71.000000" transform="translate(0.500000 0.500000)" stroke="#A1AEBF" stroke-opacity="1.000000" stroke-width="1.000000"/>
</svg>
