<svg width="198.000000" height="72.000000" viewBox="0 0 198 72" fill="none" xmlns="http://www.w3.org/2000/svg" xmlns:xlink="http://www.w3.org/1999/xlink">
	<desc>
			Created with Pixso.
	</desc>
	<defs>
		<clipPath id="clip7_1049">
			<rect id="Frame" width="150.000000" height="40.000000" transform="translate(24.000000 16.000000)" fill="white" fill-opacity="0"/>
		</clipPath>
	</defs>
	<rect id="Frame" width="150.000000" height="40.000000" transform="translate(24.000000 16.000000)" fill="#FFFFFF" fill-opacity="0"/>
	<g clip-path="url(#clip7_1049)">
		<path id="Vector" d="M98.6963 42.2878L93.6436 42.2878L93.6436 28.8618L98.6963 28.8618L98.6963 42.2878ZM94.1367 41.7974L98.2031 41.7974L98.2031 29.3523L94.1367 29.3523L94.1367 41.7974ZM105.727 42.2878L100.775 42.2878L100.775 28.8618L111.119 28.8618C112.602 28.7426 114.077 29.156 115.278 30.0271C115.795 30.4972 116.196 31.0797 116.449 31.7291C116.702 32.3787 116.801 33.0774 116.737 33.771C116.812 34.9696 116.428 36.1517 115.663 37.0814C114.758 38.1133 113.252 38.6449 111.188 38.6636C110.668 38.6772 106.771 38.6636 105.729 38.6636L105.727 42.2878ZM101.266 41.7974L105.233 41.7974L105.233 38.1682L105.48 38.1682C105.531 38.1682 110.591 38.184 111.176 38.1682C113.1 38.1516 114.481 37.6779 115.29 36.7528C115.971 35.9117 116.309 34.8472 116.237 33.77C116.298 33.1486 116.214 32.5215 115.991 31.9375C115.769 31.3536 115.414 30.8284 114.954 30.4027C113.841 29.6084 112.479 29.2355 111.112 29.3513L101.269 29.3513L101.266 41.7974ZM110.071 35.6475L105.199 35.6475L105.199 31.9927L110.104 31.9927C110.452 31.9449 110.806 31.9854 111.134 32.11C111.462 32.2346 111.752 32.4396 111.979 32.7058C112.185 33.0461 112.282 33.4404 112.258 33.8368C112.276 34.2047 112.196 34.5709 112.025 34.8981C111.792 35.1785 111.489 35.3943 111.146 35.5249C110.805 35.6554 110.435 35.6963 110.071 35.6436L110.071 35.6475ZM105.693 35.157L110.071 35.157C110.881 35.157 111.382 34.9893 111.604 34.644C111.727 34.3931 111.782 34.1151 111.765 33.8368C111.787 33.5446 111.723 33.2523 111.581 32.9951L111.575 32.9863C111.341 32.6431 110.874 32.4832 110.104 32.4832L105.693 32.4832L105.693 35.157ZM125.742 42.486C121.312 42.486 118.667 41.3923 117.659 39.1432C117.494 38.7087 117.383 38.2563 117.326 37.7955L117.282 37.5131L122.554 37.5131L122.589 37.719C122.629 37.9281 122.719 38.125 122.85 38.2938C123.058 38.5439 123.752 38.9637 126.058 38.9637C128.828 38.9637 128.828 38.4801 128.828 38.2202C128.828 37.7817 128.508 37.6317 126.248 37.3923L125.818 37.3522C124.968 37.2727 123.893 37.1716 123.4 37.1295C119.256 36.7568 117.406 35.4768 117.406 32.9805C117.406 30.3586 120.555 28.6647 125.429 28.6647C129.405 28.6647 131.967 29.7063 133.041 31.7632C133.296 32.2417 133.468 32.7598 133.548 33.2953L133.582 33.5709L128.305 33.5709L128.283 33.3492C128.262 33.176 128.188 33.0135 128.069 32.8843C127.872 32.6215 127.249 32.1869 125.312 32.1869C122.936 32.1869 122.607 32.489 122.607 32.8147C122.607 33.2493 123.358 33.4032 125.766 33.6592C126.769 33.7406 128.383 33.9054 128.936 33.9722C132.41 34.3468 133.96 35.5955 133.96 38.0221C133.961 40.0574 132.535 42.486 125.742 42.486ZM117.858 38.0034C117.908 38.3269 117.993 38.6439 118.112 38.949C119.03 40.998 121.527 41.9956 125.742 41.9956C129.268 41.9956 133.471 41.309 133.471 38.0221C133.471 35.8711 132.099 34.8058 128.883 34.4596C128.33 34.3929 126.727 34.2291 125.725 34.1467C123.159 33.8701 122.116 33.723 122.116 32.8147C122.116 31.875 123.24 31.6965 125.314 31.6965C126.953 31.6965 128.013 31.9907 128.461 32.5842C128.584 32.7303 128.677 32.899 128.733 33.0806L133.011 33.0806C132.925 32.7012 132.789 32.3347 132.606 31.9907C131.619 30.1085 129.208 29.1552 125.431 29.1552C120.856 29.1552 117.901 30.6569 117.901 32.9805C117.901 35.1973 119.561 36.2919 123.446 36.641C123.939 36.6832 125.015 36.7843 125.867 36.8646L126.299 36.9049C128.398 37.1246 129.324 37.262 129.324 38.2202C129.324 39.2521 128.127 39.4541 126.06 39.4541C124.146 39.4541 122.939 39.1687 122.473 38.6067C122.328 38.4275 122.22 38.2228 122.152 38.0034L117.858 38.0034ZM143.335 42.4694C138.184 42.4694 135.342 40.3987 135.342 36.6381L135.342 28.8618L140.327 28.8618L140.327 36.6381C140.327 37.928 141.488 38.6675 143.513 38.6675C145.447 38.6675 146.647 37.8955 146.647 36.6548L146.647 28.8618L151.582 28.8618L151.582 37.05C151.587 40.4939 148.578 42.4694 143.332 42.4694L143.335 42.4694ZM135.835 29.3523L135.835 36.6381C135.835 41.2854 140.53 41.9789 143.335 41.9789C146.234 41.9789 151.097 41.3384 151.097 37.05L151.097 29.3523L147.149 29.3523L147.149 36.6548C147.149 38.175 145.725 39.158 143.521 39.158C141.218 39.158 139.842 38.2163 139.842 36.6381L139.842 29.3523L135.835 29.3523ZM172.491 42.2878L167.786 42.2878L167.786 36.2261L165.117 42.2878L161.014 42.2878L158.373 36.2379L158.373 42.2878L153.65 42.2878L153.65 28.8618L159.861 28.8618L163.089 36.2644L166.472 28.8618L172.497 28.8618L172.491 42.2878ZM168.279 41.7974L171.998 41.7974L171.998 29.3523L166.785 29.3523L163.073 37.4728L159.534 29.3523L154.14 29.3523L154.14 41.7974L157.875 41.7974L157.875 33.8779L161.329 41.8004L164.783 41.8004L168.273 33.8898L168.279 41.7974ZM29.9736 29.1071L25.4795 29.1071L25.4795 42.0426L37.8975 42.0426L37.8975 38.5989L29.9736 38.5989L29.9736 29.1071ZM46.9688 28.8127C41.2324 28.8127 38.2158 31.515 38.2158 35.4827C38.2158 39.9652 41.3828 42.2388 46.9688 42.2388C53.1191 42.2388 55.7051 39.6023 55.7051 35.4827C55.7051 31.2993 52.7871 28.8108 46.9688 28.8108L46.9688 28.8127ZM46.9521 32.1742C47.3428 32.1724 47.7334 32.1949 48.1211 32.2418L43.0967 37.2355C42.8584 36.7009 42.7432 36.1207 42.7568 35.5366C42.7568 33.5072 43.7852 32.1722 46.9521 32.1722L46.9521 32.1742ZM46.9688 38.9304C46.5928 38.932 46.2168 38.911 45.8428 38.8676L50.876 33.8652C51.1045 34.3909 51.2139 34.9602 51.1963 35.5327C51.1963 37.5071 50.249 38.9285 46.9688 38.9285L46.9688 38.9304ZM64.6094 37.1648L69.2354 37.1648C69.167 37.4839 69.0254 37.7827 68.8203 38.0378C67.8613 38.8142 66.6377 39.192 65.4053 39.0922C64.7842 39.1582 64.1572 39.0908 63.5654 38.8947C62.9736 38.6986 62.4307 38.3783 61.9736 37.9554C61.5059 37.2736 61.2842 36.4547 61.3438 35.6317C61.2676 34.7693 61.5088 33.9088 62.0234 33.21C62.6699 32.4841 63.7637 32.1713 65.373 32.1713C66.3965 32.087 67.418 32.3483 68.2734 32.9128C68.5439 33.1257 68.7451 33.412 68.8545 33.7367L73.1436 33.7367C73.1123 33.2017 72.9834 32.6768 72.7617 32.1879C71.7344 30.1115 69.3467 28.8756 65.2861 28.8756C61.7539 28.8756 59.3838 29.9467 58.0742 31.5621C57.209 32.7288 56.7646 34.151 56.8135 35.5994C56.7578 37.0804 57.1904 38.5391 58.0449 39.7533C59.3389 41.4208 61.6436 42.2407 64.4121 42.2407C66.2529 42.3684 68.082 41.8558 69.584 40.791L69.7012 42.0426L73.2646 42.0426L73.2646 34.3801L64.6094 34.3801L64.6094 37.1648ZM83.3789 28.8098C77.6426 28.8098 74.625 31.5121 74.625 35.4797C74.625 39.9623 77.791 42.2358 83.3789 42.2358C89.5293 42.2358 92.1162 39.5994 92.1162 35.4797C92.1162 31.2993 89.1982 28.8108 83.3789 28.8108L83.3789 28.8098ZM83.3623 32.1713C83.7432 32.1702 84.123 32.1918 84.501 32.236L79.4961 37.2129C79.2656 36.6843 79.1543 36.1124 79.168 35.5366C79.1641 33.5072 80.1963 32.1722 83.3623 32.1722L83.3623 32.1713ZM83.3789 38.9274C82.9922 38.9291 82.6064 38.9067 82.2227 38.8607L87.2725 33.8407C87.5098 34.3733 87.624 34.9523 87.6055 35.5347C87.6074 37.5071 86.6641 38.9285 83.3789 38.9285L83.3789 38.9274Z" fill="#FFFFFF" fill-opacity="1.000000" fill-rule="nonzero"/>
	</g>
	<rect id="Auto Layout Vertical" rx="5.000000" width="197.000000" height="71.000000" transform="translate(0.500000 0.500000)" stroke="#A1AEBF" stroke-opacity="1.000000" stroke-width="1.000000"/>
</svg>
