<svg width="198.000000" height="72.000000" viewBox="0 0 198 72" fill="none" xmlns="http://www.w3.org/2000/svg" xmlns:xlink="http://www.w3.org/1999/xlink">
	<desc>
			Created with Pixso.
	</desc>
	<defs>
		<clipPath id="clip7_1039">
			<rect id="Frame" width="150.000000" height="40.000000" transform="translate(24.000000 16.000000)" fill="white" fill-opacity="0"/>
		</clipPath>
	</defs>
	<rect id="Frame" width="150.000000" height="40.000000" transform="translate(24.000000 16.000000)" fill="#FFFFFF" fill-opacity="0"/>
	<g clip-path="url(#clip7_1039)">
		<path id="Vector" d="M51.8008 33.0172C54.6885 33.0172 55.3379 34.2563 55.3379 35.8018C55.3379 37.4399 54.5518 38.6135 51.8125 38.6135C49.0908 38.6135 48.3037 37.5082 48.3037 35.8018C48.3037 34.1227 49.1611 33.0172 51.8008 33.0172Z" fill="#FFFFFF" fill-opacity="1.000000" fill-rule="nonzero"/>
		<path id="Vector" d="M81.9795 33.0173C84.8672 33.0173 85.5166 34.2565 85.5166 35.8019C85.5166 37.4401 84.7295 38.6136 81.9912 38.6136C79.2705 38.6136 78.4824 37.5083 78.4824 35.8019C78.4824 34.1228 79.3398 33.0173 81.9795 33.0173Z" fill="#FFFFFF" fill-opacity="1.000000" fill-rule="nonzero"/>
		<path id="Vector" d="M26.2334 51.9091L26.2334 19.6791L172.164 19.6791L172.164 51.9091L26.2334 51.9091ZM95.7842 50.0909L170.324 50.0909L170.324 21.4973L95.7842 21.4973L95.7842 50.0909ZM51.8145 41.3573C56.9414 41.3573 59.0967 39.1727 59.0967 35.7609C59.0967 32.2936 56.6689 30.2327 51.8145 30.2327C47.0352 30.2327 44.5186 32.4709 44.5186 35.7609C44.5186 39.4736 47.1582 41.3573 51.8145 41.3573ZM33.9902 30.4781L33.9902 41.1936L44.3379 41.1936L44.3379 38.34L37.7344 38.34L37.7344 30.4781L33.9902 30.4781ZM70.6768 41.1936L70.5801 40.1554C69.3281 41.0383 67.8037 41.4633 66.2686 41.3573C63.9619 41.3573 62.04 40.6746 60.9629 39.2964C60.252 38.2902 59.8926 37.0824 59.9404 35.8563C59.9004 34.6561 60.2715 33.4775 60.9941 32.5118C62.085 31.1746 64.0615 30.2872 67.0039 30.2872C70.3896 30.2872 72.3789 31.3109 73.2354 33.0309C73.4189 33.436 73.5264 33.8705 73.5537 34.3136L69.9717 34.3136C69.8818 34.0443 69.7139 33.8071 69.4893 33.6309C68.7754 33.1636 67.9238 32.9475 67.0703 33.0172C66.5703 32.9574 66.0625 33.0029 65.5811 33.1512C65.1006 33.2996 64.6562 33.547 64.2793 33.8773C63.8506 34.4563 63.6504 35.1693 63.7129 35.8837C63.6641 36.5652 63.8486 37.2434 64.2383 37.8082C64.6182 38.1584 65.0713 38.4237 65.5645 38.5863C66.0576 38.7487 66.5811 38.8046 67.0977 38.75C68.125 38.8325 69.1455 38.5195 69.9443 37.8763C70.1162 37.6643 70.2344 37.415 70.2891 37.149L66.4355 37.149L66.4355 34.8463L73.6475 34.8463L73.6475 41.1936L70.6768 41.1936ZM81.9932 41.3573C87.1191 41.3573 89.2754 39.1727 89.2754 35.7609C89.2754 32.2936 86.8438 30.2327 81.9932 30.2327C77.2129 30.2327 74.6973 32.4709 74.6973 35.7609C74.6973 39.4736 77.3369 41.3573 81.9932 41.3573Z" fill="#FFFFFF" fill-opacity="1.000000" fill-rule="evenodd"/>
		<path id="Vector" d="M102.09 41.1527L102.09 30.4373L104.759 30.4373L104.759 41.1527L102.09 41.1527Z" fill="#FFFFFF" fill-opacity="1.000000" fill-rule="nonzero"/>
		<path id="Vector" d="M118.462 36.6755C117.785 37.5491 116.621 37.9482 114.98 37.9583C114.635 37.9583 110.047 37.9446 110.047 37.9446L110.047 41.1527L107.436 41.1527L107.436 30.4373L114.981 30.4373C115.586 30.3741 116.198 30.4375 116.776 30.6232C117.354 30.8091 117.887 31.113 118.339 31.5155C118.935 32.283 119.225 33.2399 119.154 34.2046C119.215 35.082 118.971 35.9537 118.462 36.6755ZM116.32 33.1819C116.045 32.7727 115.449 32.5455 114.441 32.5455L110.033 32.5455L110.033 35.8073L114.413 35.8073C115.49 35.8073 116.059 35.5891 116.32 35.1655C116.476 34.8671 116.543 34.5309 116.514 34.1964C116.537 33.8475 116.471 33.4985 116.32 33.1819Z" fill="#FFFFFF" fill-opacity="1.000000" fill-rule="nonzero"/>
		<path id="Vector" d="M126.85 41.3164C121.931 41.3164 120.425 39.4982 120.425 37.6991L123.216 37.6991C123.216 38.5864 124.445 39.2555 126.975 39.2555C129.488 39.2555 130.151 38.8182 130.151 38.1083C130.151 37.3164 129.655 37.0709 127.319 36.8119C126.859 36.771 125.606 36.621 125.137 36.5527C121.823 36.1837 120.548 35.2146 120.548 33.481C120.548 31.6519 122.414 30.2737 126.463 30.2737C130.856 30.2737 132.543 31.9801 132.543 33.7546L129.782 33.7546C129.782 32.8536 128.746 32.3346 126.3 32.3346C123.784 32.3346 123.246 32.6755 123.246 33.3446C123.246 34.0409 123.799 34.2592 126.467 34.5728C127.075 34.6555 128.429 34.8055 128.802 34.8455C131.621 35.1318 132.893 36.1418 132.893 37.9301C132.888 40.0601 130.953 41.3164 126.85 41.3164Z" fill="#FFFFFF" fill-opacity="1.000000" fill-rule="nonzero"/>
		<path id="Vector" d="M140.752 41.3027C137.146 41.3027 134.797 39.8964 134.797 36.9391L134.797 30.4373L137.436 30.4373L137.436 36.9755C137.436 38.3273 138.555 39.2273 140.862 39.2273C142.948 39.2273 144.192 38.3818 144.192 36.9755L144.192 30.4373L146.805 30.4373L146.805 37.1818C146.805 39.87 144.62 41.3027 140.752 41.3027Z" fill="#FFFFFF" fill-opacity="1.000000" fill-rule="nonzero"/>
		<path id="Vector" d="M161.104 41.1527L161.104 34L157.719 41.1527L155.149 41.1527L151.86 34L151.86 41.1527L149.376 41.1527L149.376 30.4373L152.742 30.4373L156.473 38.6L160.286 30.4373L163.6 30.4373L163.6 41.1527L161.104 41.1527Z" fill="#FFFFFF" fill-opacity="1.000000" fill-rule="nonzero"/>
	</g>
	<rect id="Auto Layout Vertical" rx="5.000000" width="197.000000" height="71.000000" transform="translate(0.500000 0.500000)" stroke="#A1AEBF" stroke-opacity="1.000000" stroke-width="1.000000"/>
</svg>
