<svg width="136.000000" height="42.000000" viewBox="0 0 136 42" fill="none" xmlns="http://www.w3.org/2000/svg" xmlns:xlink="http://www.w3.org/1999/xlink">
	<desc>
			Created with Pixso.
	</desc>
	<defs>
		<clipPath id="clip10_18">
			<rect width="38.000000" height="42.000000" fill="white" fill-opacity="0"/>
		</clipPath>
		<linearGradient id="paint_linear_10_20_0" x1="27.239395" y1="9.464104" x2="7.381671" y2="33.007172" gradientUnits="userSpaceOnUse">
			<stop stop-color="#9DE8EE"/>
			<stop offset="0.000100" stop-color="#9DE8EE"/>
			<stop offset="0.490049" stop-color="#FA7C0B"/>
			<stop offset="1.000000" stop-color="#9F8CED"/>
		</linearGradient>
		<linearGradient id="paint_linear_10_21_0" x1="27.239395" y1="9.464104" x2="7.381671" y2="33.007172" gradientUnits="userSpaceOnUse">
			<stop stop-color="#9DE8EE"/>
			<stop offset="0.000100" stop-color="#9DE8EE"/>
			<stop offset="0.490049" stop-color="#FA7C0B"/>
			<stop offset="1.000000" stop-color="#9F8CED"/>
		</linearGradient>
	</defs>
	<rect width="38.000000" height="42.000000" fill="#FFFFFF" fill-opacity="0"/>
	<g clip-path="url(#clip10_18)">
		<path d="M18.585 29.6594C17.0303 29.8472 16.2871 32.1592 15.6904 33.3547C14.7422 35.2122 13.9111 37.1289 12.9434 38.9763C12.5527 39.7173 11.5459 42.1379 10.4316 41.9998C8.30957 41.7429 6.40332 41.3574 4.70215 40.8635C3.14746 40.4089 1.87695 39.8953 0.889648 39.3223C0.713867 39.2234 0.606445 39.0356 0.606445 38.8281L0.606445 24.5417C0.606445 24.3242 0.723633 24.1267 0.918945 24.0378C1.09473 23.949 1.2998 23.9587 1.45703 24.0576C2.80566 24.9072 4.49707 25.6086 6.5498 26.1719C8.73047 26.7747 11.125 27.1106 13.7354 27.1895C14.7617 27.229 15.7197 27.2092 16.5898 27.1301C17.2158 27.071 17.7246 26.9919 18.125 26.8931C18.3691 26.8337 18.5449 26.6067 18.5449 26.3398L18.5449 25.4604C18.5449 25.1245 18.2617 24.8677 17.9395 24.8975C17.6855 24.9172 17.4111 24.9368 17.1182 24.9565C16.5605 24.9961 16.0527 25.0159 15.5732 25.0159C10.3818 25.0159 6.49121 24.0576 3.90039 22.1309C1.2998 20.2241 0 17.428 0 13.7429C0 10.6504 1.11426 8.23975 2.8252 5.76953C3.97852 4.12964 5.24023 2.52905 6.82422 1.28418C7.63477 0.651855 8.7793 -0.395508 9.85449 0.147949C11.5068 0.968018 12.543 3.52686 13.374 5.04834C14.3809 6.87622 15.3291 8.75342 16.5312 10.4526C17.2842 11.5198 18.418 13.0908 19.875 13.0908C23.4824 13.0908 26.8164 -0.395508 29.3672 0.0490723C31.7529 0.464111 33.7666 1.0271 35.4189 1.7583C35.624 1.84717 35.7617 2.05469 35.7617 2.28198L35.7617 16.5488C35.7617 16.7759 35.624 16.9834 35.4189 17.0723L35.292 17.1218C35.1357 17.1909 34.96 17.1812 34.8125 17.1021C33.5518 16.4399 32.0166 15.8967 30.208 15.4817C28.2822 15.0371 26.1807 14.8198 23.8828 14.8198C22.8955 14.8198 21.9668 14.8789 21.1162 14.9976C20.5596 15.0767 20.1289 15.1655 19.8164 15.2544C19.582 15.3237 19.415 15.5508 19.415 15.7979L19.415 16.5981C19.415 16.9241 19.6992 17.1909 20.0215 17.1614C20.2852 17.1416 20.5791 17.1218 20.9014 17.092C21.498 17.0527 22.2705 17.033 23.2188 17.033C28.0479 17.033 31.7236 18.001 34.2363 19.9475C40.4932 24.7788 38.0586 34.1846 33.1416 38.9666C31.665 40.3992 28.7324 43.3335 26.8262 41.1995C25.3496 39.5493 24.5283 37.2473 23.5508 35.2913C22.6611 33.5029 22.0254 31.3787 20.3242 30.1831C19.8652 29.8572 19.3174 29.6201 18.7607 29.6299C18.7119 29.6396 18.6436 29.6497 18.585 29.6594Z" fill="url(#paint_linear_10_20_0)" fill-opacity="1.000000" fill-rule="nonzero"/>
		<path d="M18.585 29.6594C17.0303 29.8472 16.2871 32.1592 15.6904 33.3547C14.7422 35.2122 13.9111 37.1289 12.9434 38.9763C12.5527 39.7173 11.5459 42.1379 10.4316 41.9998C8.30957 41.7429 6.40332 41.3574 4.70215 40.8635C3.14746 40.4089 1.87695 39.8953 0.889648 39.3223C0.713867 39.2234 0.606445 39.0356 0.606445 38.8281L0.606445 24.5417C0.606445 24.3242 0.723633 24.1267 0.918945 24.0378C1.09473 23.949 1.2998 23.9587 1.45703 24.0576C2.80566 24.9072 4.49707 25.6086 6.5498 26.1719C8.73047 26.7747 11.125 27.1106 13.7354 27.1895C14.7617 27.229 15.7197 27.2092 16.5898 27.1301C17.2158 27.071 17.7246 26.9919 18.125 26.8931C18.3691 26.8337 18.5449 26.6067 18.5449 26.3398L18.5449 25.4604C18.5449 25.1245 18.2617 24.8677 17.9395 24.8975C17.6855 24.9172 17.4111 24.9368 17.1182 24.9565C16.5605 24.9961 16.0527 25.0159 15.5732 25.0159C10.3818 25.0159 6.49121 24.0576 3.90039 22.1309C1.2998 20.2241 0 17.428 0 13.7429C0 10.6504 1.11426 8.23975 2.8252 5.76953C3.97852 4.12964 5.24023 2.52905 6.82422 1.28418C7.63477 0.651855 8.7793 -0.395508 9.85449 0.147949C11.5068 0.968018 12.543 3.52686 13.374 5.04834C14.3809 6.87622 15.3291 8.75342 16.5312 10.4526C17.2842 11.5198 18.418 13.0908 19.875 13.0908C23.4824 13.0908 26.8164 -0.395508 29.3672 0.0490723C31.7529 0.464111 33.7666 1.0271 35.4189 1.7583C35.624 1.84717 35.7617 2.05469 35.7617 2.28198L35.7617 16.5488C35.7617 16.7759 35.624 16.9834 35.4189 17.0723L35.292 17.1218C35.1357 17.1909 34.96 17.1812 34.8125 17.1021C33.5518 16.4399 32.0166 15.8967 30.208 15.4817C28.2822 15.0371 26.1807 14.8198 23.8828 14.8198C22.8955 14.8198 21.9668 14.8789 21.1162 14.9976C20.5596 15.0767 20.1289 15.1655 19.8164 15.2544C19.582 15.3237 19.415 15.5508 19.415 15.7979L19.415 16.5981C19.415 16.9241 19.6992 17.1909 20.0215 17.1614C20.2852 17.1416 20.5791 17.1218 20.9014 17.092C21.498 17.0527 22.2705 17.033 23.2188 17.033C28.0479 17.033 31.7236 18.001 34.2363 19.9475C40.4932 24.7788 38.0586 34.1846 33.1416 38.9666C31.665 40.3992 28.7324 43.3335 26.8262 41.1995C25.3496 39.5493 24.5283 37.2473 23.5508 35.2913C22.6611 33.5029 22.0254 31.3787 20.3242 30.1831C19.8652 29.8572 19.3174 29.6201 18.7607 29.6299C18.7119 29.6396 18.6436 29.6497 18.585 29.6594Z" fill="url(#paint_linear_10_21_0)" fill-opacity="1.000000" fill-rule="nonzero"/>
	</g>
	<path d="M56.9141 23.5156Q56.9141 22.8516 56.4453 22.4961Q55.9766 22.1406 54.7578 21.7461Q53.5391 21.3516 52.8281 20.9688Q50.8906 19.9219 50.8906 18.1484Q50.8906 17.2266 51.4102 16.5039Q51.9297 15.7812 52.9023 15.375Q53.875 14.9688 55.0859 14.9688Q56.3047 14.9688 57.2578 15.4102Q58.2109 15.8516 58.7383 16.6562Q59.2656 17.4609 59.2656 18.4844L56.9219 18.4844Q56.9219 17.7031 56.4297 17.2695Q55.9375 16.8359 55.0469 16.8359Q54.1875 16.8359 53.7109 17.1992Q53.2344 17.5625 53.2344 18.1562Q53.2344 18.7109 53.793 19.0859Q54.3516 19.4609 55.4375 19.7891Q57.4375 20.3906 58.3516 21.2812Q59.2656 22.1719 59.2656 23.5Q59.2656 24.9766 58.1484 25.8164Q57.0312 26.6562 55.1406 26.6562Q53.8281 26.6562 52.75 26.1758Q51.6719 25.6953 51.1055 24.8594Q50.5391 24.0234 50.5391 22.9219L52.8906 22.9219Q52.8906 24.8047 55.1406 24.8047Q55.9766 24.8047 56.4453 24.4648Q56.9141 24.125 56.9141 23.5156ZM62.9062 18.9688Q63.8047 17.8906 65.1641 17.8906Q67.9141 17.8906 67.9531 21.0859L67.9531 26.5L65.6953 26.5L65.6953 21.1484Q65.6953 20.4219 65.3828 20.0742Q65.0703 19.7266 64.3438 19.7266Q63.3516 19.7266 62.9062 20.4922L62.9062 26.5L60.6484 26.5L60.6484 14.5L62.9062 14.5L62.9062 18.9688ZM74.5547 26.5Q74.3984 26.1953 74.3281 25.7422Q73.5078 26.6562 72.1953 26.6562Q70.9531 26.6562 70.1367 25.9375Q69.3203 25.2188 69.3203 24.125Q69.3203 22.7812 70.3164 22.0625Q71.3125 21.3438 73.1953 21.3359L74.2344 21.3359L74.2344 20.8516Q74.2344 20.2656 73.9336 19.9141Q73.6328 19.5625 72.9844 19.5625Q72.4141 19.5625 72.0898 19.8359Q71.7656 20.1094 71.7656 20.5859L69.5078 20.5859Q69.5078 19.8516 69.9609 19.2266Q70.4141 18.6016 71.2422 18.2461Q72.0703 17.8906 73.1016 17.8906Q74.6641 17.8906 75.582 18.6758Q76.5 19.4609 76.5 20.8828L76.5 24.5469Q76.5078 25.75 76.8359 26.3672L76.8359 26.5L74.5547 26.5ZM72.6875 24.9297Q73.1875 24.9297 73.6094 24.707Q74.0312 24.4844 74.2344 24.1094L74.2344 22.6562L73.3906 22.6562Q71.6953 22.6562 71.5859 23.8281L71.5781 23.9609Q71.5781 24.3828 71.875 24.6562Q72.1719 24.9297 72.6875 24.9297ZM77.8828 22.2109Q77.8828 20.2344 78.7695 19.0625Q79.6562 17.8906 81.1953 17.8906Q82.4297 17.8906 83.2344 18.8125L83.2344 14.5L85.5 14.5L85.5 26.5L83.4609 26.5L83.3516 25.6016Q82.5078 26.6562 81.1797 26.6562Q79.6875 26.6562 78.7852 25.4805Q77.8828 24.3047 77.8828 22.2109ZM80.1406 22.375Q80.1406 23.5625 80.5547 24.1953Q80.9688 24.8281 81.7578 24.8281Q82.8047 24.8281 83.2344 23.9453L83.2344 20.6094Q82.8125 19.7266 81.7734 19.7266Q80.1406 19.7266 80.1406 22.375ZM89.6328 26.5L87.3672 26.5L87.3672 18.0469L89.6328 18.0469L89.6328 26.5ZM87.2344 15.8594Q87.2344 15.3516 87.5742 15.0234Q87.9141 14.6953 88.5 14.6953Q89.0781 14.6953 89.4219 15.0234Q89.7656 15.3516 89.7656 15.8594Q89.7656 16.375 89.418 16.7031Q89.0703 17.0312 88.5 17.0312Q87.9297 17.0312 87.582 16.7031Q87.2344 16.375 87.2344 15.8594ZM95.3828 26.6562Q93.5234 26.6562 92.3555 25.5156Q91.1875 24.375 91.1875 22.4766L91.1875 22.2578Q91.1875 20.9844 91.6797 19.9805Q92.1719 18.9766 93.0742 18.4336Q93.9766 17.8906 95.1328 17.8906Q96.8672 17.8906 97.8633 18.9844Q98.8594 20.0781 98.8594 22.0859L98.8594 23.0078L93.4766 23.0078Q93.5859 23.8359 94.1367 24.3359Q94.6875 24.8359 95.5312 24.8359Q96.8359 24.8359 97.5703 23.8906L98.6797 25.1328Q98.1719 25.8516 97.3047 26.2539Q96.4375 26.6562 95.3828 26.6562ZM95.125 19.7188Q94.4531 19.7188 94.0352 20.1719Q93.6172 20.625 93.5 21.4688L96.6406 21.4688L96.6406 21.2891Q96.625 20.5391 96.2344 20.1289Q95.8438 19.7188 95.125 19.7188ZM102.219 18.0469L102.289 19.0234Q103.195 17.8906 104.719 17.8906Q106.062 17.8906 106.719 18.6797Q107.375 19.4688 107.391 21.0391L107.391 26.5L105.133 26.5L105.133 21.0938Q105.133 20.375 104.82 20.0508Q104.508 19.7266 103.781 19.7266Q102.828 19.7266 102.352 20.5391L102.352 26.5L100.094 26.5L100.094 18.0469L102.219 18.0469ZM111.805 15.9688L111.805 18.0469L113.25 18.0469L113.25 19.7031L111.805 19.7031L111.805 23.9219Q111.805 24.3906 111.984 24.5938Q112.164 24.7969 112.672 24.7969Q113.047 24.7969 113.336 24.7422L113.336 26.4531Q112.672 26.6562 111.969 26.6562Q109.594 26.6562 109.547 24.2578L109.547 19.7031L108.312 19.7031L108.312 18.0469L109.547 18.0469L109.547 15.9688L111.805 15.9688ZM114.625 25.3906Q114.625 24.8516 114.988 24.5156Q115.352 24.1797 115.898 24.1797Q116.453 24.1797 116.816 24.5156Q117.18 24.8516 117.18 25.3906Q117.18 25.9219 116.82 26.2539Q116.461 26.5859 115.898 26.5859Q115.344 26.5859 114.984 26.2539Q114.625 25.9219 114.625 25.3906ZM122.672 24.8359Q123.297 24.8359 123.688 24.4922Q124.078 24.1484 124.094 23.5781L126.211 23.5781Q126.203 24.4375 125.742 25.1523Q125.281 25.8672 124.48 26.2617Q123.68 26.6562 122.711 26.6562Q120.898 26.6562 119.852 25.5039Q118.805 24.3516 118.805 22.3203L118.805 22.1719Q118.805 20.2188 119.844 19.0547Q120.883 17.8906 122.695 17.8906Q124.281 17.8906 125.238 18.793Q126.195 19.6953 126.211 21.1953L124.094 21.1953Q124.078 20.5391 123.688 20.1289Q123.297 19.7188 122.656 19.7188Q121.867 19.7188 121.465 20.293Q121.062 20.8672 121.062 22.1562L121.062 22.3906Q121.062 23.6953 121.461 24.2656Q121.859 24.8359 122.672 24.8359ZM127.148 22.1953Q127.148 20.9375 127.633 19.9531Q128.117 18.9688 129.027 18.4297Q129.938 17.8906 131.141 17.8906Q132.852 17.8906 133.934 18.9375Q135.016 19.9844 135.141 21.7812L135.156 22.3594Q135.156 24.3047 134.07 25.4805Q132.984 26.6562 131.156 26.6562Q129.328 26.6562 128.238 25.4844Q127.148 24.3125 127.148 22.2969L127.148 22.1953ZM129.406 22.3594Q129.406 23.5625 129.859 24.1992Q130.312 24.8359 131.156 24.8359Q131.977 24.8359 132.438 24.207Q132.898 23.5781 132.898 22.1953Q132.898 21.0156 132.438 20.3672Q131.977 19.7188 131.141 19.7188Q130.312 19.7188 129.859 20.3633Q129.406 21.0078 129.406 22.3594Z" fill="#FFFFFF" fill-opacity="1.000000" fill-rule="evenodd"/>
</svg>
