<svg width="420" height="330" viewBox="0 0 420 330" fill="none" xmlns="http://www.w3.org/2000/svg">
<path d="M306.751 87.6658L306.76 87.6661C306.775 87.6667 306.789 87.6634 306.802 87.6567L306.809 87.653C308.013 87.0428 309.249 86.499 310.512 86.0242C311.765 85.5481 313.063 85.0869 314.325 84.7171L314.222 84.732L314.241 84.7325C314.272 84.7334 314.304 84.7294 314.334 84.7204L314.359 84.7127C321.028 82.6208 327.953 81.4545 334.939 81.2465C338.421 81.1433 341.906 81.2544 345.374 81.5792L355.886 82.4673C362.897 83.0329 369.921 83.4372 376.941 83.8841C383.963 84.3096 390.982 84.771 397.991 85.3547L397.841 84.8178C396.601 85.719 395.466 86.7573 394.459 87.913C393.462 89.0824 392.612 90.3696 391.929 91.7459C391.268 93.1313 390.744 94.578 390.365 96.0655C390.005 97.556 389.775 99.0747 389.675 100.605C389.505 103.663 389.711 106.73 390.288 109.737C390.834 112.758 391.69 115.715 392.844 118.56L393.679 117.485C388.747 116.554 383.817 115.614 378.879 114.718L364.071 112L364.88 112.729L364.773 112.411L364.805 112.497C364.089 110.231 362.613 108.28 360.627 106.974C358.653 105.671 356.311 105.039 353.95 105.171C351.578 105.324 349.328 106.275 347.566 107.87C347.336 108.054 347.128 108.265 346.947 108.498L346.375 109.17C346.032 109.644 345.715 110.137 345.427 110.646C345.153 111.151 344.966 111.67 344.734 112.182C344.625 112.44 344.507 112.695 344.408 112.954L344.163 113.748C342.985 117.946 342.532 122.314 342.824 126.664C343.018 130.955 343.62 135.219 344.622 139.396L345.363 138.653L335.408 136.571L325.433 134.577C325.408 134.572 325.382 134.577 325.36 134.591C325.338 134.605 325.323 134.626 325.318 134.651C325.312 134.676 325.316 134.702 325.329 134.724C325.343 134.746 325.364 134.762 325.389 134.768L335.227 137.349L345.083 139.855C345.182 139.88 345.286 139.88 345.385 139.854C345.484 139.829 345.575 139.779 345.65 139.709C345.724 139.639 345.78 139.551 345.812 139.454C345.844 139.356 345.85 139.253 345.831 139.152L345.824 139.112C345.028 134.99 344.574 130.809 344.465 126.612C344.286 122.47 344.813 118.327 346.023 114.361L346.256 113.637C346.349 113.403 346.459 113.178 346.559 112.948C346.772 112.498 346.95 112.014 347.187 111.592C347.455 111.2 347.666 110.763 347.97 110.402L348.437 109.869C348.58 109.682 348.749 109.514 348.937 109.372C350.364 108.115 352.173 107.375 354.072 107.273C355.98 107.163 357.873 107.671 359.47 108.72C361.061 109.769 362.251 111.325 362.849 113.134L362.882 113.221C362.887 113.246 362.894 113.27 362.904 113.293L362.97 113.443C363.037 113.593 363.14 113.725 363.27 113.826C363.399 113.927 363.552 113.994 363.714 114.023L378.558 116.536C383.505 117.384 388.459 118.188 393.412 119.001C393.549 119.023 393.69 119.008 393.82 118.957C393.949 118.907 394.063 118.822 394.149 118.712C394.234 118.602 394.288 118.471 394.305 118.332C394.323 118.194 394.302 118.054 394.247 117.926C393.07 115.207 392.152 112.382 391.505 109.49C390.833 106.594 390.531 103.624 390.606 100.652C390.654 99.1703 390.83 97.6957 391.131 96.2442C391.45 94.7981 391.929 93.3921 392.559 92.0523C393.202 90.719 394.006 89.4696 394.953 88.3319C395.914 87.2027 397 86.1855 398.189 85.2993L398.198 85.2929C398.245 85.2562 398.28 85.206 398.298 85.149C398.317 85.092 398.317 85.0308 398.3 84.9735C398.283 84.9161 398.249 84.8652 398.202 84.8276C398.156 84.7899 398.099 84.7671 398.04 84.7623C391.029 84.1928 384.029 83.5052 377.032 82.7738C370.034 82.0651 363.039 81.3138 356.03 80.7237L345.514 79.8785C341.975 79.5765 338.419 79.5221 334.871 79.7155C331.326 79.9119 327.8 80.3751 324.324 81.1013C320.851 81.804 317.44 82.783 314.123 84.0289L314.241 84.0092L314.222 84.0097L314.195 84.0105C314.169 84.0113 314.144 84.0161 314.12 84.0246C312.805 84.4941 311.575 85.0159 310.324 85.5751C309.079 86.1308 307.872 86.7678 306.711 87.482L306.76 87.469L306.751 87.4693C306.725 87.4703 306.701 87.4811 306.684 87.4994C306.666 87.5177 306.656 87.5422 306.656 87.5676C306.656 87.593 306.666 87.6174 306.684 87.6357C306.701 87.654 306.725 87.6648 306.751 87.6658L306.751 87.6658Z" fill="url(#paint0_linear_8_1978)"/>
<path d="M263.763 113.866C264.323 111.06 265.447 108.396 267.068 106.037C267.876 104.906 268.806 103.867 269.841 102.939C270.889 102.023 272.013 101.198 273.199 100.47C275.637 99.0452 278.238 97.9195 280.945 97.1178C283.691 96.2863 286.499 95.6749 289.341 95.2892L289.396 95.2838C290.368 95.013 291.336 94.7239 292.301 94.4163C291.289 94.4661 290.281 94.5381 289.277 94.6267L289.331 94.6214C286.363 94.4917 283.391 94.7746 280.5 95.462C277.564 96.1232 274.756 97.2585 272.185 98.8233C269.564 100.402 267.382 102.615 265.84 105.258C264.356 107.877 263.637 110.859 263.763 113.866V113.866Z" fill="url(#paint1_linear_8_1978)"/>
<path d="M356.812 105.772C355.1 105.109 353.368 104.532 351.625 104.009C349.884 103.479 348.133 102.989 346.373 102.54C344.619 102.067 342.845 101.681 341.078 101.264C339.302 100.891 337.529 100.502 335.739 100.189L335.325 100.116L335.065 100.315C334.331 100.882 333.654 101.519 333.043 102.216C332.437 102.88 331.88 103.588 331.376 104.333C330.872 105.068 330.419 105.838 330.021 106.637C329.621 107.427 329.282 108.247 329.008 109.09C329.52 108.372 330.048 107.677 330.592 107.006C331.143 106.335 331.699 105.666 332.279 105.059C332.871 104.443 333.476 103.848 334.106 103.287C334.72 102.746 335.364 102.24 336.034 101.769L335.361 101.895C337.116 102.366 338.887 102.76 340.653 103.178C342.43 103.551 344.2 103.954 345.989 104.27C347.772 104.613 349.565 104.912 351.367 105.168C353.168 105.434 354.98 105.646 356.812 105.772Z" fill="url(#paint2_linear_8_1978)"/>
<path d="M381.734 83.7195C379.636 85.6604 377.984 88.0344 376.895 90.6771C375.755 93.3192 375.037 96.1234 374.764 98.9878C374.537 101.845 374.712 104.72 375.285 107.529C375.354 107.878 375.407 108.23 375.49 108.575L375.783 109.601L376.399 111.634C376.896 112.96 377.478 114.252 378.087 115.514C377.889 114.107 377.561 112.758 377.333 111.394L377.045 109.343L376.886 108.326C376.843 107.987 376.83 107.643 376.801 107.302C376.754 106.619 376.699 105.939 376.627 105.262C376.577 104.583 376.603 103.901 376.587 103.222C376.556 101.868 376.601 100.514 376.72 99.1644C376.969 96.4666 377.506 93.8032 378.322 91.2197C379.144 88.5878 380.29 86.0684 381.734 83.7195V83.7195Z" fill="url(#paint3_linear_8_1978)"/>
<path d="M328.478 104.164C327.009 103.616 325.532 103.077 324.045 102.566C324.127 103.173 324.171 103.784 324.175 104.397C325.448 104.796 326.731 105.177 328.022 105.549C328.896 105.8 329.769 106.051 330.652 106.302C330.773 106.116 330.894 105.939 331.015 105.772C331.135 105.595 331.265 105.428 331.377 105.27C330.411 104.889 329.444 104.527 328.478 104.164Z" fill="url(#paint4_linear_8_1978)"/>
<path d="M313.832 101.023C314.965 101.414 316.081 101.804 317.214 102.185H317.224C317.577 101.626 317.988 101.106 318.45 100.633L318.032 100.494C316.778 100.085 315.523 99.676 314.268 99.2764C314.12 99.9083 313.962 100.494 313.832 101.023Z" fill="url(#paint5_linear_8_1978)"/>
<path d="M320.217 94.8995C318.349 94.2955 316.481 93.6914 314.604 93.106C314.807 93.7298 314.904 94.3831 314.892 95.0389C316.462 95.5965 318.051 96.1261 319.631 96.6651C323.135 97.8081 326.656 98.9326 330.206 99.9455C331.851 100.429 333.505 100.89 335.169 101.33C337.083 101.841 338.997 102.324 340.939 102.743C340.168 102.399 339.397 102.055 338.616 101.72C338.607 101.72 338.607 101.72 338.598 101.711C335.977 100.596 333.319 99.5645 330.662 98.5701C327.205 97.2692 323.711 96.0797 320.217 94.8995Z" fill="url(#paint6_linear_8_1978)"/>
<path d="M305.599 91.6099C305.757 91.6749 305.915 91.74 306.073 91.7957C306.479 91.4558 306.937 91.1829 307.43 90.9873C306.928 90.8479 306.426 90.7085 305.924 90.5691C305.803 90.9594 305.692 91.3125 305.599 91.6099Z" fill="url(#paint7_linear_8_1978)"/>
<path d="M393.543 118.239C414.523 99.0909 398.011 85.0623 398.011 85.0623C383.348 95.6802 393.543 118.239 393.543 118.239Z" fill="url(#paint8_linear_8_1978)"/>
<path d="M345.225 139.25C362.537 144.414 363.892 113.01 363.892 113.01C363.871 112.945 363.851 112.881 363.83 112.818C361.227 104.822 350.07 103.788 346.221 111.264C341.005 121.395 345.225 139.25 345.225 139.25Z" fill="url(#paint9_linear_8_1978)"/>
<path d="M332.166 135.5C335.033 142.565 337.967 149.557 340.666 156.614C343.425 163.584 345.749 170.718 347.627 177.975C348.07 179.756 348.41 181.561 348.646 183.381C348.902 185.143 348.894 186.933 348.622 188.693C348.479 189.52 348.199 190.318 347.791 191.052C347.376 191.75 346.8 192.339 346.112 192.77C344.541 193.567 342.755 193.834 341.019 193.532C337.334 192.893 333.787 191.615 330.54 189.758C329.715 189.301 328.889 188.85 328.075 188.373L325.667 186.875C324.042 185.911 322.52 184.783 320.961 183.724C319.408 182.654 317.931 181.475 316.416 180.36L314.217 178.587C313.485 177.997 312.732 177.435 312.026 176.813C310.606 175.579 309.128 174.421 307.748 173.146L305.643 171.277L303.592 169.349C300.869 166.769 298.249 164.086 295.733 161.302C293.199 158.539 290.767 155.684 288.393 152.781C283.633 146.961 279.2 140.881 275.116 134.568C273.067 131.406 271.101 128.184 269.218 124.904C267.332 121.627 265.527 118.288 263.883 114.866L263.513 114.998C265.737 122.344 268.734 129.434 272.455 136.148C276.128 142.913 280.367 149.356 285.127 155.406C289.938 161.433 295.279 167.017 301.087 172.091L303.267 173.986L305.508 175.809C306.992 177.034 308.546 178.174 310.099 179.309C311.654 180.44 313.27 181.49 314.87 182.55C316.519 183.544 318.123 184.596 319.799 185.534C321.472 186.475 323.123 187.445 324.83 188.316C326.521 189.211 328.208 190.112 329.937 190.948C333.379 192.727 337.051 194.021 340.848 194.795C342.873 195.222 344.981 195.01 346.879 194.187C347.86 193.695 348.708 192.976 349.353 192.088C349.959 191.211 350.423 190.243 350.725 189.22C351.261 187.259 351.496 185.228 351.422 183.196C351.369 181.226 351.171 179.262 350.831 177.321C350.137 173.506 349.119 169.757 347.789 166.115C346.514 162.48 345.057 158.928 343.476 155.44C342.701 153.689 341.859 151.97 341.011 150.256C340.17 148.539 339.284 146.845 338.371 145.166C336.552 141.806 334.635 138.5 332.512 135.314L332.166 135.5Z" fill="url(#paint10_linear_8_1978)"/>
<path d="M378.354 89.1322C373.002 88.3269 367.636 87.7148 362.265 87.1708C356.894 86.6145 351.515 86.1728 346.135 85.7533C340.752 85.3705 335.367 85.0122 329.973 84.7679C324.581 84.5115 319.183 84.3246 313.771 84.3324C319.122 85.1402 324.489 85.7533 329.86 86.2968C335.23 86.8525 340.609 87.2942 345.989 87.7113C351.373 88.0918 356.758 88.4501 362.151 88.6937C367.544 88.9496 372.942 89.1376 378.354 89.1322Z" fill="url(#paint11_linear_8_1978)"/>
<path d="M312.624 179.286C313.393 172.461 314.133 165.625 314.796 158.782L315.05 156.216L315.177 154.933C315.19 154.833 315.194 154.703 315.214 154.627C315.237 154.566 315.256 154.504 315.27 154.441C315.334 154.269 315.408 154.101 315.489 153.937C316.248 152.5 317.243 151.063 318.166 149.628C320.05 146.756 321.868 143.812 323.492 140.747C324.296 139.209 325.053 137.641 325.715 136.023C326.37 134.384 326.919 132.752 327.487 131.141C328.629 127.906 329.761 124.668 330.85 121.415L332.504 116.542L332.917 115.324C333.078 114.863 333.186 114.385 333.239 113.9C333.354 112.912 333.215 111.912 332.835 110.993C332.456 110.015 331.736 109.208 330.808 108.72C329.849 108.299 328.765 108.255 327.775 108.599C326.073 109.237 324.519 110.218 323.21 111.481L324.232 112.055C324.468 110.397 324.62 108.729 324.686 107.057C324.718 106.222 324.723 105.378 324.69 104.543C324.619 103.7 324.585 102.844 324.443 102.008C324.321 101.118 324.003 100.266 323.513 99.5129C323.22 99.09 322.788 98.7835 322.292 98.6467C321.816 98.549 321.323 98.5762 320.861 98.7256C319.191 99.2931 317.791 100.457 316.927 101.994L317.224 101.832H317.215L317.022 101.833L316.92 101.991C316.349 102.906 315.833 103.853 315.373 104.829C315.159 105.292 314.909 105.738 314.624 106.162C314.448 106.37 314.45 106.367 314.2 106.382C314.122 106.39 314.043 106.374 313.974 106.335C313.905 106.297 313.849 106.239 313.814 106.168C313.641 105.723 313.571 105.244 313.611 104.768C313.624 104.246 313.665 103.726 313.734 103.208C313.867 102.162 314.073 101.126 314.35 100.109C314.633 99.0726 314.861 98.0223 315.033 96.9623C315.228 95.8781 315.243 94.7691 315.077 93.6801C314.973 93.1155 314.764 92.5756 314.459 92.0889C314.139 91.5968 313.703 91.1913 313.188 90.9086C312.173 90.4116 311.043 90.1939 309.916 90.2778L309.974 90.2805C309.493 90.2342 309.008 90.2502 308.531 90.328C308.06 90.4042 307.598 90.5347 307.156 90.717C306.263 91.0914 305.488 91.7026 304.916 92.4847L304.952 92.4429C304.878 92.5216 304.835 92.6247 304.83 92.7329L304.837 94.3175L305.564 92.9073L305.573 92.889L305.583 92.8714L305.598 92.8269C306.9 89.377 307.776 85.7817 308.209 82.12C308.301 81.1714 308.288 80.2155 308.171 79.2697C308.083 78.2151 307.626 77.2252 306.88 76.4742C306.445 76.0975 305.913 75.8503 305.344 75.7605C304.793 75.6961 304.235 75.753 303.708 75.9272C302.767 76.28 301.907 76.8195 301.18 77.5132C299.814 78.8112 298.614 80.2728 297.606 81.8649C296.59 83.4118 295.657 85.0112 294.81 86.6565C293.046 89.919 291.653 93.3694 290.66 96.9428C289.713 100.481 288.819 103.987 287.604 107.37C286.379 110.711 284.901 114.073 282.549 116.51C281.458 117.705 279.996 118.498 278.398 118.759C277.578 118.845 276.75 118.811 275.939 118.659C275.076 118.54 274.221 118.365 273.38 118.134C271.693 117.677 270.066 117.022 268.534 116.181C267.019 115.353 265.619 114.329 264.37 113.137L263.367 112.14L262.833 113.359C262.253 114.729 261.901 116.183 261.791 117.666C261.67 119.104 261.722 120.55 261.944 121.976C262.417 124.796 263.437 127.496 264.948 129.924C265.698 131.157 266.611 132.284 267.661 133.273C268.73 134.223 269.897 135.055 271.143 135.756C272.369 136.445 273.626 137.017 274.777 137.659C275.901 138.203 276.863 139.033 277.566 140.065C278.152 141.184 278.462 142.427 278.47 143.69C278.56 145.034 278.611 146.389 278.627 147.749C278.661 150.468 278.609 153.196 278.512 155.922C278.407 158.649 278.301 161.377 278.124 164.102C277.931 166.822 277.781 169.561 277.323 172.241L277.504 172.283C278.088 169.593 278.358 166.868 278.674 164.149C278.962 161.427 279.225 158.701 279.405 155.968C279.586 153.235 279.723 150.498 279.774 147.751C279.8 146.377 279.789 144.998 279.741 143.613C279.765 142.136 279.431 140.674 278.768 139.353C277.962 138.094 276.838 137.068 275.511 136.38C274.287 135.669 273.062 135.084 271.917 134.411C270.791 133.75 269.739 132.971 268.778 132.087C267.854 131.182 267.057 130.156 266.407 129.038C265.064 126.785 264.172 124.292 263.782 121.699C263.588 120.42 263.546 119.124 263.659 117.836C263.758 116.588 264.051 115.364 264.525 114.206L262.987 114.428C265.759 117.091 269.159 119.008 272.871 120.003C273.787 120.258 274.72 120.453 275.662 120.587C276.143 120.639 276.584 120.73 277.099 120.749L277.872 120.772C278.13 120.757 278.389 120.727 278.648 120.702C280.687 120.4 282.558 119.404 283.947 117.881C286.652 114.992 288.094 111.453 289.342 107.983C290.556 104.484 291.427 100.902 292.329 97.3876C292.558 96.5121 292.788 95.6404 293.065 94.8141C293.347 93.9716 293.666 93.1322 293.999 92.2976C294.666 90.6281 295.402 88.979 296.205 87.3667C296.998 85.7539 297.876 84.184 298.834 82.6636C299.755 81.1559 300.849 79.7612 302.094 78.5082C302.672 77.9209 303.36 77.4539 304.118 77.1342C304.457 77.0112 304.817 76.9606 305.176 76.9856C305.513 77.0308 305.832 77.1677 306.097 77.3815C306.646 77.9371 306.987 78.665 307.062 79.4426C307.192 80.305 307.227 81.1791 307.167 82.0491C306.829 85.6484 306.053 89.193 304.856 92.6042L304.88 92.5424L304.871 92.561L305.605 92.7354C305.606 92.7825 305.597 92.8292 305.58 92.8728C305.562 92.9164 305.535 92.9558 305.501 92.9885L305.538 92.9465C306.013 92.2559 306.67 91.7097 307.436 91.3678C308.206 91.0298 309.046 90.8865 309.884 90.9505L309.921 90.954L309.943 90.9533C310.949 90.8662 311.96 91.0461 312.875 91.4749C313.299 91.717 313.663 92.0519 313.939 92.4547C314.216 92.8574 314.397 93.3175 314.47 93.8004C314.631 94.8203 314.624 95.8596 314.448 96.877C314.288 97.9211 314.073 98.956 313.804 99.9774C313.52 101.015 313.301 102.069 313.148 103.133C313.071 103.671 313.022 104.212 313.002 104.755C312.947 105.343 313.038 105.936 313.269 106.48C313.364 106.639 313.496 106.771 313.655 106.865C313.813 106.96 313.993 107.014 314.177 107.022C314.362 107.03 314.545 106.993 314.712 106.913C314.878 106.833 315.022 106.714 315.131 106.565C315.45 106.111 315.73 105.631 315.968 105.13C316.428 104.184 316.942 103.266 317.509 102.38L317.215 102.538L317.224 102.538L317.415 102.539L317.52 102.376C318.292 101.002 319.559 99.9732 321.062 99.4994C321.368 99.3673 321.711 99.3478 322.03 99.4443C322.349 99.5407 322.623 99.747 322.805 100.027C323.189 100.68 323.429 101.408 323.506 102.162C323.616 102.958 323.62 103.759 323.666 104.562C323.674 105.377 323.644 106.185 323.588 106.999C323.474 108.624 323.279 110.243 323.003 111.849L322.718 113.504L324.025 112.423C325.224 111.327 326.631 110.482 328.163 109.94C328.815 109.721 329.526 109.756 330.154 110.038C330.741 110.392 331.187 110.938 331.417 111.583C331.689 112.262 331.783 112.999 331.69 113.724C331.647 114.092 331.561 114.454 331.435 114.803L331.01 116.019L329.309 120.882C328.163 124.12 327.059 127.373 325.965 130.629C325.41 132.261 324.881 133.891 324.279 135.446C323.659 137.013 322.94 138.548 322.172 140.061C320.626 143.087 318.833 145.991 317.033 148.91C316.144 150.388 315.209 151.801 314.409 153.424C314.305 153.647 314.215 153.876 314.14 154.109C314.105 154.255 314.074 154.402 314.048 154.549C314.027 154.683 314.029 154.77 314.019 154.883L313.928 156.165L313.747 158.729C313.249 165.568 312.829 172.413 312.439 179.27L312.624 179.286Z" fill="url(#paint12_linear_8_1978)"/>
<path d="M301.427 102.742L305.65 92.901L304.781 92.572L301.427 102.742Z" fill="url(#paint13_linear_8_1978)"/>
<path d="M163.83 69.1235C167.255 70.575 170.826 71.7954 174.401 72.9151C177.995 74.0233 181.648 74.9316 185.342 75.6358C189.057 76.3962 192.839 76.7731 196.631 76.7605C198.555 76.743 200.473 76.5462 202.36 76.1727C204.304 75.8022 206.165 75.0819 207.852 74.0467L207.77 74.0938C210.607 72.6784 213.459 71.293 216.28 69.8462L217.221 69.3635L216.654 68.5483C216.586 68.4389 216.501 68.3411 216.402 68.2587C216.354 68.2139 216.303 68.1729 216.249 68.1361C216.163 68.0773 216.063 68.0004 215.987 67.9606C215.831 67.8746 215.663 67.7683 215.514 67.7046C215.207 67.5531 214.905 67.4233 214.606 67.3099C214.006 67.0762 213.411 66.869 212.814 66.6918C211.622 66.3138 210.422 66.028 209.224 65.7475C206.826 65.1944 204.42 64.7266 202.005 64.3441C199.593 63.9386 197.177 63.5827 194.758 63.2544C192.341 62.912 189.918 62.6267 187.498 62.3236L187.826 62.504L182.876 56.8394C181.224 54.9487 179.631 53.0293 177.923 51.1596C174.472 47.4603 170.474 44.3124 166.068 41.8258C163.858 40.5965 161.561 39.5294 159.195 38.633C156.82 37.7611 154.39 37.0479 151.92 36.4983C146.971 35.2397 141.844 34.8333 136.758 35.2965C131.611 35.9327 126.704 37.8453 122.483 40.8605C118.286 43.9201 114.866 47.9239 112.5 52.5487C111.329 54.8592 110.416 57.2918 109.777 59.8023L109.363 61.7C109.248 62.3285 109.137 62.9524 109.041 63.5825C108.84 64.8393 108.677 66.1032 108.552 67.3741C108.28 69.9253 108.218 72.4946 108.366 75.056C108.504 77.6565 108.978 80.2283 109.777 82.7071L110.098 83.671L111.068 83.3794L124.178 79.4384L137.324 75.6114C141.706 74.3359 146.098 73.0982 150.51 71.9427C152.712 71.348 154.922 70.7872 157.139 70.2604C158.252 70.0296 159.359 69.7318 160.48 69.5554L162.159 69.2545L163.83 69.1235ZM163.875 68.9226L162.125 68.9408L160.415 69.1362C159.27 69.2569 158.153 69.4966 157.019 69.6714C154.768 70.0846 152.521 70.5268 150.288 71.0202C145.821 72.0113 141.376 73.0845 136.942 74.1954C132.506 75.3034 128.095 76.5024 123.682 77.6933C119.273 78.8991 114.863 80.0903 110.471 81.3732L111.762 82.0453C110.289 77.4761 110.3 72.4668 110.743 67.5898C110.861 66.3649 111.017 65.1424 111.21 63.9223C111.302 63.3128 111.409 62.702 111.519 62.0976L111.905 60.3207C112.476 57.9618 113.303 55.6722 114.371 53.4924C116.537 49.1215 119.699 45.3207 123.604 42.3962C127.543 39.4947 132.131 37.6001 136.97 36.8773C141.881 36.297 146.855 36.5356 151.689 37.5832C156.593 38.4574 161.327 40.1052 165.715 42.4648C170.102 44.8428 174.064 47.9313 177.441 51.6049C180.725 55.3534 183.855 59.3032 187.027 63.178L187.148 63.3247L187.356 63.3587C189.757 63.7499 192.161 64.1263 194.555 64.5532C196.951 64.9662 199.342 65.4065 201.719 65.8942C204.097 66.3763 206.466 66.8921 208.806 67.4712C209.974 67.7637 211.136 68.0826 212.267 68.4375C212.837 68.6083 213.393 68.8061 213.926 69.0157C214.197 69.1195 214.452 69.2312 214.692 69.3508C214.823 69.4072 214.91 69.4713 215.022 69.5293C215.062 69.5533 215.101 69.5795 215.139 69.6078C215.161 69.6213 215.177 69.6335 215.165 69.626C215.152 69.604 215.2 69.6799 215.074 69.4977L215.448 68.2001C212.609 69.6107 209.801 71.0827 206.978 72.5247L206.933 72.5477L206.896 72.572C203.965 74.4811 200.219 75.0312 196.594 75.1613C194.754 75.2063 192.913 75.1519 191.079 74.9983C189.236 74.8655 187.395 74.6429 185.561 74.3569C181.888 73.8074 178.254 72.9738 174.636 72.0775C171.012 71.1675 167.45 70.1097 163.875 68.9226Z" fill="url(#paint14_linear_8_1978)"/>
<path d="M141.185 40.8331C142.945 42.9004 144.747 44.9098 146.558 46.9084L151.987 52.8947C153.796 54.8866 155.59 56.8909 157.37 58.9076C159.138 60.9367 160.886 62.9778 162.622 65.0666C161.333 62.6741 159.855 60.3883 158.202 58.2311C156.576 56.0553 154.809 53.9952 153.004 51.9728C151.176 49.9718 149.289 48.0261 147.323 46.1627C145.371 44.281 143.322 42.502 141.185 40.8331Z" fill="url(#paint15_linear_8_1978)"/>
<path d="M131.789 41.8222C130.334 44.4629 129.047 47.1931 127.936 49.9962C126.806 52.7918 125.82 55.6418 124.976 58.5463C124.14 61.4526 123.487 64.4088 123.023 67.3973C122.562 70.3886 122.433 73.4219 122.64 76.4416C122.965 73.4678 123.445 70.513 124.078 67.5891C124.72 64.6779 125.475 61.7937 126.296 58.9257C127.106 56.0537 128.024 53.2106 128.939 50.3618C129.882 47.5222 130.811 44.6714 131.789 41.8222Z" fill="url(#paint16_linear_8_1978)"/>
<path d="M187.427 62.8411C185.803 62.8635 184.182 62.9771 182.571 63.1812C180.965 63.3619 179.373 63.6216 177.784 63.8967C176.199 64.1969 174.618 64.5142 173.05 64.9102C171.47 65.2858 169.913 65.7509 168.386 66.303C170.01 66.2823 171.631 66.1694 173.242 65.9649C174.848 65.7839 176.44 65.5241 178.029 65.2475C179.613 64.9455 181.195 64.6282 182.762 64.2319C184.342 63.8559 185.899 63.3916 187.427 62.8411V62.8411Z" fill="url(#paint17_linear_8_1978)"/>
<path d="M187.428 75.313C187.402 76.692 187.475 78.0686 187.573 79.4474C187.661 80.839 187.86 82.2214 188.166 83.5817C188.318 84.3166 188.595 85.0199 188.985 85.6607C189.337 86.1852 189.679 86.7983 190.019 87.3819C190.706 88.561 191.369 89.7607 192.03 90.9595C193.368 93.3498 194.683 95.752 195.976 98.166C196.611 99.3775 197.268 100.578 197.875 101.796C198.181 102.404 198.471 103.018 198.754 103.627C198.893 103.933 199.025 104.239 199.139 104.541C199.19 104.689 199.251 104.845 199.281 104.977C199.3 105.033 199.313 105.091 199.319 105.149C199.321 105.16 199.331 105.216 199.33 105.191C199.33 105.168 199.336 105.145 199.347 105.125C199.359 105.105 199.375 105.088 199.394 105.076L199.647 104.899C199.178 105.01 198.696 105.056 198.214 105.034C197.7 105.013 197.189 104.944 196.687 104.828C196.177 104.708 195.674 104.557 195.182 104.375C194.686 104.186 194.2 103.969 193.727 103.727L193.657 103.692L193.611 103.701C193.129 103.792 192.676 104.002 192.295 104.311C191.93 104.618 191.669 105.031 191.549 105.492C191.729 105.075 192.035 104.723 192.423 104.486C192.792 104.253 193.213 104.113 193.648 104.078L193.533 104.053C194.444 104.685 195.44 105.186 196.491 105.541C197.031 105.715 197.585 105.837 198.148 105.907C198.743 105.99 199.348 105.97 199.936 105.848L200.105 105.811L200.189 105.671C200.254 105.559 200.3 105.436 200.324 105.308C200.332 105.237 200.332 105.166 200.326 105.094C200.323 104.982 200.308 104.869 200.281 104.759C200.244 104.573 200.196 104.388 200.139 104.206C200.032 103.858 199.912 103.526 199.786 103.197C199.536 102.541 199.253 101.906 198.967 101.275C198.39 100.015 197.793 98.7705 197.154 97.5483C195.899 95.0931 194.557 92.6888 193.174 90.3066C192.471 89.1212 191.757 87.9442 191.019 86.7744C190.643 86.1872 190.275 85.6225 189.828 85.0293C189.482 84.5069 189.221 83.9332 189.054 83.3295C188.32 80.7 187.776 78.0208 187.428 75.313V75.313Z" fill="url(#paint18_linear_8_1978)"/>
<path d="M183.965 108.918C187.921 102.818 193.629 105.492 193.629 105.492C193.629 105.492 195.834 135.789 182.316 136.613C172.029 137.241 163.177 130.993 156.953 124.266C153.729 120.764 151.689 116.337 151.121 111.611C150.277 104.711 149.008 94.2857 148.686 91.2784C148.192 86.6625 146.321 74.5764 139.619 75.313C139.619 75.313 125.607 75.4524 132.86 99.686C132.86 99.686 134.838 114.853 121.98 113.039C121.98 113.039 124.618 105.456 121.156 99.686C117.694 93.9161 113.142 86.6215 113.357 81.614C113.357 81.614 158.742 68.1988 163.853 69.0231C160.707 70.6835 158.177 73.3089 156.634 76.5135C155.091 79.7181 154.617 83.3331 155.28 86.8273C156.788 96.6269 164.04 109.778 167.406 115.48C167.939 116.39 168.709 117.138 169.634 117.645C170.559 118.151 171.604 118.398 172.658 118.359C174.607 118.28 176.843 117.995 177.907 117.16C180.008 115.512 183.965 108.918 183.965 108.918Z" fill="url(#paint19_linear_8_1978)"/>
<path d="M184.45 79.8546C183.487 79.1127 182.384 78.5718 181.207 78.2642C180.01 77.9275 178.76 77.8231 177.523 77.9569C176.259 78.108 175.057 78.5872 174.036 79.3467C173.043 80.0881 172.281 81.0959 171.838 82.2531C172.671 81.4701 173.603 80.7978 174.608 80.2529C175.573 79.7605 176.618 79.4443 177.694 79.3192C178.795 79.1971 179.906 79.1951 181.008 79.3133C182.134 79.431 183.272 79.6158 184.45 79.8546Z" fill="url(#paint20_linear_8_1978)"/>
<path d="M145.554 96.7186C143.344 97.5852 140.786 97.4874 139.15 96.0366C138.324 95.305 137.665 94.405 137.217 93.3972C136.734 92.3612 136.348 91.2831 136.062 90.1765C135.425 87.945 135.048 85.6472 134.939 83.329C134.889 82.1655 134.918 80.9999 135.027 79.8403C135.081 79.2574 135.166 78.6776 135.28 78.1033C135.331 77.8129 135.405 77.5302 135.482 77.2453C135.542 76.9571 135.66 76.6838 135.827 76.4416C135.413 76.8859 135.102 77.4158 134.915 77.9937C134.694 78.5584 134.51 79.1365 134.362 79.7246C134.082 80.907 133.916 82.1138 133.867 83.3281C133.779 85.7647 134.073 88.2001 134.74 90.5455C135.401 92.8239 136.361 95.3458 138.504 96.8873C139.558 97.6418 140.841 98.0065 142.134 97.9189C143.362 97.8376 144.544 97.4226 145.554 96.7186V96.7186Z" fill="url(#paint21_linear_8_1978)"/>
<path d="M161.547 128.666C160.739 129.159 159.991 129.746 159.321 130.415C158.646 131.065 158.025 131.767 157.462 132.516C156.891 133.272 156.399 134.084 155.993 134.94C155.52 135.802 155.329 136.791 155.446 137.767C155.842 136.952 156.335 136.187 156.913 135.49C157.457 134.774 158.027 134.07 158.562 133.338C159.106 132.611 159.635 131.867 160.142 131.098C160.669 130.323 161.139 129.51 161.547 128.666V128.666Z" fill="url(#paint22_linear_8_1978)"/>
<path d="M121.98 113.039C121.107 114.39 120.311 115.79 119.597 117.232C119.236 117.921 118.879 118.602 118.477 119.25C118.08 119.933 117.595 120.561 117.035 121.117C117.907 120.995 118.71 120.575 119.307 119.928C119.918 119.329 120.426 118.634 120.812 117.871C121.2 117.13 121.499 116.345 121.702 115.533C121.924 114.721 122.018 113.88 121.98 113.039V113.039Z" fill="url(#paint23_linear_8_1978)"/>
<path d="M101.864 109.573C101.864 109.573 117.764 110.734 120.45 117.081L119.967 117.992L118.192 117.081C109.661 112.835 104.838 118.475 110.767 119.47C116.705 120.455 152.064 136.652 152.064 136.652C167.397 140.992 176.383 164.307 176.383 164.307C173.911 163.248 171.393 162.3 168.893 161.287C166.328 160.46 163.782 159.568 161.189 158.834C155.984 157.364 150.675 156.286 145.308 155.609C139.932 154.917 134.501 154.749 129.092 155.107C127.745 155.256 126.397 155.34 125.05 155.535C123.721 155.767 122.373 155.925 121.054 156.241C118.4 156.763 115.815 157.589 113.35 158.704C115.913 157.937 118.542 157.412 121.203 157.133C122.522 156.929 123.86 156.864 125.18 156.743C126.509 156.659 127.838 156.613 129.166 156.548C134.487 156.467 139.807 156.768 145.085 157.449L149.044 157.96L152.984 158.657L154.954 158.983L156.905 159.41C158.216 159.698 159.517 159.977 160.827 160.246C163.429 160.85 166.012 161.538 168.624 162.161C171.207 162.867 173.772 163.647 176.383 164.307C216.602 170.905 255.846 195.633 258.475 194.973C261.115 194.314 263.428 173.544 263.428 168.201C263.428 162.867 264.413 152.766 272.331 152.766C280.239 152.766 279.254 159.689 279.254 159.689C264.414 163.648 298.704 166.621 308.926 167.931C319.148 169.251 313.544 165.302 313.544 165.302C313.544 165.302 316.509 162.133 319.687 166.073C320.679 167.344 321.347 168.836 321.635 170.423C321.924 172.009 321.823 173.641 321.341 175.18C320.328 178.562 318.832 183.692 317.828 187.716C316.174 194.314 310.245 241.79 308.266 246.409C306.287 251.018 265.408 263.22 178.362 256.956C171.309 255.85 164.284 254.68 157.259 253.509C150.243 252.31 143.226 251.083 136.266 249.661C132.781 248.964 129.297 248.24 125.849 247.413C122.383 246.623 118.944 245.746 115.534 244.783C112.122 243.824 108.76 242.695 105.461 241.4C102.12 240.198 99.0088 238.435 96.2608 236.187C97.4716 237.512 98.8601 238.663 100.387 239.607C101.897 240.582 103.467 241.46 105.089 242.236C108.344 243.752 111.69 245.065 115.107 246.167C121.929 248.335 128.869 250.11 135.894 251.483C142.91 252.877 149.961 254.029 157.045 254.94C164.126 255.878 171.235 256.566 178.362 256.956C178.362 256.956 181.531 276.22 183.185 293.551H59.2012C59.3313 276.629 59.3592 254.206 58.8388 234.04C57.8538 195.141 58.8388 176.834 58.8388 176.834C60.6214 176.637 62.3821 176.276 64.0985 175.756C65.8177 175.264 67.4997 174.678 69.1817 174.074C72.5364 172.866 75.8074 171.454 79.0599 170.004C82.2938 168.526 85.4904 166.984 88.6407 165.32C91.791 163.675 94.904 161.938 97.9149 160.023C94.5602 161.25 91.2799 162.616 88.0181 164.019C84.7563 165.404 81.5318 166.872 78.2885 168.313L68.6334 172.736C65.3902 174.167 62.2214 175.71 58.8388 176.834C58.8388 176.834 42.5207 184.259 41.0338 165.46C39.5563 146.67 57.3613 106.116 101.864 109.573ZM95.0155 170.626C93.3756 172.175 91.9448 173.93 90.7595 175.849C90.1741 176.806 89.6722 177.819 89.1426 178.823C88.6872 179.854 88.3155 180.913 87.888 181.964C87.6863 182.49 87.5247 183.03 87.4049 183.58L86.9774 185.216C86.6891 186.303 86.4779 187.408 86.3455 188.524L86.1225 190.197L86.0109 191.033L85.9737 191.87L85.8622 195.224L85.8344 196.061L85.8902 196.897L86.0109 198.57C86.0852 199.685 86.1596 200.791 86.2804 201.897C86.6521 204.09 87.0052 206.283 87.4792 208.448C88.0832 210.585 88.6687 212.713 89.3377 214.813C89.0683 212.611 88.7244 210.446 88.3806 208.281C88.1204 206.106 87.9717 203.922 87.7208 201.757L87.6372 198.495L87.5907 196.869L87.5628 196.061L87.6186 195.252L87.7858 192.009L87.823 191.201L87.9438 190.401L88.1854 188.803C88.7305 184.531 90.0234 180.388 92.0047 176.564C93.0308 174.669 94.2583 172.89 95.6661 171.258C97.0706 169.588 98.7146 168.135 100.545 166.946C98.4923 167.825 96.6182 169.072 95.0155 170.626ZM71.5885 132.991C72.2537 134.39 73.3927 135.509 74.8038 136.15C75.5022 136.469 76.235 136.706 76.9876 136.856C77.7393 136.963 78.4963 137.028 79.2551 137.052C80.0078 137.014 80.7698 137.014 81.5132 136.921L83.7249 136.559C84.459 136.41 85.1653 136.197 85.8901 136.011L87.981 135.444C89.3441 135.088 90.733 134.839 92.1348 134.7C94.975 134.436 97.8331 134.426 100.675 134.673C106.418 135.191 112.109 136.179 117.69 137.628C120.496 138.334 123.303 139.096 126.081 139.923C128.878 140.713 131.629 141.624 134.398 142.544C129.134 140.007 123.674 137.897 118.071 136.234C112.456 134.501 106.676 133.358 100.824 132.823C97.8617 132.588 94.8842 132.632 91.9304 132.953C90.4434 133.145 88.9737 133.452 87.5349 133.873L83.3996 135.146L81.3273 135.592C80.6303 135.713 79.9334 135.741 79.2365 135.834C78.5395 135.881 77.8426 135.825 77.1549 135.806C76.4731 135.715 75.8032 135.55 75.1569 135.314C73.8422 134.862 72.7318 133.956 72.0253 132.758C71.6601 132.15 71.3847 131.493 71.2075 130.807C70.9984 130.113 70.8859 129.394 70.8729 128.669C70.7113 130.148 70.9588 131.643 71.5885 132.991Z" fill="url(#paint24_linear_8_1978)"/>
<path d="M235.399 293.554C217.101 293.023 198.802 292.667 180.503 292.486C171.354 292.36 162.204 292.332 153.055 292.257L125.607 292.181L98.1585 292.253C89.0091 292.33 79.8597 292.354 70.7103 292.482C52.4114 292.662 34.1126 293.019 15.8139 293.554C34.1127 294.088 52.4115 294.446 70.7103 294.626C79.8597 294.754 89.0091 294.778 98.1585 294.855L125.607 294.927L153.055 294.851C162.204 294.777 171.354 294.749 180.503 294.622C198.802 294.441 217.101 294.085 235.399 293.554Z" fill="url(#paint25_linear_8_1978)"/>
<path d="M181.369 89.806C177.781 89.806 177.775 84.2303 181.369 84.2303C184.956 84.2303 184.962 89.806 181.369 89.806Z" fill="url(#paint26_linear_8_1978)"/>
<defs>
<linearGradient id="paint0_linear_8_1978" x1="332.577" y1="93.1857" x2="356.149" y2="139.387" gradientUnits="userSpaceOnUse">
<stop stop-color="#9DE8EE"/>
<stop offset="0.0001" stop-color="#9DE8EE"/>
<stop offset="0.490049" stop-color="#FA7C0B"/>
<stop offset="0.79" stop-color="#C48590"/>
<stop offset="1" stop-color="#9F8CED"/>
</linearGradient>
<linearGradient id="paint1_linear_8_1978" x1="271.823" y1="98.7997" x2="279.586" y2="113.487" gradientUnits="userSpaceOnUse">
<stop stop-color="#9DE8EE"/>
<stop offset="0.0001" stop-color="#9DE8EE"/>
<stop offset="0.490049" stop-color="#FA7C0B"/>
<stop offset="0.79" stop-color="#C48590"/>
<stop offset="1" stop-color="#9F8CED"/>
</linearGradient>
<linearGradient id="paint2_linear_8_1978" x1="336.871" y1="102.139" x2="338.913" y2="110.296" gradientUnits="userSpaceOnUse">
<stop stop-color="#9DE8EE"/>
<stop offset="0.0001" stop-color="#9DE8EE"/>
<stop offset="0.490049" stop-color="#FA7C0B"/>
<stop offset="0.79" stop-color="#C48590"/>
<stop offset="1" stop-color="#9F8CED"/>
</linearGradient>
<linearGradient id="paint3_linear_8_1978" x1="376.666" y1="90.8849" x2="384.798" y2="93.2144" gradientUnits="userSpaceOnUse">
<stop stop-color="#9DE8EE"/>
<stop offset="0.0001" stop-color="#9DE8EE"/>
<stop offset="0.490049" stop-color="#FA7C0B"/>
<stop offset="0.79" stop-color="#C48590"/>
<stop offset="1" stop-color="#9F8CED"/>
</linearGradient>
<linearGradient id="paint4_linear_8_1978" x1="326.118" y1="103.408" x2="327.352" y2="106.529" gradientUnits="userSpaceOnUse">
<stop stop-color="#9DE8EE"/>
<stop offset="0.0001" stop-color="#9DE8EE"/>
<stop offset="0.490049" stop-color="#FA7C0B"/>
<stop offset="0.79" stop-color="#C48590"/>
<stop offset="1" stop-color="#9F8CED"/>
</linearGradient>
<linearGradient id="paint5_linear_8_1978" x1="315.138" y1="99.9319" x2="316.246" y2="102.2" gradientUnits="userSpaceOnUse">
<stop stop-color="#9DE8EE"/>
<stop offset="0.0001" stop-color="#9DE8EE"/>
<stop offset="0.490049" stop-color="#FA7C0B"/>
<stop offset="0.79" stop-color="#C48590"/>
<stop offset="1" stop-color="#9F8CED"/>
</linearGradient>
<linearGradient id="paint6_linear_8_1978" x1="322.052" y1="95.2778" x2="324.498" y2="103.893" gradientUnits="userSpaceOnUse">
<stop stop-color="#9DE8EE"/>
<stop offset="0.0001" stop-color="#9DE8EE"/>
<stop offset="0.490049" stop-color="#FA7C0B"/>
<stop offset="0.79" stop-color="#C48590"/>
<stop offset="1" stop-color="#9F8CED"/>
</linearGradient>
<linearGradient id="paint7_linear_8_1978" x1="306.117" y1="90.8455" x2="306.602" y2="91.7784" gradientUnits="userSpaceOnUse">
<stop stop-color="#9DE8EE"/>
<stop offset="0.0001" stop-color="#9DE8EE"/>
<stop offset="0.490049" stop-color="#FA7C0B"/>
<stop offset="0.79" stop-color="#C48590"/>
<stop offset="1" stop-color="#9F8CED"/>
</linearGradient>
<linearGradient id="paint8_linear_8_1978" x1="394.079" y1="92.5394" x2="407.58" y2="99.9305" gradientUnits="userSpaceOnUse">
<stop stop-color="#9DE8EE"/>
<stop offset="0.0001" stop-color="#9DE8EE"/>
<stop offset="0.490049" stop-color="#FA7C0B"/>
<stop offset="0.79" stop-color="#C48590"/>
<stop offset="1" stop-color="#9F8CED"/>
</linearGradient>
<linearGradient id="paint9_linear_8_1978" x1="349.348" y1="113.777" x2="365.088" y2="126.012" gradientUnits="userSpaceOnUse">
<stop stop-color="#9DE8EE"/>
<stop offset="0.0001" stop-color="#9DE8EE"/>
<stop offset="0.490049" stop-color="#FA7C0B"/>
<stop offset="0.79" stop-color="#C48590"/>
<stop offset="1" stop-color="#9F8CED"/>
</linearGradient>
<linearGradient id="paint10_linear_8_1978" x1="288.378" y1="132.928" x2="324.879" y2="184.54" gradientUnits="userSpaceOnUse">
<stop stop-color="#9DE8EE"/>
<stop offset="0.0001" stop-color="#9DE8EE"/>
<stop offset="0.490049" stop-color="#FA7C0B"/>
<stop offset="0.79" stop-color="#C48590"/>
<stop offset="1" stop-color="#9F8CED"/>
</linearGradient>
<linearGradient id="paint11_linear_8_1978" x1="332.035" y1="85.414" x2="332.302" y2="90.036" gradientUnits="userSpaceOnUse">
<stop stop-color="#9DE8EE"/>
<stop offset="0.0001" stop-color="#9DE8EE"/>
<stop offset="0.490049" stop-color="#FA7C0B"/>
<stop offset="0.79" stop-color="#C48590"/>
<stop offset="1" stop-color="#9F8CED"/>
</linearGradient>
<linearGradient id="paint12_linear_8_1978" x1="281.963" y1="99.0722" x2="331.648" y2="143.321" gradientUnits="userSpaceOnUse">
<stop stop-color="#9DE8EE"/>
<stop offset="0.0001" stop-color="#9DE8EE"/>
<stop offset="0.490049" stop-color="#FA7C0B"/>
<stop offset="0.79" stop-color="#C48590"/>
<stop offset="1" stop-color="#9F8CED"/>
</linearGradient>
<linearGradient id="paint13_linear_8_1978" x1="302.622" y1="94.864" x2="306.709" y2="97.0516" gradientUnits="userSpaceOnUse">
<stop stop-color="#9DE8EE"/>
<stop offset="0.0001" stop-color="#9DE8EE"/>
<stop offset="0.490049" stop-color="#FA7C0B"/>
<stop offset="0.79" stop-color="#C48590"/>
<stop offset="1" stop-color="#9F8CED"/>
</linearGradient>
<linearGradient id="paint14_linear_8_1978" x1="139.095" y1="46.055" x2="153.587" y2="87.9558" gradientUnits="userSpaceOnUse">
<stop stop-color="#9DE8EE"/>
<stop offset="0.0001" stop-color="#9DE8EE"/>
<stop offset="0.490049" stop-color="#FA7C0B"/>
<stop offset="0.79" stop-color="#C48590"/>
<stop offset="1" stop-color="#9F8CED"/>
</linearGradient>
<linearGradient id="paint15_linear_8_1978" x1="147.248" y1="46.2946" x2="158.854" y2="59.5269" gradientUnits="userSpaceOnUse">
<stop stop-color="#9DE8EE"/>
<stop offset="0.0001" stop-color="#9DE8EE"/>
<stop offset="0.490049" stop-color="#FA7C0B"/>
<stop offset="0.79" stop-color="#C48590"/>
<stop offset="1" stop-color="#9F8CED"/>
</linearGradient>
<linearGradient id="paint16_linear_8_1978" x1="125.159" y1="49.6243" x2="135.451" y2="53.1669" gradientUnits="userSpaceOnUse">
<stop stop-color="#9DE8EE"/>
<stop offset="0.0001" stop-color="#9DE8EE"/>
<stop offset="0.490049" stop-color="#FA7C0B"/>
<stop offset="0.79" stop-color="#C48590"/>
<stop offset="1" stop-color="#9F8CED"/>
</linearGradient>
<linearGradient id="paint17_linear_8_1978" x1="173.771" y1="63.6213" x2="174.234" y2="66.9005" gradientUnits="userSpaceOnUse">
<stop stop-color="#9DE8EE"/>
<stop offset="0.0001" stop-color="#9DE8EE"/>
<stop offset="0.490049" stop-color="#FA7C0B"/>
<stop offset="0.79" stop-color="#C48590"/>
<stop offset="1" stop-color="#9F8CED"/>
</linearGradient>
<linearGradient id="paint18_linear_8_1978" x1="191.073" y1="82.2192" x2="203.486" y2="88.9585" gradientUnits="userSpaceOnUse">
<stop stop-color="#9DE8EE"/>
<stop offset="0.0001" stop-color="#9DE8EE"/>
<stop offset="0.490049" stop-color="#FA7C0B"/>
<stop offset="0.79" stop-color="#C48590"/>
<stop offset="1" stop-color="#9F8CED"/>
</linearGradient>
<linearGradient id="paint19_linear_8_1978" x1="136.091" y1="84.2375" x2="166.018" y2="130.073" gradientUnits="userSpaceOnUse">
<stop stop-color="#9DE8EE"/>
<stop offset="0.0001" stop-color="#9DE8EE"/>
<stop offset="0.490049" stop-color="#FA7C0B"/>
<stop offset="0.79" stop-color="#C48590"/>
<stop offset="1" stop-color="#9F8CED"/>
</linearGradient>
<linearGradient id="paint20_linear_8_1978" x1="175.405" y1="78.8814" x2="176.455" y2="82.8051" gradientUnits="userSpaceOnUse">
<stop stop-color="#9DE8EE"/>
<stop offset="0.0001" stop-color="#9DE8EE"/>
<stop offset="0.490049" stop-color="#FA7C0B"/>
<stop offset="0.79" stop-color="#C48590"/>
<stop offset="1" stop-color="#9F8CED"/>
</linearGradient>
<linearGradient id="paint21_linear_8_1978" x1="137.161" y1="81.2848" x2="146.924" y2="88.1361" gradientUnits="userSpaceOnUse">
<stop stop-color="#9DE8EE"/>
<stop offset="0.0001" stop-color="#9DE8EE"/>
<stop offset="0.490049" stop-color="#FA7C0B"/>
<stop offset="0.79" stop-color="#C48590"/>
<stop offset="1" stop-color="#9F8CED"/>
</linearGradient>
<linearGradient id="paint22_linear_8_1978" x1="157.147" y1="130.717" x2="161.501" y2="134.498" gradientUnits="userSpaceOnUse">
<stop stop-color="#9DE8EE"/>
<stop offset="0.0001" stop-color="#9DE8EE"/>
<stop offset="0.490049" stop-color="#FA7C0B"/>
<stop offset="0.79" stop-color="#C48590"/>
<stop offset="1" stop-color="#9F8CED"/>
</linearGradient>
<linearGradient id="paint23_linear_8_1978" x1="118.435" y1="114.86" x2="122.232" y2="117.86" gradientUnits="userSpaceOnUse">
<stop stop-color="#9DE8EE"/>
<stop offset="0.0001" stop-color="#9DE8EE"/>
<stop offset="0.490049" stop-color="#FA7C0B"/>
<stop offset="0.79" stop-color="#C48590"/>
<stop offset="1" stop-color="#9F8CED"/>
</linearGradient>
<linearGradient id="paint24_linear_8_1978" x1="120.375" y1="150.875" x2="192.296" y2="292.219" gradientUnits="userSpaceOnUse">
<stop stop-color="#9DE8EE"/>
<stop offset="0.0001" stop-color="#9DE8EE"/>
<stop offset="0.490049" stop-color="#FA7C0B"/>
<stop offset="0.79" stop-color="#C48590"/>
<stop offset="1" stop-color="#9F8CED"/>
</linearGradient>
<linearGradient id="paint25_linear_8_1978" x1="77.9145" y1="292.8" x2="77.9403" y2="295.453" gradientUnits="userSpaceOnUse">
<stop stop-color="#9DE8EE"/>
<stop offset="0.0001" stop-color="#9DE8EE"/>
<stop offset="0.490049" stop-color="#FA7C0B"/>
<stop offset="0.79" stop-color="#C48590"/>
<stop offset="1" stop-color="#9F8CED"/>
</linearGradient>
<linearGradient id="paint26_linear_8_1978" x1="180.199" y1="85.4869" x2="182.829" y2="88.7612" gradientUnits="userSpaceOnUse">
<stop stop-color="#9DE8EE"/>
<stop offset="0.0001" stop-color="#9DE8EE"/>
<stop offset="0.490049" stop-color="#FA7C0B"/>
<stop offset="0.79" stop-color="#C48590"/>
<stop offset="1" stop-color="#9F8CED"/>
</linearGradient>
</defs>
</svg>
